<svg width="45" height="45" viewBox="0 0 45 45" fill="none" xmlns="http://www.w3.org/2000/svg">
<path d="M9.72 10.7055H11.64V19.1055H9.72V10.7055ZM21.6633 19.1055L21.2433 17.7855H18.1233L17.7033 19.1055H15.6033L18.4593 10.7055H20.9073L23.7633 19.1055H21.6633ZM18.6993 15.9855H20.6673L19.6833 12.9015L18.6993 15.9855ZM32.9995 10.7055V19.1055H31.0795V14.2215L28.9075 17.7855H28.6915L26.5195 14.2215V19.1055H24.5995V10.7055H26.5195L28.7995 14.4375L31.0795 10.7055H32.9995Z" fill="white"/>
<path d="M17.7821 30.6709L17.782 30.6709L10.0017 38.3204V31.2157C10.0017 30.7926 9.65706 30.4503 9.23288 30.4503H7.19466C4.01947 30.4503 1.43697 27.8792 1.43697 24.72V7.26649C1.43697 4.10764 4.01947 1.53653 7.19466 1.53653H7.29469C7.71894 1.53653 8.06317 1.19416 8.06317 0.771172C8.06317 0.347803 7.7189 0.00581207 7.29469 0.00581207H7.19466C3.17278 0.00581207 -0.1 3.26226 -0.1 7.26649V24.72C-0.1 28.7242 3.17277 31.981 7.19466 31.981H8.4644V40.1517C8.4644 40.4608 8.65104 40.7391 8.93684 40.8579L8.97521 40.7655L8.93685 40.8579C9.03265 40.8977 9.13297 40.917 9.23288 40.917C9.43127 40.917 9.62638 40.8406 9.77284 40.6964L18.6374 31.981H27.8432C28.2674 31.981 28.6117 31.6387 28.6117 31.2157C28.6117 30.7927 28.2674 30.4503 27.8432 30.4503H18.3219C18.1198 30.4503 17.926 30.5296 17.7821 30.6709Z" fill="white" stroke="white" stroke-width="0.2"/>
<path d="M36.0864 39.5726C34.8739 40.0687 33.5733 40.3655 32.2618 40.4523L34.0513 37.7045L37.3739 37.197L37.374 37.197C37.7931 37.1327 38.0815 36.7425 38.0172 36.3242L38.0171 36.3241C37.9524 35.906 37.5597 35.6198 37.1409 35.6837L37.156 35.7825L37.1409 35.6837L35.171 35.9847L37.0833 33.0487L39.4615 32.6854C39.8807 32.6215 40.1691 32.2308 40.1044 31.8125C40.04 31.3943 39.6471 31.1086 39.2285 31.1724L38.203 31.3289L40.6564 27.5613L40.6564 27.5613C40.8874 27.2061 40.7857 26.732 40.4295 26.5023C40.0736 26.2727 39.598 26.3735 39.3668 26.728L39.3667 26.7281L37.0791 30.2411L36.9682 29.5216L36.9682 29.5215C36.9035 29.1034 36.5118 28.8172 36.092 28.8811L36.092 28.8811C35.6727 28.945 35.3844 29.3357 35.4487 29.7539L35.4488 29.7539L35.8217 32.1723L34.0471 34.8969L33.7914 33.2374L33.7913 33.2373C33.7266 32.8191 33.3341 32.5334 32.9152 32.5972C32.496 32.6611 32.2075 33.0514 32.2723 33.4698L32.7897 36.8281L30.9703 39.6221C29.6561 36.0888 30.0734 32.0875 32.1548 28.891C34.4069 25.4326 38.3216 23.361 42.446 23.407C44.1749 27.1373 43.8709 31.5377 41.6188 34.9957C40.6732 36.448 39.4575 37.6532 38.0057 38.579C37.648 38.8068 37.5433 39.2805 37.7729 39.6366C38.0019 39.9928 38.4771 40.0958 38.8341 39.8683C40.4718 38.8244 41.8428 37.465 42.9085 35.8285C44.2296 33.7997 44.9831 31.457 45.0873 29.054C45.1888 26.7224 44.6815 24.3902 43.6202 22.3091L43.6201 22.3089L36.1243 39.6652M36.0864 39.5726L36.1243 39.6652M36.0864 39.5726C36.0864 39.5726 36.0864 39.5726 36.0864 39.5726L36.1243 39.6652M36.0864 39.5726C36.4784 39.4121 36.9276 39.5985 37.0891 39.9895C37.2507 40.3809 37.0631 40.8279 36.6706 40.9885C35.0263 41.6613 33.2377 42.0108 31.4594 42.0108C31.3888 42.0108 31.3184 42.01 31.2484 42.0088M36.1243 39.6652C36.4655 39.5254 36.8563 39.6878 36.9967 40.0277C37.137 40.3676 36.9742 40.7563 36.6328 40.896C35.0005 41.5638 33.2248 41.9109 31.4594 41.9109C31.3711 41.9109 31.2828 41.9095 31.1948 41.9078M31.2484 42.0088L31.2786 41.9623L31.1948 41.9078M31.2484 42.0088L29.3939 44.8565L29.3939 44.8566C29.2466 45.0826 28.9995 45.2055 28.7486 45.2055C28.6051 45.2055 28.4603 45.1656 28.3312 45.0824L28.3311 45.0824C27.9749 44.8526 27.8732 44.3785 28.1042 44.0234L28.1042 44.0233L29.9585 41.1759M31.2484 42.0088C31.2299 42.0084 31.2114 42.0081 31.1929 42.0077L31.1948 41.9078M31.1948 41.9078L29.9585 41.1759M29.9585 41.1759C29.0311 39.1987 28.5915 37.0153 28.6863 34.8324C28.7905 32.4293 29.544 30.0866 30.8651 28.0578C32.1863 26.029 34.0269 24.3878 36.1881 23.3121C37.1831 22.8168 38.234 22.4467 39.3136 22.2061V7.26615C39.3136 4.10729 36.7315 1.53619 33.5563 1.53619H10.1631C9.7389 1.53619 9.39463 1.1942 9.39463 0.770828C9.39463 0.347837 9.73887 0.00546875 10.1631 0.00546875H33.5566C37.5785 0.00546875 40.8509 3.26227 40.8509 7.26615V21.9527C41.5536 21.8779 42.2631 21.8566 42.9727 21.8914C42.9727 21.8914 42.9727 21.8914 42.9727 21.8914L42.9678 21.9913L29.9585 41.1759ZM32.1937 40.5568C32.1525 40.5593 32.1112 40.5616 32.07 40.5637L32.1375 40.4599L32.1937 40.5568Z" fill="white" stroke="white" stroke-width="0.2"/>
</svg>
