<svg width="32" height="53" viewBox="0 0 32 53" fill="none" xmlns="http://www.w3.org/2000/svg">
<path d="M15.1736 49.5618C13.9434 50.4454 12.5322 51.0446 11.042 51.3162C10.1164 51.5053 9.16407 51.5247 8.23149 51.3734C7.24961 51.1967 6.3111 50.832 5.46752 50.2994C4.13802 49.5082 3.00851 48.4216 2.1665 47.1237C2.95366 47.4447 3.79765 47.603 4.64763 47.5891C6.50222 47.5533 7.29346 46.6618 8.78285 46.8122C9.41656 46.8766 10.3439 47.1487 11.4072 48.1727C11.4072 48.1727 10.7377 49.5475 7.93075 49.0248" stroke="white" stroke-width="1.53554" stroke-linecap="round" stroke-linejoin="round"/>
<path d="M16.0514 46.9017C12.5965 46.7907 10.7455 44.195 9.84322 42.7844C7.61987 39.3044 8.35383 36.4115 5.84763 33.6046C4.18639 31.7572 1.99168 31.0268 0.538086 30.6974C1.54722 31.6893 2.31097 32.9029 2.7686 34.2419C3.61354 36.7982 2.79724 38.5919 4.05392 40.1064C4.69303 40.8329 5.56289 41.3172 6.51715 41.4776C6.53994 40.6461 6.43858 39.8159 6.2164 39.0144C6.02781 38.3281 5.75228 37.6688 5.39652 37.0524" stroke="white" stroke-width="1.53554" stroke-linecap="round" stroke-linejoin="round"/>
<path d="M25.9285 22.1119C27.2715 21.4129 28.4429 20.4249 29.3584 19.219C30.5901 17.6913 31.1714 15.7404 30.9767 13.7877C30.87 12.2442 30.4094 10.7459 29.6305 9.40906C29.5568 10.258 29.3133 11.0835 28.9144 11.8365C28.0408 13.4727 26.888 13.777 26.3509 15.1733C26.1254 15.7676 25.9499 16.7164 26.3832 18.127C26.3832 18.127 27.9084 18.1485 28.7103 15.4096" stroke="white" stroke-width="1.53554" stroke-linecap="round" stroke-linejoin="round"/>
<path d="M23.6698 18.8359C23.6698 18.8359 23.6698 15.943 22.2985 14.2997C19.642 11.1419 17.2861 10.0929 15.9113 6.59136C15.0019 4.26776 15.3421 1.98354 15.7037 0.537109C16.1344 1.88007 16.8695 3.10536 17.8518 4.11739C19.753 6.02567 21.7221 6.10444 22.5062 7.91248C22.8682 8.81395 22.9099 9.81237 22.6243 10.7409C21.2227 10.0758 20.0311 9.03783 19.1801 7.74062" stroke="white" stroke-width="1.53554" stroke-linecap="round" stroke-linejoin="round"/>
<path d="M23.6706 18.836L23.6313 29.3799L9.49634 29.3226L9.5393 18.7715C9.5572 15.0624 12.4429 11.9117 16.1521 11.7828" stroke="white" stroke-width="1.53554" stroke-linecap="round" stroke-linejoin="round"/>
<path d="M9.46631 34.9687L9.49495 29.3226L23.6299 29.3799L23.5869 39.9273C23.5887 41.7123 22.9065 43.4301 21.6804 44.7274C20.4544 46.0247 18.7779 46.8028 16.9956 46.9017H16.8739C16.5946 46.9017 16.3225 46.9017 16.0504 46.9017" stroke="white" stroke-width="1.53554" stroke-linecap="round" stroke-linejoin="round"/>
</svg>
