<svg width="39" height="52" viewBox="0 0 39 52" fill="none" xmlns="http://www.w3.org/2000/svg">
<path d="M22.791 50.303L22.791 50.303C23.042 48.8672 23.3226 47.6346 23.6018 46.7052C23.7414 46.2403 23.8798 45.8543 24.0126 45.5579C24.1478 45.2563 24.2696 45.0653 24.369 44.973L24.369 44.9729C24.7436 44.6244 25.3957 44.4797 26.1928 44.4549C26.9809 44.4303 27.8645 44.5231 28.6646 44.6076C29.2006 44.6646 29.7143 44.7187 30.1735 44.7372C31.1692 44.7877 31.9447 44.6661 32.5504 44.4067C33.159 44.146 33.5874 43.7498 33.8918 43.2675C34.4873 42.3239 34.6041 41.0515 34.7141 39.8517L34.7169 39.8217L34.7174 39.8165L34.7173 39.8165C34.7742 38.8786 34.9214 37.9483 35.1567 37.0386C35.2727 36.617 35.4732 36.2233 35.7461 35.8817C36.0193 35.5397 36.3593 35.257 36.7453 35.0507L36.7521 35.0471L36.7585 35.0428L36.768 35.0366C37.0888 34.8252 37.4566 34.5828 37.7322 34.231C38.0165 33.8682 38.1975 33.3972 38.163 32.7399L22.791 50.303ZM22.791 50.303C22.7281 50.662 22.5406 50.9872 22.2615 51.2215C21.9823 51.4558 21.6295 51.5841 21.265 51.5837M22.791 50.303L21.265 51.5837M34.8816 26.3547L34.8816 26.3544C34.8792 25.7916 34.9377 25.0362 34.9954 24.2961L34.9954 24.296L34.9963 24.2843C35.042 23.6942 35.0857 23.1316 35.1007 22.6469L35.1007 22.6468C35.1122 22.2737 35.1073 21.8959 35.0872 21.5236L35.0872 21.5234C35.0774 21.3448 34.9971 21.1775 34.8639 21.0581C34.7307 20.9388 34.5555 20.8772 34.377 20.887C34.1984 20.8968 34.031 20.9771 33.9117 21.1103C33.7924 21.2434 33.7308 21.4185 33.7405 21.597C33.7585 21.932 33.7629 22.2712 33.7529 22.6051C33.7385 23.0601 33.6959 23.6088 33.6505 24.1915L33.6505 24.1916L33.6499 24.1992C33.5915 24.9528 33.5304 25.741 33.5329 26.3589M34.8816 26.3547L7.00696 51.5837L7.0062 51.4165V51.5837H7.00653C6.76568 51.5848 6.52791 51.5296 6.3121 51.4227C6.09615 51.3157 5.90814 51.1598 5.76301 50.9674C5.61788 50.7751 5.51963 50.5515 5.47607 50.3144C5.43251 50.0774 5.44484 49.8335 5.51208 49.6021C5.9801 47.9903 6.78509 44.9262 6.94302 42.4406C6.98536 41.7681 6.90744 40.9091 6.70369 40.0694C6.49961 39.2282 6.17289 38.4214 5.72779 37.8442L5.72777 37.8441C1.5 32.3587 0.0144768 27.781 0.804691 22.5596L0.804714 22.5594C0.864571 22.1665 0.930988 21.7951 1.00843 21.4236C1.0246 21.3359 1.058 21.2524 1.10672 21.1777C1.15585 21.1024 1.21956 21.0377 1.29409 20.9874C1.36863 20.9371 1.45247 20.9023 1.54069 20.8849C1.6289 20.8675 1.7197 20.868 1.80774 20.8863C1.89577 20.9045 1.97926 20.9402 2.05327 20.9913C2.12728 21.0423 2.19033 21.1077 2.23868 21.1835C2.28704 21.2593 2.31973 21.344 2.33482 21.4326C2.34981 21.5206 2.34716 21.6106 2.32708 21.6975C2.25503 22.0443 2.19331 22.3923 2.13753 22.7611L1.9722 22.7361L2.13752 22.7611C1.40067 27.6309 2.73592 31.7543 6.79586 37.0213C7.36152 37.7542 7.75935 38.7242 8.00336 39.7078C8.24762 40.6924 8.34092 41.7033 8.28867 42.5258M34.8816 26.3547C34.8867 28.4882 36.1011 29.8383 37.0215 30.8574M34.8816 26.3547L37.0215 30.8574M33.5329 26.3589C33.5388 29.0141 35.0423 30.6776 36.0134 31.7519L36.0206 31.7599L36.0207 31.7601L36.0293 31.7696C36.2302 31.9926 36.4285 32.2127 36.5793 32.4065C36.6557 32.5046 36.7166 32.5919 36.7584 32.666C36.8025 32.7441 36.8153 32.7903 36.8163 32.8104C36.8313 33.0979 36.7794 33.2618 36.6688 33.4032C36.5474 33.5583 36.3475 33.6989 36.0205 33.9145C35.4982 34.208 35.0388 34.6015 34.6685 35.0726C34.297 35.5452 34.0226 36.0867 33.8611 36.6658L33.8603 36.6685L33.8603 36.6685C33.6015 37.6615 33.4392 38.6771 33.3758 39.7012C33.3185 40.3256 33.2677 40.8777 33.1785 41.357C33.0892 41.8368 32.9638 42.2293 32.7652 42.5372C32.3814 43.1321 31.6861 43.4661 30.2367 43.3917L30.2348 43.3916C29.814 43.3749 29.3272 43.3237 28.8048 43.2684L28.8048 43.2684L28.7999 43.2679C27.8573 43.1685 26.8347 43.0607 25.8987 43.1177C24.9621 43.1748 24.0833 43.3981 23.4502 43.9867L23.5641 44.1092L23.4502 43.9867C23.2065 44.2134 22.9896 44.5712 22.795 44.9992C22.5988 45.4306 22.4189 45.9482 22.2552 46.5076C21.9279 47.6265 21.6618 48.927 21.4627 50.0708C21.4544 50.1176 21.4299 50.16 21.3934 50.1905C21.3569 50.2209 21.3108 50.2376 21.2633 50.2374L21.2628 50.2374L7.00376 50.2374H7.00303C6.97125 50.2376 6.93988 50.2302 6.91144 50.216C6.88301 50.2018 6.8583 50.1812 6.83931 50.1557L6.83804 50.154C6.8194 50.1296 6.80684 50.1011 6.80141 50.071C6.79597 50.0408 6.79782 50.0097 6.80679 49.9804L6.80747 49.9781L6.80746 49.9781C7.2878 48.3243 8.12255 45.1478 8.28867 42.5258M33.5329 26.3589C33.5329 26.3588 33.5329 26.3588 33.5329 26.3587L33.7001 26.3584L33.5329 26.359C33.5329 26.359 33.5329 26.3589 33.5329 26.3589ZM8.28867 42.5258L8.1218 42.5152L8.28867 42.5258C8.28867 42.5258 8.28867 42.5258 8.28867 42.5258ZM21.265 51.5837L21.2652 51.4165V51.5837H21.265ZM37.0215 30.8574L37.0248 30.861C37.3196 31.1871 37.5938 31.4902 37.7969 31.788C38.002 32.0886 38.1452 32.3982 38.163 32.7398L37.0215 30.8574ZM30.2281 43.5587C29.8007 43.5417 29.3082 43.4898 28.7872 43.4347L33.5425 39.714L33.542 39.72C33.3134 42.2089 33.1756 43.7101 30.2281 43.5587Z" fill="white" stroke="white" stroke-width="0.334417"/>
<path d="M31.4542 37.9277H28.4744C28.3105 37.9277 28.1534 37.8626 28.0375 37.7467C27.9217 37.6309 27.8566 37.4737 27.8566 37.3099C27.8566 37.146 27.9217 36.9888 28.0375 36.873C28.1534 36.7571 28.3105 36.692 28.4744 36.692H31.4542C31.6181 36.692 31.7752 36.7571 31.8911 36.873C32.007 36.9888 32.072 37.146 32.072 37.3099C32.072 37.4737 32.007 37.6309 31.8911 37.7467C31.7752 37.8626 31.6181 37.9277 31.4542 37.9277Z" fill="white" stroke="white" stroke-width="0.222945"/>
<path d="M31.0677 28.1129C30.5251 28.1129 30.0853 27.673 30.0853 27.1305C30.0853 26.5879 30.5251 26.148 31.0677 26.148C31.6102 26.148 32.0501 26.5879 32.0501 27.1305C32.0501 27.673 31.6102 28.1129 31.0677 28.1129Z" fill="white" stroke="white" stroke-width="0.222945"/>
<path d="M16.862 14.9848L16.941 15.0635C16.8003 15.2046 16.7213 15.3956 16.7213 15.5949C16.7213 15.7941 16.8003 15.9851 16.941 16.1262C16.9983 16.1835 17.0437 16.2516 17.0747 16.3265L16.9717 16.3691L17.0747 16.3265C17.1058 16.4014 17.1217 16.4817 17.1217 16.5628C17.1217 16.6439 17.1058 16.7242 17.0747 16.7992C17.0437 16.8741 16.9982 16.9422 16.9408 16.9995C16.8835 17.0569 16.8154 17.1024 16.7405 17.1334L16.6978 17.0304L16.7405 17.1334C16.6655 17.1644 16.5852 17.1804 16.5041 17.1804C16.423 17.1804 16.3427 17.1644 16.2678 17.1334C16.1928 17.1024 16.1248 17.0569 16.0674 16.9995L16.0673 16.9994C15.6953 16.6265 15.4864 16.1213 15.4864 15.5946C15.4864 15.068 15.6953 14.5628 16.0673 14.1899L16.0675 14.1897C16.5046 13.7535 17.097 13.5085 17.7145 13.5085C18.3321 13.5085 18.9244 13.7535 19.3616 14.1897L19.3617 14.1899C19.8781 14.7072 20.1681 15.4083 20.1681 16.1393C20.1681 16.8703 19.8781 17.5714 19.3617 18.0887L19.3615 18.0889C18.7438 18.705 17.907 19.051 17.0346 19.051C16.1622 19.051 15.3253 18.705 14.7076 18.0889L14.7075 18.0887C13.9658 17.3454 13.5493 16.3382 13.5493 15.2882C13.5493 14.2382 13.9658 13.231 14.7075 12.4877L14.7076 12.4875C15.6079 11.5894 16.8275 11.085 18.0992 11.085C19.3708 11.085 20.5905 11.5894 21.4907 12.4875L21.4907 12.4875L21.4914 12.4882C22.574 13.5875 23.1816 15.068 23.1835 16.6109C23.1853 18.1538 22.5813 19.6357 21.5013 20.7377L21.5003 20.7386C20.9316 21.3047 20.2548 21.7505 19.5102 22.0494C18.7659 22.3482 17.9692 22.4941 17.1675 22.4785C16.0431 22.4846 14.937 22.1945 13.9603 21.6375L13.9595 21.6371C13.8893 21.5963 13.8279 21.5421 13.7787 21.4776C13.7294 21.4131 13.6934 21.3396 13.6726 21.2611C13.6518 21.1827 13.6467 21.1009 13.6575 21.0205C13.6683 20.9401 13.6948 20.8626 13.7356 20.7924C13.7764 20.7222 13.8305 20.6608 13.895 20.6116C13.9596 20.5623 14.0331 20.5263 14.1116 20.5055C14.2699 20.4635 14.4385 20.4862 14.5802 20.5685C16.532 21.7008 19.1817 21.394 20.6033 19.8876L20.6033 19.8876L20.605 19.8859C21.4615 19.0167 21.9424 17.8459 21.9442 16.6256C21.9459 15.4055 21.4686 14.2335 20.6149 13.3619C19.9467 12.6954 19.0414 12.3212 18.0975 12.3212C17.1535 12.3212 16.2481 12.6956 15.5798 13.3623C15.0697 13.8736 14.7833 14.5664 14.7833 15.2886C14.7833 16.0109 15.0698 16.7037 15.5799 17.2151C15.9658 17.6 16.4887 17.8161 17.0338 17.8161C17.5789 17.8161 18.1018 17.5999 18.4878 17.2149C18.7726 16.9294 18.9326 16.5426 18.9326 16.1393C18.9326 15.736 18.7726 15.3491 18.4878 15.0636C18.2825 14.8587 18.0043 14.7436 17.7143 14.7436C17.4243 14.7436 17.1461 14.8587 16.9408 15.0637L16.862 14.9848ZM16.862 14.9848C16.7005 15.1468 16.6099 15.3661 16.6099 15.5949C16.6099 15.8236 16.7005 16.0429 16.862 16.2049V14.9848Z" fill="white" stroke="white" stroke-width="0.222945"/>
<path d="M12.9004 20.4722C12.816 20.4725 12.7324 20.4556 12.6548 20.4223C12.5773 20.3891 12.5075 20.3404 12.4497 20.2791C12.1806 19.9982 11.9475 19.6848 11.756 19.3462C11.714 19.276 11.6862 19.1982 11.6745 19.1173C11.6627 19.0358 11.6672 18.9527 11.688 18.873C11.7087 18.7933 11.7452 18.7185 11.7952 18.6531C11.8452 18.5877 11.9079 18.5329 11.9794 18.4921C12.0509 18.4512 12.1299 18.425 12.2116 18.4151C12.2934 18.4052 12.3763 18.4118 12.4555 18.4344C12.5347 18.457 12.6086 18.4952 12.6728 18.5468C12.7368 18.5982 12.7898 18.6618 12.829 18.7339C12.972 18.988 13.1469 19.2228 13.3495 19.4326L13.3495 19.4325L13.3511 19.4342C13.4327 19.5222 13.4869 19.6321 13.5071 19.7504C13.5273 19.8687 13.5126 19.9903 13.4648 20.1004C13.4169 20.2105 13.3381 20.3043 13.2379 20.3703C13.1376 20.4363 13.0204 20.4717 12.9004 20.4722ZM12.9004 20.4722L12.8999 20.3607M12.9004 20.4722C12.9004 20.4722 12.9003 20.4722 12.9003 20.4722L12.8999 20.3607M12.8999 20.3607C12.8307 20.361 12.7623 20.3471 12.6987 20.3198C12.6352 20.2926 12.5779 20.2526 12.5304 20.2023L13.2693 19.51C13.3362 19.5821 13.3807 19.6722 13.3972 19.7691C13.4138 19.8661 13.4017 19.9658 13.3625 20.056C13.3233 20.1463 13.2587 20.2231 13.1765 20.2772C13.0944 20.3313 12.9983 20.3603 12.8999 20.3607Z" fill="white" stroke="white" stroke-width="0.222945"/>
<path d="M8.09048 16.0401L8.09043 16.04C7.68384 15.5028 7.08065 15.149 6.41336 15.0563C5.74607 14.9636 5.06927 15.1396 4.53165 15.5456L4.53161 15.5456C4.30571 15.7164 4.11565 15.9299 3.97229 16.1741C3.82893 16.4184 3.73508 16.6884 3.69608 16.9689C3.65709 17.2494 3.67373 17.5348 3.74504 17.8088C3.81635 18.0829 3.94094 18.3402 4.1117 18.5661L4.11173 18.5661C4.40749 18.9571 4.84638 19.2146 5.33194 19.2821C5.81712 19.3496 6.30922 19.2218 6.70025 18.9268C6.7665 18.8787 6.82254 18.818 6.86511 18.7481C6.90791 18.6778 6.93624 18.5997 6.94845 18.5184C6.96066 18.4371 6.95651 18.3541 6.93623 18.2744C6.91595 18.1946 6.87996 18.1198 6.83036 18.0542C6.78077 17.9885 6.71857 17.9335 6.64741 17.8922C6.57625 17.8509 6.49757 17.8243 6.41598 17.8138C6.33439 17.8034 6.25153 17.8093 6.17227 17.8313C6.09345 17.8532 6.01976 17.8905 5.95547 17.9411C5.8258 18.0385 5.66282 18.0807 5.50212 18.0584C5.34105 18.036 5.19543 17.9507 5.09721 17.8211C5.02428 17.7246 4.97109 17.6147 4.94068 17.4976C4.91026 17.3805 4.90325 17.2586 4.92003 17.1388C4.93681 17.019 4.97706 16.9036 5.03847 16.7994C5.09989 16.6952 5.18126 16.6041 5.27793 16.5313L5.27809 16.5312C5.55438 16.3226 5.9022 16.2322 6.24512 16.2798C6.58804 16.3275 6.89801 16.5093 7.10694 16.7854L7.10697 16.7854C7.24871 16.9726 7.35217 17.1858 7.41142 17.4129C7.47068 17.6401 7.48458 17.8767 7.45232 18.1092C7.42005 18.3417 7.34227 18.5656 7.22341 18.768C7.10455 18.9705 6.94695 19.1475 6.75962 19.289L6.75958 19.289C6.25448 19.6708 5.61844 19.8363 4.99131 19.7492C4.36441 19.6621 3.79773 19.3298 3.41577 18.8251C2.92163 18.1557 2.70996 17.319 2.82631 16.4951C2.94263 15.6713 3.37755 14.9261 4.03754 14.4197C4.4462 14.1185 4.91907 13.9162 5.41905 13.8285C5.91939 13.7407 6.43326 13.7702 6.9203 13.9145L6.92731 13.9165L6.92736 13.9163C7.38483 14.0198 7.8121 14.2279 8.17567 14.5242C8.53835 14.8198 8.82781 15.1952 9.02149 15.6211C9.0505 15.6967 9.09407 15.7658 9.14973 15.8245C9.20628 15.8842 9.27416 15.932 9.34941 15.9651C9.42467 15.9982 9.50577 16.016 9.58797 16.0174C9.67018 16.0187 9.75183 16.0037 9.82814 15.9731C9.90445 15.9425 9.97389 15.897 10.0324 15.8392M8.09048 16.0401L10.0324 15.8392M8.09048 16.0401C8.57372 16.6795 8.78316 17.4848 8.67273 18.2787C8.56232 19.0725 8.14113 19.7899 7.5018 20.2733M8.09048 16.0401L7.5018 20.2733M10.0324 15.8392C10.0909 15.7814 10.1373 15.7126 10.1688 15.6367C10.2003 15.5607 10.2164 15.4793 10.2161 15.3971C10.2157 15.3148 10.199 15.2335 10.1668 15.1579M10.0324 15.8392L10.1668 15.1579M10.1666 15.1573L10.1666 15.1573C9.90379 14.5491 9.50134 14.0115 8.99188 13.588C8.48324 13.1652 7.88223 12.868 7.23748 12.7205C6.56544 12.5269 5.85763 12.4919 5.16974 12.6183C4.48082 12.7449 3.83074 13.0299 3.27082 13.4507L3.26965 13.4516L3.26966 13.4516C2.35561 14.1576 1.75538 15.1943 1.59821 16.3386C1.44103 17.4828 1.73949 18.6429 2.42931 19.5693L2.42961 19.5697C2.7157 19.9502 3.07441 20.2702 3.48499 20.5111C3.89551 20.752 4.34972 20.9092 4.82135 20.9734L10.1666 15.1573ZM10.1666 15.1573L10.1668 15.1579M10.1666 15.1573L10.1668 15.1579M7.5018 20.2733C6.87639 20.7495 6.11214 21.0076 5.32607 21.0081L7.5018 20.2733Z" fill="white" stroke="white" stroke-width="0.222945"/>
<path d="M9.85053 9.81978C9.93147 9.83376 10.0088 9.86373 10.0781 9.90797C10.1479 9.95261 10.2081 10.0109 10.255 10.0792C10.3019 10.1476 10.3345 10.2247 10.351 10.306C10.3674 10.3873 10.3673 10.471 10.3507 10.5522C10.3342 10.6335 10.3014 10.7105 10.2544 10.7788C10.2074 10.8471 10.1471 10.9053 10.0772 10.9498L10.0173 10.8558L10.0772 10.9498C10.0659 10.957 10.0544 10.9638 10.0427 10.9702C10.177 10.9356 10.3049 10.879 10.4211 10.8025C10.5593 10.7114 10.6783 10.594 10.7711 10.457C10.8639 10.3199 10.9288 10.166 10.9621 10.0038C11.009 9.77434 10.9629 9.53564 10.834 9.34006C10.7052 9.14449 10.504 9.008 10.2746 8.96054L10.2972 8.85138L10.2748 8.96058C10.1231 8.92943 9.96532 8.95977 9.83603 9.04492C9.70676 9.13006 9.61658 9.26303 9.58529 9.41462C9.56695 9.5038 9.58477 9.59661 9.63483 9.67265C9.68457 9.7482 9.76209 9.80105 9.85053 9.81978ZM9.85053 9.81978C9.84979 9.81965 9.84904 9.81953 9.8483 9.8194L9.82974 9.92932L9.85227 9.82014C9.85169 9.82002 9.85111 9.8199 9.85053 9.81978ZM9.73568 12.2465L9.73559 12.2465L9.2456 12.0852L9.223 12.1943C9.22297 12.1943 9.22295 12.1943 9.22292 12.1943C8.45329 12.0349 7.77827 11.5768 7.3459 10.9205C6.91352 10.2641 6.75911 9.46302 6.91652 8.69295L6.9167 8.69208C7.11178 7.77494 7.65938 6.97115 8.4415 6.45394C9.22361 5.93673 10.1776 5.7475 11.0979 5.92704L11.0979 5.92703L11.0992 5.9273C11.6556 6.0428 12.1775 6.28606 12.6237 6.63786C13.0691 6.98903 13.4269 7.43876 13.669 7.95164C13.924 8.42475 14.0642 8.9512 14.0782 9.48849C14.0922 10.0268 13.9792 10.5608 13.7484 11.0473L13.7485 11.0474L13.7459 11.0523C13.6695 11.1945 13.5405 11.3012 13.3865 11.3496C13.2325 11.398 13.0656 11.3842 12.9217 11.3112C12.7777 11.2382 12.6679 11.1118 12.6159 10.959C12.5641 10.8066 12.5737 10.64 12.6427 10.4946C12.784 10.18 12.8505 9.83706 12.8372 9.49251C12.8238 9.14755 12.7306 8.81038 12.5651 8.50745L12.5648 8.50758L12.5616 8.50052C12.4048 8.15918 12.171 7.85886 11.8785 7.62317C11.5863 7.38771 11.2436 7.22317 10.8771 7.14246C10.2745 7.02225 9.64881 7.14342 9.13467 7.47994C8.62044 7.81652 8.25897 8.34159 8.12808 8.94206C8.03645 9.39106 8.12654 9.85809 8.37862 10.2408C8.60494 10.5844 8.94526 10.8349 9.33717 10.9499C9.23197 10.9079 9.13135 10.8546 9.03713 10.7907C8.86549 10.6744 8.71844 10.5254 8.60438 10.3523C8.49033 10.1791 8.4115 9.98518 8.37239 9.78157C8.33329 9.57795 8.33468 9.36862 8.37648 9.16554L8.37649 9.1655C8.47392 8.69293 8.755 8.27838 9.15796 8.01298C9.56093 7.74757 10.0528 7.65303 10.5254 7.75014L10.5256 7.75017C11.0759 7.8641 11.5585 8.19162 11.8676 8.66089C12.1767 9.13016 12.2872 9.70287 12.1746 10.2534L12.1746 10.2536C12.0586 10.8153 11.7529 11.32 11.3088 11.6829C10.8647 12.0458 10.3092 12.2448 9.73568 12.2465Z" fill="white" stroke="white" stroke-width="0.222945"/>
<path d="M11.0675 18.1425C10.9705 18.143 10.8748 18.1207 10.7881 18.0774C10.7013 18.034 10.626 17.9708 10.5683 17.8928L10.5679 17.8923C10.4024 17.6662 10.2938 17.5228 10.2264 17.4358C10.1928 17.3923 10.1695 17.363 10.1547 17.3447C10.142 17.329 10.1373 17.3236 10.1373 17.3235L10.1345 17.3202C10.0265 17.197 9.97184 17.0358 9.98264 16.8723C9.99344 16.7087 10.0688 16.5562 10.192 16.4482C10.3153 16.3401 10.4765 16.2855 10.64 16.2963C10.8031 16.3071 10.9553 16.382 11.0632 16.5047C11.0909 16.535 11.2144 16.6831 11.5652 17.1614L11.5652 17.1614L11.5655 17.1619C11.6323 17.2539 11.6724 17.3627 11.6813 17.4761C11.6903 17.5895 11.6678 17.7031 11.6162 17.8045C11.5647 17.9059 11.4862 17.9911 11.3893 18.0508C11.2925 18.1104 11.1811 18.1421 11.0675 18.1425ZM11.0675 18.1425C11.0675 18.1425 11.0676 18.1425 11.0676 18.1425L11.067 18.031L11.0673 18.1425C11.0674 18.1425 11.0674 18.1425 11.0675 18.1425Z" fill="white" stroke="white" stroke-width="0.222945"/>
<path d="M22.6741 19.5462L22.6741 19.5462C22.5592 19.6165 22.4705 19.7225 22.4214 19.8479C22.3723 19.9733 22.3655 20.1113 22.4021 20.241C22.4387 20.3706 22.5167 20.4847 22.6241 20.5659C22.7316 20.6471 22.8626 20.691 22.9973 20.6909M22.6741 19.5462L22.9972 20.5794M22.6741 19.5462L22.6754 19.5454C22.9261 19.3966 23.1569 19.2163 23.362 19.0091L22.6741 19.5462ZM22.9973 20.6909L22.9972 20.5794M22.9973 20.6909C22.9973 20.6909 22.9973 20.6909 22.9973 20.6909L22.9972 20.5794M22.9973 20.6909C23.111 20.6908 23.2224 20.6593 23.3192 20.5998M22.9972 20.5794C23.0905 20.5794 23.1819 20.5534 23.2613 20.5045M23.3192 20.5998C23.319 20.5999 23.3187 20.6 23.3185 20.6002L23.2613 20.5045M23.3192 20.5998C23.3194 20.5996 23.3196 20.5995 23.3198 20.5994L23.2613 20.5045M23.3192 20.5998L23.2613 20.5045M24.2348 19.8835C24.2345 19.8838 24.2342 19.8841 24.2339 19.8844L24.1566 19.8041L24.2357 19.8826C24.2354 19.8829 24.2351 19.8832 24.2348 19.8835Z" fill="white" stroke="white" stroke-width="0.222945"/>
<path d="M31.0116 21.4131H31.0117C31.1811 21.4133 31.3503 21.4015 31.518 21.3781M31.0116 21.4131L29.705 19.2438C29.6503 19.2044 29.6041 19.1544 29.569 19.0968C29.534 19.0392 29.5108 18.9752 29.5007 18.9085C29.4907 18.8419 29.4941 18.7739 29.5108 18.7085C29.5274 18.6432 29.5569 18.5818 29.5975 18.5281C29.6382 18.4743 29.6891 18.4292 29.7475 18.3953C29.8058 18.3615 29.8703 18.3397 29.9371 18.3311C30.004 18.3226 30.0719 18.3274 30.1369 18.3454C30.2018 18.3635 30.2625 18.3943 30.3154 18.4361L30.3826 18.3471C30.3829 18.3473 30.3832 18.3476 30.3835 18.3478C30.5132 18.4453 30.6762 18.4875 30.8369 18.4651C30.998 18.4427 31.1436 18.3572 31.2417 18.2275C31.3146 18.131 31.3678 18.0211 31.3982 17.904C31.4287 17.787 31.4357 17.6651 31.4189 17.5453C31.4021 17.4255 31.3619 17.3102 31.3005 17.206C31.2391 17.1018 31.1577 17.0108 31.061 16.9381L31.0609 16.9379C30.7846 16.7293 30.4368 16.6389 30.0938 16.6865C29.7509 16.7342 29.441 16.916 29.232 17.1921C29.0906 17.3792 28.9874 17.5923 28.9283 17.8194C28.8692 18.0464 28.8555 18.2828 28.8878 18.5152C28.9201 18.7475 28.9979 18.9712 29.1167 19.1735C29.2355 19.3758 29.393 19.5527 29.5802 19.6941L29.5802 19.6941C29.8304 19.8834 30.1153 20.0215 30.4188 20.1006C30.7223 20.1798 31.0385 20.1983 31.3492 20.1553C31.6599 20.1122 31.959 20.0084 32.2296 19.8497C32.5 19.6911 32.7365 19.4809 32.9257 19.231C33.4197 18.5614 33.6313 17.7247 33.5149 16.9008C33.3986 16.077 32.9638 15.3317 32.3038 14.8251C31.8952 14.5239 31.4224 14.3214 30.9224 14.2337C30.422 14.146 29.9081 14.1755 29.4211 14.3199L29.4212 14.3202L29.414 14.3218C28.9566 14.4253 28.5293 14.6334 28.1657 14.9297C27.803 15.2253 27.5136 15.6007 27.3199 16.0266C27.2909 16.1021 27.2473 16.1712 27.1917 16.23C27.1351 16.2897 27.0672 16.3375 26.992 16.3706C26.9167 16.4037 26.8356 16.4215 26.7534 16.4229C26.6712 16.4242 26.5896 16.4092 26.5132 16.3786C26.4369 16.348 26.3675 16.3025 26.309 16.2447C26.2505 16.1869 26.2041 16.1181 26.1726 16.0421C26.141 15.9662 26.125 15.8848 26.1253 15.8026C26.1256 15.7203 26.1424 15.639 26.1746 15.5634L26.1748 15.5627C26.4377 14.9547 26.8402 14.4173 27.3497 13.9939C27.8583 13.5712 28.4593 13.2742 29.1039 13.1268C29.776 12.9335 30.4837 12.8986 31.1716 13.025C31.8604 13.1515 32.5105 13.4364 33.0705 13.857L33.0705 13.857L33.0718 13.8579C33.985 14.5642 34.5845 15.6008 34.7413 16.7446C34.8981 17.8884 34.5996 19.048 33.9101 19.9739L33.9097 19.9744C33.6237 20.3549 33.2649 20.6749 32.8544 20.9158C32.4438 21.1567 31.9896 21.3138 31.518 21.3781M31.0116 21.4131C30.2263 21.412 29.4628 21.1539 28.8379 20.6783C28.199 20.1951 27.778 19.4781 27.6674 18.6847C27.5568 17.8912 27.7658 17.0863 28.2484 16.4468L28.2485 16.4467C28.655 15.9095 29.2582 15.5556 29.9255 15.4628C30.5928 15.37 31.2696 15.5459 31.8073 15.9519L31.8073 15.9519C32.0332 16.1227 32.2233 16.3362 32.3667 16.5804C32.51 16.8246 32.6039 17.0947 32.6429 17.3752C32.6819 17.6557 32.6652 17.9411 32.5939 18.2151C32.5226 18.4892 32.398 18.7465 32.2273 18.9724C31.9316 19.3635 31.4927 19.6212 31.0071 19.6888C30.5219 19.7563 30.0298 19.6285 29.6387 19.3335L31.0116 21.4131ZM31.518 21.3781C31.5179 21.3781 31.5179 21.3781 31.5178 21.3781L31.5027 21.2676L31.5182 21.378C31.5181 21.378 31.5181 21.3781 31.518 21.3781Z" fill="white" stroke="white" stroke-width="0.222945"/>
<path d="M25.0968 18.7384V18.7384C24.9733 18.7381 24.8527 18.7009 24.7506 18.6314C24.6481 18.5617 24.569 18.4627 24.5234 18.3474C24.4779 18.2321 24.4681 18.1058 24.4953 17.9848C24.5226 17.8639 24.5856 17.7539 24.6761 17.6693L24.6763 17.6691C24.8454 17.5118 24.9917 17.3317 25.1109 17.134C25.1464 17.0603 25.1962 16.9943 25.2575 16.9399C25.3203 16.8843 25.3937 16.842 25.4733 16.8156C25.553 16.7892 25.6372 16.7794 25.7207 16.7866C25.8043 16.7938 25.8856 16.818 25.9595 16.8577C26.0334 16.8973 26.0985 16.9516 26.1508 17.0173C26.203 17.0829 26.2414 17.1585 26.2635 17.2394C26.2856 17.3203 26.291 17.4049 26.2793 17.488C26.2677 17.5706 26.2395 17.65 26.1964 17.7214C26.015 18.0374 25.7867 18.324 25.5194 18.5715C25.4049 18.6789 25.2538 18.7386 25.0968 18.7384Z" fill="white" stroke="white" stroke-width="0.222945"/>
<path d="M13.3968 12.5677L13.3968 12.5677C13.4136 12.487 13.4142 12.4036 13.3983 12.3227C13.3824 12.2417 13.3505 12.1647 13.3044 12.0963C13.2583 12.0278 13.199 11.9693 13.1299 11.9242C13.0608 11.879 12.9834 11.8482 12.9022 11.8335C12.8211 11.8187 12.7377 11.8204 12.6572 11.8384C12.5767 11.8564 12.5006 11.8904 12.4334 11.9383C12.3662 11.9862 12.3093 12.047 12.266 12.1173M13.3968 12.5677L12.266 12.1173M13.3968 12.5677L13.3967 12.5681M13.3968 12.5677L13.3967 12.5681M12.266 12.1173C12.2234 12.1865 12.1948 12.2634 12.1819 12.3436M12.266 12.1173L12.1819 12.3436M13.3967 12.5681C13.341 12.8296 13.3153 13.0965 13.32 13.3637C13.3289 13.4423 13.3227 13.5219 13.3016 13.5981C13.2799 13.6763 13.2431 13.7495 13.1931 13.8134C13.1432 13.8774 13.0811 13.9309 13.0104 13.9708C12.94 14.0107 12.8624 14.0363 12.7821 14.0462L13.3967 12.5681ZM12.0932 13.5084L12.0934 13.5083C12.1116 13.6579 12.1839 13.7956 12.2966 13.8956C12.4093 13.9956 12.5546 14.0509 12.7052 14.0511C12.7053 14.0511 12.7053 14.0511 12.7054 14.0511L12.0932 13.5084ZM12.0932 13.5084L12.0928 13.5019M12.0932 13.5084L12.0928 13.5019M12.0928 13.5019C12.0681 13.1135 12.0981 12.7236 12.1819 12.3436M12.0928 13.5019L12.1819 12.3436" fill="white" stroke="white" stroke-width="0.222945"/>
<path d="M27.1134 12.5994C26.9613 12.631 26.8066 12.6483 26.6513 12.6511L26.6483 12.6541L26.6019 12.654C26.0284 12.6523 25.4729 12.4533 25.0288 12.0904C24.5847 11.7275 24.279 11.2228 24.163 10.6611L24.163 10.6609C24.0505 10.1103 24.161 9.53762 24.4701 9.06832C24.7792 8.59902 25.2617 8.27141 25.812 8.15727L25.8124 8.15719C26.2849 8.06104 26.7762 8.15596 27.1789 8.42118C27.5816 8.6864 27.8628 9.10033 27.9611 9.57239L27.9611 9.5726C28.003 9.77571 28.0044 9.98508 27.9653 10.1888C27.9263 10.3924 27.8474 10.5864 27.7334 10.7596C27.6193 10.9328 27.4722 11.0818 27.3006 11.1982C27.2075 11.2612 27.1082 11.314 27.0044 11.3558C27.3946 11.2403 27.7334 10.9904 27.959 10.6479C28.211 10.2652 28.3011 9.79816 28.2095 9.34915C28.0786 8.74868 27.7171 8.22361 27.2029 7.88703C26.6888 7.55052 26.0631 7.42934 25.4605 7.54955C25.094 7.63026 24.7512 7.7948 24.459 8.03026C24.1666 8.26595 23.9328 8.56627 23.776 8.90761L23.7762 8.90772L23.7725 8.91455C23.6069 9.21748 23.5138 9.55464 23.5004 9.8996C23.4871 10.244 23.5536 10.5869 23.6947 10.9014C23.7649 11.0471 23.7753 11.2145 23.7235 11.3678C23.6715 11.5216 23.5611 11.6488 23.4161 11.7219C23.2711 11.795 23.1031 11.8081 22.9485 11.7584C22.794 11.7087 22.6651 11.6002 22.5899 11.4563L22.5898 11.4563L22.588 11.4524C22.3571 10.9659 22.2441 10.4319 22.2582 9.89355C22.2722 9.35626 22.4124 8.82981 22.6674 8.35671C22.9095 7.84382 23.2673 7.3941 23.7127 7.04293C24.1589 6.69113 24.6808 6.44787 25.2371 6.33237L25.2371 6.33236L25.2385 6.3321C26.1587 6.1529 27.1126 6.34226 27.8946 6.85941C28.6766 7.37657 29.2243 8.18014 29.4197 9.09711L29.4197 9.09711L29.4199 9.09802C29.5773 9.86809 29.4228 10.6692 28.9905 11.3255C28.5581 11.9819 27.8831 12.44 27.1134 12.5994ZM27.1134 12.5994L27.0908 12.4902M27.1134 12.5994C27.1134 12.5994 27.1134 12.5994 27.1134 12.5994L27.0908 12.4902M27.0908 12.4902C26.9309 12.5235 26.768 12.5402 26.6047 12.5401L29.3106 9.12034C29.4621 9.8615 29.3135 10.6325 28.8974 11.2642C28.4812 11.8959 27.8315 12.3369 27.0908 12.4902ZM26.5013 9.4527C26.3721 9.36755 26.2144 9.33698 26.0628 9.36767L26.2935 11.3769C26.2823 11.3707 26.2712 11.3642 26.2604 11.3573C26.1905 11.3128 26.1302 11.2546 26.0832 11.1863C26.0362 11.118 26.0034 11.041 25.9868 10.9597C25.9702 10.8785 25.9702 10.7948 25.9866 10.7135C26.0031 10.6322 26.0357 10.5551 26.0826 10.4867C26.1295 10.4184 26.1897 10.3601 26.2595 10.3155C26.3288 10.2712 26.4061 10.2413 26.4871 10.2273C26.5755 10.2085 26.653 10.1557 26.7028 10.0801C26.7528 10.0041 26.7706 9.91138 26.7523 9.82224C26.7208 9.67073 26.6305 9.53787 26.5013 9.4527Z" fill="white" stroke="white" stroke-width="0.222945"/>
<path d="M24.5127 13.5774L24.5129 13.5774L23.895 14.0814V14.1929H23.8949L23.8946 14.1929L23.8941 14.1929C23.731 14.1921 23.5747 14.1271 23.4592 14.0119C23.3446 13.8975 23.2793 13.7429 23.2772 13.581C23.2578 13.2938 23.2025 13.0101 23.1126 12.7365L23.1126 12.7366L23.1117 12.7337C23.0885 12.656 23.0808 12.5745 23.089 12.4938C23.0973 12.4131 23.1214 12.3348 23.1599 12.2635C23.1984 12.1921 23.2506 12.129 23.3135 12.0778C23.3764 12.0266 23.4487 11.9883 23.5264 11.965C23.6041 11.9418 23.6857 11.9341 23.7663 11.9423C23.847 11.9506 23.9253 11.9747 23.9967 12.0132C24.068 12.0517 24.1311 12.1039 24.1823 12.1668C24.2332 12.2293 24.2713 12.3011 24.2946 12.3782C24.4226 12.7659 24.496 13.1695 24.5127 13.5774Z" fill="white" stroke="white" stroke-width="0.222945"/>
<path d="M19.0382 8.89844H19.0381C18.9458 8.89835 18.8547 8.87728 18.7717 8.83684C18.6985 8.80174 18.6329 8.75254 18.5788 8.69206C18.5247 8.63159 18.483 8.56102 18.4562 8.48442C18.4293 8.40781 18.4179 8.32666 18.4225 8.24563C18.4271 8.16459 18.4476 8.08526 18.4829 8.01217L18.4829 8.01217L18.4835 8.01094C18.8028 7.37022 19.2622 6.80963 19.8277 6.37079C20.1246 6.13018 20.3652 5.82739 20.5325 5.48375C20.6999 5.13977 20.7898 4.76324 20.7958 4.38072L20.7958 4.38072L20.7959 4.37812C20.8081 4.06438 20.7495 3.7519 20.6243 3.46395C20.4992 3.17599 20.3107 2.91996 20.0729 2.7149L20.0729 2.71491L20.0719 2.714C19.6113 2.30689 19.0093 2.09693 18.3955 2.12933C17.7819 2.16173 17.2055 2.43373 16.7904 2.88679C16.639 3.05584 16.5225 3.25303 16.4473 3.46711C16.3721 3.68138 16.3398 3.90837 16.3524 4.13512C16.3649 4.36186 16.422 4.58391 16.5204 4.78858C16.597 4.94786 16.6974 5.09418 16.818 5.2226C16.6238 4.97116 16.5083 4.66504 16.4905 4.34337C16.4673 3.92534 16.6108 3.51517 16.8895 3.20279L16.8896 3.20271C17.0488 3.02456 17.2416 2.87954 17.4569 2.77593C17.6722 2.67233 17.9059 2.61217 18.1444 2.59891C18.383 2.58564 18.6219 2.61952 18.8473 2.69862C19.0728 2.7777 19.2804 2.90044 19.4584 3.05981C19.666 3.24534 19.8349 3.46995 19.9557 3.7208C20.0764 3.97165 20.1465 4.24383 20.162 4.52178C20.1774 4.79973 20.138 5.07801 20.0459 5.34072C19.9538 5.60342 19.8109 5.8454 19.6252 6.05284C19.4067 6.29708 19.1422 6.49588 18.8469 6.63791C18.5516 6.77993 18.2312 6.8624 17.904 6.88059C17.5767 6.89878 17.2492 6.85234 16.9399 6.74393C16.6307 6.63552 16.3458 6.46726 16.1016 6.24876C15.8113 5.98921 15.575 5.67502 15.4063 5.32414C15.2375 4.97325 15.1395 4.59255 15.1178 4.20377C15.0962 3.815 15.1514 3.42578 15.2803 3.05834C15.4091 2.69091 15.6091 2.35246 15.8688 2.06234L15.8693 2.06179C16.499 1.36753 17.3762 0.948327 18.312 0.894445C19.2475 0.840577 20.1668 1.15615 20.872 1.77323C21.2502 2.0959 21.5508 2.49969 21.7514 2.95456C21.9519 3.40937 22.0474 3.90353 22.0306 4.40031C22.0209 4.96461 21.8876 5.51993 21.6401 6.02716C21.3925 6.53468 21.0365 6.98172 20.5974 7.33676L20.5974 7.33679L20.5953 7.3384C20.1751 7.66194 19.833 8.07582 19.5943 8.54943C19.5439 8.65385 19.4651 8.74198 19.367 8.80371C19.2685 8.86563 19.1545 8.89847 19.0382 8.89844ZM17.46 5.58966C17.4341 5.5911 17.4082 5.59088 17.3825 5.58908C17.5287 5.63579 17.6824 5.65541 17.8358 5.64687C18.001 5.63768 18.1628 5.59604 18.3119 5.52432C18.461 5.45261 18.5945 5.35223 18.7048 5.22892L18.7048 5.22887C18.7823 5.14236 18.842 5.04142 18.8804 4.93183C18.9188 4.82224 18.9353 4.70615 18.9289 4.5902C18.9224 4.47424 18.8932 4.36069 18.8428 4.25604C18.7925 4.15139 18.722 4.05769 18.6354 3.9803L18.6353 3.98019C18.5782 3.92902 18.5116 3.88961 18.4393 3.86422C18.3669 3.83883 18.2903 3.82795 18.2138 3.83222C18.1372 3.83648 18.0623 3.8558 17.9932 3.88907C17.9242 3.92234 17.8624 3.9689 17.8113 4.02609L17.8113 4.02617C17.7812 4.0598 17.758 4.09903 17.7431 4.14161C17.7282 4.18419 17.7219 4.22929 17.7244 4.27433C17.7269 4.31937 17.7383 4.36347 17.7579 4.40412C17.7774 4.44476 17.8048 4.48115 17.8385 4.51121L17.8386 4.51129C17.9608 4.62072 18.0345 4.77422 18.0435 4.93801C18.0526 5.1018 17.9962 5.26248 17.8868 5.38469C17.7773 5.5069 17.6238 5.58063 17.46 5.58966ZM17.3123 5.6831C17.1423 5.62353 16.9858 5.53106 16.8516 5.41099L18.7097 3.89719C18.8072 3.98434 18.8866 4.08986 18.9433 4.20771C19 4.32556 19.0329 4.45343 19.0402 4.58401C19.0474 4.71459 19.0289 4.84532 18.9856 4.96873C18.9423 5.09214 18.8751 5.20581 18.7879 5.30324C18.6678 5.43746 18.5225 5.54672 18.3602 5.62478C18.1979 5.70284 18.0218 5.74816 17.842 5.75817C17.6622 5.76818 17.4822 5.74267 17.3123 5.6831Z" fill="white" stroke="white" stroke-width="0.222945"/>
<path d="M18.2109 10.9105C18.1659 10.9107 18.1209 10.9061 18.0768 10.8967L18.0768 10.8967L18.0759 10.8965C17.916 10.8611 17.7767 10.7636 17.6887 10.6255C17.6006 10.4874 17.571 10.32 17.6063 10.1601L17.6063 10.1601L17.6071 10.1568C17.6769 9.88086 17.7701 9.61139 17.8856 9.35128C17.9502 9.20088 18.0718 9.08221 18.2237 9.02133C18.3759 8.96034 18.5461 8.96231 18.6968 9.0268C18.8475 9.09128 18.9665 9.21301 19.0274 9.36519C19.0884 9.51737 19.0865 9.68755 19.022 9.83828L19.022 9.83828L19.0213 9.83982C18.9364 10.0303 18.8666 10.2272 18.8127 10.4286C18.7819 10.5649 18.706 10.6867 18.5971 10.7742C18.4876 10.8622 18.3514 10.9103 18.2109 10.9105ZM18.2109 10.9105C18.211 10.9105 18.2111 10.9105 18.2112 10.9105L18.2106 10.799L18.2107 10.9105C18.2108 10.9105 18.2109 10.9105 18.2109 10.9105Z" fill="white" stroke="white" stroke-width="0.222945"/>
<path d="M23.301 15.8699L23.2011 15.8205C23.3215 15.5768 23.3948 15.3125 23.4172 15.0416C23.4195 14.8801 23.485 14.7258 23.5997 14.6118C23.7154 14.4969 23.8718 14.4323 24.0349 14.4322H24.035H24.0383V14.4322L24.039 14.4322C24.1201 14.4327 24.2003 14.4492 24.2751 14.4807C24.3499 14.5122 24.4177 14.5582 24.4747 14.6159C24.5317 14.6737 24.5768 14.7421 24.6073 14.8172C24.6379 14.8924 24.6534 14.9728 24.6528 15.054L24.653 15.054L24.6527 15.0594C24.6274 15.517 24.509 15.9645 24.305 16.3749L24.3048 16.3751C24.2535 16.4776 24.1746 16.5637 24.0771 16.6239C23.9795 16.6841 23.8672 16.7159 23.7526 16.7158L23.7523 16.7158C23.647 16.7154 23.5435 16.6882 23.4516 16.6366C23.3598 16.5851 23.2826 16.5109 23.2274 16.4212C23.1723 16.3315 23.1409 16.2292 23.1363 16.124C23.1318 16.0187 23.1542 15.9141 23.2013 15.8199L23.301 15.8699ZM23.301 15.8699C23.4283 15.6124 23.5055 15.3331 23.5287 15.0468L23.7527 16.6043C23.6663 16.604 23.5815 16.5817 23.5062 16.5394C23.4309 16.4972 23.3676 16.4364 23.3224 16.3628C23.2772 16.2893 23.2515 16.2054 23.2477 16.1191C23.244 16.0329 23.2623 15.9471 23.301 15.8699ZM24.0383 14.5436C24.1048 14.5441 24.1705 14.5576 24.2318 14.5834C24.2931 14.6093 24.3486 14.6469 24.3954 14.6942C24.4421 14.7416 24.479 14.7976 24.5041 14.8592C24.5291 14.9208 24.5418 14.9867 24.5414 15.0532C24.5169 15.4957 24.4025 15.9285 24.2052 16.3252L24.0383 14.5436ZM24.0383 14.5436H24.035H24.0383Z" fill="white" stroke="white" stroke-width="0.222945"/>
<path d="M13.079 16.5566L13.0787 16.5566C12.9597 16.5564 12.8432 16.5218 12.7433 16.457C12.6435 16.3922 12.5644 16.3 12.5158 16.1913L12.5158 16.1913L12.5151 16.1899C12.3534 15.8147 12.2546 15.4154 12.2228 15.008L12.2228 15.008L12.2227 15.0065C12.2175 14.9256 12.2282 14.8444 12.2544 14.7676C12.2806 14.6908 12.3216 14.6199 12.3752 14.559C12.4288 14.4981 12.4938 14.4483 12.5667 14.4125C12.6393 14.3769 12.7182 14.3558 12.7989 14.3506C12.88 14.3445 12.9615 14.3547 13.0386 14.3805C13.116 14.4063 13.1874 14.4474 13.2486 14.5013C13.3099 14.5551 13.3597 14.6207 13.3953 14.6941C13.4305 14.7669 13.451 14.846 13.4554 14.9267C13.4781 15.1872 13.5409 15.4427 13.6417 15.684C13.684 15.7777 13.7022 15.8804 13.6948 15.9829C13.6874 16.086 13.6542 16.1856 13.5983 16.2726C13.5424 16.3596 13.4656 16.4311 13.3748 16.4808C13.2841 16.5304 13.1824 16.5564 13.079 16.5566ZM13.5836 15.9749C13.5898 15.8903 13.5746 15.8056 13.5395 15.7285L12.8067 14.4618C12.7403 14.466 12.6755 14.4833 12.6158 14.5126C12.5561 14.5419 12.5028 14.5827 12.4589 14.6326C12.415 14.6825 12.3814 14.7406 12.3599 14.8035C12.3385 14.8665 12.3297 14.933 12.3339 14.9993C12.3648 15.3945 12.4606 15.7818 12.6175 16.1457C12.6574 16.2348 12.7222 16.3104 12.804 16.3635C12.8859 16.4166 12.9813 16.445 13.0789 16.4451C13.1636 16.445 13.247 16.4236 13.3214 16.383C13.3957 16.3423 13.4587 16.2836 13.5045 16.2123C13.5503 16.141 13.5775 16.0594 13.5836 15.9749Z" fill="white" stroke="white" stroke-width="0.222945"/>
</svg>
