<svg width="44" height="43" viewBox="0 0 44 43" fill="none" xmlns="http://www.w3.org/2000/svg">
<path d="M41.5829 17.4098L41.5829 17.4098C42.0385 17.6243 42.4309 17.953 42.7222 18.3638C43.0134 18.7747 43.1935 19.2538 43.245 19.7548L43.245 19.7554C43.2789 20.1053 43.2501 20.4585 43.1599 20.7983L43.1598 20.7985L40.6286 30.2569L40.532 30.231L40.6286 30.2569C40.4644 30.8701 40.1417 31.4293 39.6929 31.8782L34.4307 37.141L34.4307 37.1411C34.1134 37.4582 33.8617 37.8348 33.69 38.2493C33.5183 38.6637 33.4299 39.108 33.4299 39.5566V42.7305V42.8305H33.3299H31.9236H31.8236V42.7305V39.5559C31.8237 38.2242 32.3527 36.9471 33.2943 36.0054L33.2943 36.0054L38.5593 30.7432C38.5593 30.7432 38.5593 30.7432 38.5593 30.7432C38.8085 30.4939 38.9878 30.1835 39.0791 29.8431C39.0791 29.8431 39.0791 29.8431 39.0791 29.843L41.6103 20.382L41.5829 17.4098ZM41.5829 17.4098L41.5815 17.4092C41.1869 17.2304 40.7576 17.141 40.3244 17.1475C39.8912 17.1539 39.4647 17.2561 39.0756 17.4466C38.6864 17.6371 38.3442 17.9112 38.0734 18.2494C37.8029 18.5872 37.6103 18.9806 37.5093 19.4015L35.9494 25.2136M41.5829 17.4098L35.9494 25.2136M35.9494 25.2136C35.5048 24.9486 34.997 24.806 34.4779 24.8016C33.9127 24.7968 33.3582 24.9561 32.8816 25.26L32.8808 25.2605C32.8198 25.3003 31.1858 26.3436 29.5659 27.3778L27.347 28.7944L26.6185 29.2596L26.4146 29.3898L26.3609 29.4241L26.347 29.433L26.3433 29.4354L26.3425 29.436C25.2191 30.1387 24.2936 31.1163 23.6532 32.2763C23.0128 33.4366 22.6788 34.7411 22.683 36.0664M35.9494 25.2136L41.6103 20.3818C41.6398 20.2711 41.6542 20.1568 41.6533 20.0422L41.6533 20.042C41.6514 19.7433 41.5477 19.4542 41.3591 19.2226C41.1711 18.9916 40.9102 18.8315 40.6191 18.7686C40.276 18.7149 39.9253 18.7925 39.6368 18.9859C39.3475 19.1798 39.1422 19.4759 39.062 19.8148L39.0613 19.8177L39.0613 19.8177L37.2006 26.748C37.3851 27.2585 37.4212 27.8112 37.3045 28.3418C37.1855 28.883 36.9125 29.3782 36.5186 29.7678L36.5131 29.7731L36.5129 29.7729L36.4201 29.8517L36.4132 29.8576L36.4129 29.8572L32.2574 32.7773C32.0832 32.8998 31.8675 32.948 31.6577 32.9114C31.4479 32.8748 31.2612 32.7564 31.1387 32.5822L31.1385 32.5819C31.0166 32.4074 30.9689 32.1917 31.0059 31.9821C31.043 31.7724 31.1617 31.5861 31.3361 31.464M22.683 36.0664V36.0663H22.783L22.683 36.0666C22.683 36.0665 22.683 36.0665 22.683 36.0664ZM22.683 36.0664V42.7305V42.8305H22.783H24.1892H24.2892V42.7305L24.2892 36.0663L24.2892 36.066C24.2862 35.0115 24.5524 33.9736 25.0625 33.0507C25.5727 32.1278 26.3099 31.3503 27.2045 30.7919L27.2053 30.7913L27.1515 30.7071M27.1515 30.7071L27.2054 30.7913L27.2056 30.7912L27.2065 30.7906L27.21 30.7884L27.2238 30.7796L27.2775 30.7452L27.4816 30.6149L28.2111 30.149L30.4329 28.73C32.051 27.6965 33.6853 26.6525 33.7524 26.609M27.1515 30.7071C27.1515 30.7071 33.576 26.6043 33.6983 26.5249M27.1515 30.7071C26.2425 31.2745 25.4934 32.0645 24.975 33.0023C24.4566 33.9401 24.1862 34.9947 24.1892 36.0663V42.6305V42.7305H24.0892H22.883H22.783V42.6305L33.6983 26.5249M33.7524 26.609C34.0041 26.4484 34.3029 26.3783 34.5997 26.4103C34.8966 26.4422 35.1737 26.5743 35.3854 26.7847M33.7524 26.609C33.7523 26.609 33.7522 26.6091 33.7521 26.6092L33.6983 26.5249M33.7524 26.609C33.7525 26.6089 33.7527 26.6088 33.7528 26.6087L33.6983 26.5249M35.3854 26.7847C35.6241 27.0235 35.7611 27.3453 35.7677 27.6828C35.7742 28.0169 35.6524 28.3406 35.4277 28.5875M35.3854 26.7847L35.4561 26.714M35.3854 26.7847C35.3855 26.7848 35.3855 26.7849 35.3856 26.7849L35.4561 26.714M35.4277 28.5875L31.3361 31.464M35.4277 28.5875L35.4366 28.5813L35.4941 28.6631M35.4277 28.5875C35.4254 28.5901 35.423 28.5926 35.4207 28.5952L35.4941 28.6631M31.3361 31.464L31.3935 31.5459M31.3361 31.464L31.336 31.4641L31.3935 31.5459M31.3935 31.5459L35.4941 28.6631M31.3935 31.5459C31.2408 31.6528 31.1368 31.8159 31.1044 31.9995C31.072 32.183 31.1137 32.3719 31.2205 32.5246C31.3277 32.6772 31.4912 32.7808 31.6748 32.8129C31.8585 32.8449 32.0474 32.8027 32.2 32.6955L36.3554 29.7754L36.4482 29.6967L35.4941 28.6631M35.4941 28.6631C35.7408 28.3963 35.8747 28.0443 35.8676 27.6809C35.8606 27.3175 35.7131 26.971 35.4561 26.714M35.4941 28.6631L35.4561 26.714M35.4561 26.714C35.2282 26.4874 34.9299 26.3452 34.6104 26.3108C34.2909 26.2765 33.9692 26.3519 33.6983 26.5249M35.4561 26.714L33.6983 26.5249" fill="white" stroke="white" stroke-width="0.2"/>
<path d="M2.45498 20.4056C2.42367 20.2865 2.4083 20.1638 2.40928 20.0407M2.45498 20.4056L4.98623 29.869M2.45498 20.4056L2.55169 20.3802M2.45498 20.4056L8.21035 25.215M2.40928 20.0407L12.2362 42.7305V42.6305V39.5566C12.2361 38.9102 12.1087 38.2701 11.8613 37.6729C11.6139 37.0758 11.2512 36.5332 10.794 36.0761L5.53186 30.814M2.40928 20.0407C2.4112 19.7191 2.52296 19.4078 2.72603 19.1584C2.92911 18.9091 3.2113 18.7366 3.52584 18.6696L2.40928 20.0407ZM4.98623 29.869C5.08207 30.2264 5.27024 30.5523 5.53186 30.814M4.98623 29.869L5.08282 29.8431M4.98623 29.869L5.08284 29.8431M5.53186 30.814L5.60257 30.7432M5.53186 30.814L5.60258 30.7433L10.8647 36.0054C11.3312 36.4717 11.7012 37.0253 11.9537 37.6347C12.2061 38.244 12.3361 38.8971 12.3362 39.5566V42.7305V42.8305H12.2362H10.8299H10.7299V42.7305V39.556M5.60257 30.7432L1.99654 17.8968M5.60257 30.7432C5.35338 30.494 5.17414 30.1835 5.08284 29.8431M5.60257 30.7432L5.08282 29.8431M10.7299 39.556L10.8299 39.5559H10.7299V39.556ZM10.7299 39.556C10.7292 38.6502 10.3687 37.7818 9.72776 37.1418L9.72771 37.1418L4.46482 31.8789L4.4648 31.8789C4.01588 31.4298 3.69315 30.8703 3.52908 30.2569M3.52908 30.2569L3.52908 30.2569L3.62569 30.2311L3.52908 30.2569ZM3.52908 30.2569L0.997834 20.7971L0.997626 20.7963L0.997629 20.7963C0.847256 20.2157 0.871019 19.6037 1.06596 19.0365L1.06622 19.0357L1.06623 19.0357C1.23523 18.5567 1.53582 18.1351 1.93352 17.8192M1.93352 17.8192C1.93324 17.8194 1.93295 17.8197 1.93267 17.8199L1.99654 17.8968M1.93352 17.8192C1.9338 17.819 1.93409 17.8187 1.93438 17.8185L1.99654 17.8968M1.93352 17.8192C2.31688 17.5012 2.77508 17.2863 3.26473 17.1949C3.75474 17.1035 4.25998 17.1387 4.73254 17.2973C5.2051 17.456 5.6293 17.7327 5.9649 18.1012C6.30015 18.4694 6.53588 18.917 6.64979 19.4018M1.99654 17.8968C2.36697 17.5893 2.80982 17.3816 3.28308 17.2932C3.75634 17.2049 4.24431 17.239 4.70072 17.3921C5.15713 17.5453 5.56683 17.8126 5.89096 18.1686C6.2151 18.5245 6.44291 18.9574 6.55279 19.4261M6.64979 19.4018L6.64937 19.4002L6.55279 19.4261M6.64979 19.4018L8.21035 25.215M6.64979 19.4018C6.64991 19.4023 6.65003 19.4028 6.65016 19.4033L6.55279 19.4261M6.55279 19.4261L8.21035 25.215M8.21035 25.215C8.62331 24.9686 9.09134 24.8275 9.5731 24.8052C10.1008 24.7807 10.6254 24.8996 11.0909 25.1493L11.0913 25.1495C11.1837 25.1996 12.3791 25.9605 13.7887 26.8606C15.2016 27.7629 16.8378 28.8103 17.819 29.4385C18.9418 30.1412 19.8669 31.1185 20.507 32.2782C21.1471 33.438 21.4809 34.7419 21.4768 36.0666V42.7305V42.8305H21.3768H19.9705H19.8705V42.7305V36.0663V36.066C19.8737 35.0121 19.608 33.9748 19.0985 33.0523C18.589 32.1298 17.8525 31.3525 16.9588 30.794L16.9579 30.7934C14.4077 29.1609 10.55 26.6946 10.31 26.5517C10.0632 26.4221 9.78157 26.3746 9.50592 26.4161C9.22949 26.4577 8.97362 26.5866 8.77573 26.7841C8.53718 27.0229 8.40033 27.3448 8.39388 27.6823C8.38749 28.0163 8.50935 28.34 8.73414 28.5868L12.8259 31.4634L12.8259 31.4634C13.0002 31.5859 13.1186 31.7726 13.1552 31.9824C13.1918 32.1922 13.1435 32.4079 13.0211 32.5822L13.0208 32.5826C12.8978 32.7554 12.7115 32.8726 12.5026 32.9085C12.2936 32.9445 12.0788 32.8963 11.9052 32.7746L11.905 32.7744L7.65671 29.777L7.64994 29.7722L7.64406 29.7664C7.25007 29.3769 6.9771 28.8819 6.85806 28.3408C6.74133 27.8103 6.77748 27.2577 6.96197 26.7473L5.10059 19.817L5.0999 19.8144L5.09993 19.8144C5.01875 19.4763 4.8134 19.181 4.52462 18.9872C4.23664 18.794 3.88669 18.7158 3.54391 18.768C3.25278 18.8307 2.99166 18.9906 2.80357 19.2216C2.6149 19.4533 2.51106 19.7425 2.50928 20.0413L2.50928 20.0415C2.50837 20.1557 2.52261 20.2695 2.55164 20.3799C2.55166 20.38 2.55168 20.3801 2.55169 20.3802M2.55169 20.3802L5.08282 29.8431M2.55169 20.3802L5.08282 29.8431M5.08282 29.8431C5.08283 29.8431 5.08283 29.8431 5.08284 29.8431M5.08282 29.8431L5.08284 29.8431" fill="white" stroke="white" stroke-width="0.2"/>
<path d="M8.97633 16.6993L8.97636 16.6993C7.67872 15.4086 6.79359 13.7616 6.43321 11.9672C6.07282 10.1728 6.25342 8.31181 6.95209 6.62018C7.65076 4.92855 8.83604 3.4825 10.3576 2.46538C11.8792 1.44828 13.6685 0.905916 15.4988 0.907071C15.4988 0.907071 15.4988 0.907071 15.4988 0.907071M8.97633 16.6993L21.9584 4.39121C20.4115 2.84434 18.0413 1.00707 15.4988 1.00707L15.4988 0.907071M8.97633 16.6993L8.97824 16.7011L22.0114 29.003L22.0801 29.0678L22.1487 29.0029L35.205 16.6575L35.2051 16.6575L35.2072 16.6554C36.0634 15.7953 36.7416 14.7748 37.2032 13.6524C37.6647 12.53 37.9004 11.3276 37.8969 10.114C37.8934 8.90042 37.6508 7.69942 37.1828 6.57969C36.7148 5.46007 36.0308 4.44366 35.1698 3.58856C34.3146 2.73298 33.2986 2.05498 32.1804 1.59357C31.0621 1.13219 29.8637 0.896487 28.6541 0.90004M8.97633 16.6993L22.0695 4.36088M15.4988 0.907071C18.0847 0.907102 20.4803 2.77172 22.0291 4.3205L22.0695 4.36088M15.4988 0.907071L22.0695 4.36088M22.0695 4.36088L22.0999 4.33049C23.648 2.776 26.052 0.900112 28.6541 0.90004M28.6541 0.90004C28.6541 0.90004 28.6542 0.90004 28.6542 0.90004V1.00004L28.6539 0.90004C28.654 0.90004 28.654 0.90004 28.6541 0.90004ZM22.0799 26.8619L34.0854 15.5067L34.1135 15.4801C35.1557 14.4139 35.8631 13.0657 36.148 11.6016C36.4357 10.123 36.2795 8.59223 35.6992 7.20213C35.1188 5.81203 34.1401 4.6247 32.8864 3.78961C31.6327 2.95451 30.1599 2.50898 28.6535 2.5091C27.0761 2.5091 25.15 3.54675 23.2401 5.465C23.2401 5.46504 23.2401 5.46508 23.24 5.46513L22.1511 6.56735L22.0806 6.63877L22.0095 6.56794L20.8936 5.457L20.8934 5.45684C20.2188 4.78225 19.374 4.04489 18.4438 3.47671C17.5128 2.90805 16.5037 2.51333 15.4988 2.51332L22.0799 26.8619ZM22.0799 26.8619L10.096 15.5484C9.02925 14.4802 8.30295 13.1198 8.00887 11.639C7.7147 10.1578 7.86624 8.62256 8.44434 7.22741C9.02244 5.83226 10.0012 4.6398 11.2568 3.80073C12.5124 2.96167 13.9886 2.51366 15.4988 2.51332L22.0799 26.8619Z" fill="white" stroke="white" stroke-width="0.2"/>
<path d="M24.1892 18.9243H24.2892V18.8243V16.1118H27.0017H27.1017V16.0118V11.793V11.693H27.0017H24.2892V8.98051V8.88051H24.1892H19.9705H19.8705V8.98051V11.693H17.158H17.058V11.793V16.0118V16.1118H17.158H19.8705V18.8243V18.9243H19.9705H24.1892ZM21.3767 14.5055H18.6642V13.2993H21.3767H21.4767V13.1993V10.4868H22.683V13.1993V13.2993H22.783H25.4955V14.5055H22.783H22.683V14.6055V17.318H21.4767V14.6055V14.5055H21.3767Z" fill="white" stroke="white" stroke-width="0.2"/>
</svg>
