<svg width="45" height="45" viewBox="0 0 45 45" fill="none" xmlns="http://www.w3.org/2000/svg">
<path d="M14.3757 38.8871C14.3184 38.8871 14.2604 38.881 14.2034 38.8696C14.1481 38.8583 14.0925 38.8415 14.0389 38.8195C13.9864 38.7975 13.9352 38.7704 13.8879 38.7388C13.8395 38.7069 13.7945 38.6702 13.7543 38.6297C13.7138 38.5891 13.6767 38.5445 13.6445 38.4961C13.6129 38.4487 13.5854 38.3976 13.5634 38.344C13.5415 38.2915 13.525 38.2359 13.5133 38.1796C13.502 38.1236 13.4968 38.0656 13.4968 38.0082C13.4968 37.9513 13.502 37.8932 13.5133 37.8359C13.525 37.7806 13.5415 37.7253 13.5634 37.6718C13.5854 37.6189 13.6129 37.5681 13.6445 37.5204C13.6767 37.4723 13.7138 37.4273 13.7543 37.3868C13.7945 37.3467 13.8395 37.3096 13.8879 37.277C13.9352 37.2454 13.9864 37.2183 14.0389 37.1963C14.0925 37.1743 14.1481 37.1575 14.2034 37.1462C14.3177 37.1232 14.4338 37.1232 14.547 37.1462C14.6034 37.1575 14.6586 37.1743 14.7115 37.1963C14.7651 37.2183 14.8159 37.2454 14.8633 37.277C14.9117 37.3096 14.9566 37.3467 14.9971 37.3868C15.0373 37.4273 15.0744 37.4723 15.106 37.5204C15.1376 37.5681 15.165 37.6189 15.187 37.6718C15.209 37.7253 15.2255 37.7806 15.2368 37.8359C15.2485 37.8932 15.2543 37.9513 15.2543 38.0082C15.2543 38.0656 15.2485 38.1236 15.2368 38.1796C15.2255 38.2359 15.209 38.2915 15.187 38.344C15.165 38.3976 15.1376 38.4487 15.106 38.4961C15.0744 38.5445 15.0373 38.5891 14.9971 38.6297C14.9566 38.6702 14.9117 38.7069 14.8633 38.7388C14.8159 38.7704 14.7651 38.7975 14.7115 38.8195C14.6586 38.8415 14.6034 38.8583 14.547 38.8696C14.4907 38.881 14.4327 38.8871 14.3757 38.8871Z" fill="white"/>
<path d="M34.8179 19.7263C34.593 19.7263 34.3685 19.6408 34.1968 19.4695C33.3742 18.6476 32.0356 18.6476 31.2134 19.4695C30.87 19.8125 30.3135 19.8121 29.9705 19.4688C29.6272 19.1251 29.6276 18.5686 29.9712 18.2256C31.4788 16.7198 33.9314 16.7198 35.4393 18.2256C35.7826 18.5686 35.783 19.1251 35.44 19.4684C35.2683 19.6404 35.0431 19.7263 34.8179 19.7263Z" fill="white"/>
<path d="M42.0736 26.5931L41.7873 25.9823C40.6866 23.6343 39.0386 20.1197 38.6242 18.592C38.961 13.8586 37.2787 9.11694 33.9962 5.5608C30.734 2.02663 26.2038 0 21.5669 0C20.6259 0 19.7209 0.0628281 18.8811 0.186081C14.6661 0.783806 10.9703 2.50111 8.19312 5.15224C5.474 7.74845 3.68598 11.1793 3.02268 15.0746C3.02199 15.0801 3.02096 15.0853 3.02027 15.0908C2.49087 18.5992 2.98423 22.5388 4.37365 25.8989C5.94092 29.6895 8.54777 32.4392 11.7211 33.6518C12.1149 33.9066 12.4359 34.2516 12.7009 34.7041C12.9461 35.1229 13.4844 35.2637 13.9033 35.0186C14.3225 34.7731 14.4629 34.2348 14.2177 33.8159C13.7937 33.0919 13.24 32.5178 12.5715 32.1103C12.5234 32.0811 12.473 32.0564 12.4201 32.0368C6.46998 29.8217 3.81026 21.6585 4.75714 15.3613C6.00581 8.04749 11.3774 3.02536 19.1321 1.92604C19.8918 1.81446 20.711 1.75781 21.5669 1.75781C25.7146 1.75781 29.774 3.57845 32.7047 6.75316C35.6898 9.98692 37.2046 14.3049 36.8606 18.6002C36.8534 18.6929 36.8606 18.7866 36.8825 18.8769C37.2753 20.4998 38.9634 24.0999 40.1956 26.7287L40.4813 27.3378C40.5575 27.5008 40.4991 27.6344 40.4576 27.6996C40.4157 27.7652 40.3185 27.8754 40.1366 27.8754H37.4659C36.9804 27.8754 36.5869 28.2692 36.5869 28.7543V31.1892C36.1592 31.2894 35.7122 31.2534 35.2988 31.0814C34.8504 30.8949 34.3361 31.1071 34.15 31.5555C33.9636 32.0035 34.1758 32.5182 34.6242 32.7046C35.1028 32.9037 35.6064 33.0033 36.1097 33.0033C36.269 33.0033 36.4283 32.993 36.5869 32.9731V36.5814C36.5869 37.3703 35.9439 38.012 35.1536 38.012H28.3664C28.0846 38.012 27.8199 38.1473 27.6544 38.3756L24.1302 43.2422H14.7417C14.8065 42.9339 14.8769 42.5727 14.9442 42.1714C15.0246 41.6928 14.7018 41.2396 14.2232 41.1592C13.7436 41.0786 13.2911 41.4016 13.2108 41.8802C13.013 43.0578 12.7861 43.8763 12.784 43.8839C12.7099 44.1489 12.7638 44.4332 12.9299 44.6522C13.0961 44.8713 13.3553 45 13.6303 45H24.5789C24.8608 45 25.1255 44.8647 25.2909 44.6364L28.8151 39.7695H35.1536C36.9134 39.7695 38.3451 38.3392 38.3451 36.581V29.6332H40.1366C40.872 29.6332 41.5462 29.2631 41.9407 28.6431C42.3345 28.0241 42.3843 27.2578 42.0736 26.5931Z" fill="white"/>
<path d="M29.399 16.0675L28.0982 13.3642C28.4264 12.2518 28.4865 11.0697 28.2698 9.92202C27.5179 5.93707 23.6607 3.30619 19.6716 4.05738C17.7394 4.42096 16.0644 5.51479 14.9558 7.13699C13.899 8.68263 13.4767 10.5318 13.7545 12.3723C11.5507 13.0724 9.82996 14.7835 9.07088 17.0755C8.70352 18.1844 8.60602 19.3641 8.78386 20.5101L7.13522 23.017C6.96253 23.2793 6.94296 23.6141 7.08407 23.8946C7.22517 24.1751 7.50532 24.3591 7.81878 24.3773L10.8174 24.55C11.6324 25.376 12.639 26.0012 13.7486 26.3679C14.5136 26.6206 15.2902 26.7404 16.0547 26.7404C19.1436 26.74 22.0279 24.781 23.0499 21.6952C23.4245 20.564 23.5165 19.4163 23.3256 18.274C24.1276 18.0121 24.8795 17.6145 25.5456 17.0985L28.5407 17.3247C28.8528 17.3488 29.1559 17.2032 29.3331 16.944C29.5102 16.6844 29.5353 16.3504 29.399 16.0675ZM21.3811 21.1425C20.4108 24.0728 17.2344 25.6682 14.3004 24.699C13.3641 24.3896 12.5254 23.8396 11.8748 23.1087C11.7196 22.9343 11.5016 22.8289 11.2688 22.8155L9.44063 22.7101L10.4452 21.1827C10.5739 20.9873 10.6193 20.749 10.5712 20.5204C10.3717 19.5632 10.4301 18.5628 10.7394 17.6282C11.31 15.9051 12.5865 14.6142 14.2207 14.0697C15.3458 16.8194 18.0519 18.6397 21.0322 18.6397C21.2211 18.6397 21.4109 18.6325 21.6015 18.6177C21.7354 19.4619 21.6622 20.2938 21.3811 21.1425ZM25.3286 15.3194C25.0961 15.3019 24.8658 15.3774 24.689 15.5295C23.947 16.1681 23.0427 16.6017 22.0735 16.7844C19.0375 17.356 16.1004 15.3541 15.5281 12.3212C15.251 10.8521 15.5631 9.36344 16.407 8.12885C17.2509 6.89426 18.526 6.0617 19.9971 5.78464C20.3466 5.71906 20.6944 5.68714 21.0377 5.68714C23.6782 5.68714 26.0362 7.56408 26.5426 10.2478C26.7252 11.2153 26.65 12.2144 26.3249 13.1366C26.2473 13.357 26.2607 13.5994 26.362 13.8098L27.1547 15.4574L25.3286 15.3194Z" fill="white"/>
</svg>
