<svg width="45" height="45" viewBox="0 0 45 45" fill="none" xmlns="http://www.w3.org/2000/svg">
<path d="M22.5008 45C10.0943 45 0.000976562 34.9066 0.000976562 22.4998C0.000976563 10.0934 10.0943 0 22.5008 0C34.9072 0 45.0006 10.0934 45.0006 22.4998C45.0006 34.9066 34.9072 45 22.5008 45ZM22.5008 2.21914C11.3182 2.21914 2.22011 11.3172 2.22011 22.4998C2.22011 33.6828 11.3182 42.7809 22.5008 42.7809C33.6834 42.7809 42.7815 33.6828 42.7815 22.4998C42.7815 11.3172 33.6838 2.21914 22.5008 2.21914Z" fill="white"/>
<path d="M25.3063 28.1852L25.2933 28.1982L25.2808 28.1852L22.5002 30.9658L19.72 28.1852L19.7067 28.1982L19.6941 28.1852L15.3461 32.5333L16.9157 34.1022L19.707 31.3105L22.4987 34.1022L22.5002 34.1007L22.502 34.1022L25.2937 31.3105L28.0854 34.1022L29.6543 32.5329L25.3063 28.1852Z" fill="white"/>
<path d="M8.05503 26.8552L6.97986 24.9142L11.3386 22.5002L6.97986 20.0861L8.05503 18.1448L15.9189 22.5002L8.05503 26.8552Z" fill="white"/>
<path d="M36.9452 26.8552L29.0809 22.5002L36.9452 18.1448L38.02 20.0861L33.6616 22.5002L38.02 24.9142L36.9452 26.8552Z" fill="white"/>
</svg>
