<svg width="47" height="47" viewBox="0 0 47 47" fill="none" xmlns="http://www.w3.org/2000/svg">
<path d="M6.35844 36.6206C9.08234 42.3075 17.0381 46.1003 26.1248 46.1003C35.731 46.1003 42.9906 42.6624 46.0101 36.6332L45.9207 36.5884L46.0101 36.6332C46.1575 36.3387 46.1218 35.9855 45.9179 35.7267C45.714 35.468 45.3791 35.3506 45.0582 35.4248C43.305 35.83 42.0515 35.5508 41.1763 35.0705C40.2992 34.5893 39.7925 33.9011 39.5439 33.4737C38.9067 32.33 38.58 31.0394 38.5972 29.7302V29.7289V23.4611L43.4421 18.6166L43.4421 18.6165C44.6487 17.4078 45.0091 15.5909 44.3545 14.0134C43.6998 12.4356 42.1596 11.4072 40.4513 11.4079L40.451 11.4079C39.4732 11.4116 38.5297 11.7574 37.782 12.3822C35.6383 5.69193 29.4899 1.0842 22.4555 0.914485C15.4037 0.744359 9.02715 5.07176 6.5763 11.6783C4.73978 10.9995 2.6705 11.6754 1.5913 13.32C0.493287 14.9928 0.722883 17.2075 2.14048 18.6198L5.40453 21.8859L5.40453 32.5034L5.40453 32.5038C5.41077 33.9302 5.73684 35.3372 6.35844 36.6206ZM6.35844 36.6206C6.35839 36.6205 6.35833 36.6204 6.35827 36.6203L6.44846 36.5771L6.35846 36.6207C6.35846 36.6206 6.35845 36.6206 6.35844 36.6206ZM31.8976 18.2136L31.8964 18.2148C31.5742 18.5483 31.579 19.0782 31.9069 19.4061C32.2348 19.734 32.7647 19.7383 33.0981 19.4162L33.0993 19.415L38.6651 13.8492C38.6654 13.8489 38.6657 13.8486 38.666 13.8483C39.6661 12.8957 41.2379 12.8956 42.2381 13.8483C43.2211 14.8353 43.2208 16.4314 42.2372 17.4181L37.1517 22.5056L36.6718 22.9855L36.6718 22.9855C36.4698 23.1879 36.3835 23.4785 36.4414 23.7585L36.4415 23.7586C36.4951 24.016 36.664 24.2326 36.8976 24.3479L36.8976 29.7278C36.8976 29.7279 36.8976 29.728 36.8976 29.7281C36.8793 31.3365 37.2835 32.9212 38.0695 34.3241L38.0705 34.3259C39.2238 36.287 41.3704 37.4358 43.6309 37.3187C40.5233 41.8323 34.2708 44.4006 26.1248 44.4006C21.953 44.4006 17.9911 43.5223 14.773 42.0175C11.5536 40.512 9.08693 38.3837 7.89138 35.8892L7.89118 35.8888C7.37908 34.8331 7.10997 33.6764 7.10418 32.5031V17.8597V17.8597C7.10316 16.2494 7.35755 14.6494 7.85781 13.119L7.85782 13.119L7.85826 13.1176C9.76176 6.99075 15.3633 2.76221 21.7771 2.60999H22.012C28.7767 2.60965 34.6859 7.17491 36.3969 13.7143L31.8976 18.2136ZM5.40453 17.8597V19.4791L3.34591 17.4163L3.34572 17.4161C2.87164 16.9437 2.60522 16.3019 2.60522 15.6327C2.60522 14.9638 2.87146 14.3222 3.34521 13.8498C4.06235 13.1555 5.11453 12.9406 6.04326 13.2919C5.62289 14.7782 5.40792 16.3149 5.40453 17.8595V17.8597Z" fill="white" stroke="white" stroke-width="0.2"/>
</svg>
