<svg width="43" height="44" viewBox="0 0 43 44" fill="none" xmlns="http://www.w3.org/2000/svg">
<mask id="path-1-outside-1" maskUnits="userSpaceOnUse" x="0.296509" y="0.509872" width="43" height="45" fill="black">
<rect fill="white" x="0.296509" y="0.509872" width="43" height="45"/>
<path d="M41.6478 43.7C40.5739 42.25 39.6535 40.8 38.8864 39.25C36.3296 34.1 36.1251 29.5 35.9205 25.8C35.8694 24.4 35.8182 23.25 35.6137 22.2C35.1535 19.35 33.6705 17.75 31.1137 17.4C31.0626 17.4 29.1194 17.05 28.4546 16.4L28.4035 16.35C27.3807 15.35 26.5626 14.5 26.9205 10.95C27.0739 9.39999 26.6648 7.69999 25.7955 6.29999C25.0285 5.09999 23.5967 3.49999 20.8353 2.99999C19.4546 2.74999 18.0739 2.84999 16.8467 3.34999C15.8239 2.39999 14.0342 1.69999 12.1932 1.54999C9.94325 1.34999 7.89779 1.89999 6.3637 3.14999C4.42052 4.74999 3.44893 6.74999 3.44893 9.14999C3.44893 11.1 4.1137 12.8 4.52279 13.65C2.63075 13.75 1.91484 14.6 1.45461 15.85C0.89211 17.35 1.91484 18.5 3.19325 19.35C1.09666 22.2 1.65916 24.05 3.14211 26.1C3.03984 27.8 3.24438 30.5 4.62506 34C5.64779 36.7 6.10802 38.3 6.26143 39.15C6.46597 40.1 6.41484 40.45 6.41484 40.45C6.41484 40.55 6.46597 40.65 6.56825 40.7H6.61938C6.72165 40.7 6.77279 40.65 6.82393 40.55C6.82393 40.5 7.07961 39.2 5.03416 33.85C3.85802 30.8 3.60234 28.3 3.60234 26.65C3.70461 26.8 3.85802 26.95 3.96029 27.1C4.77847 28.05 5.28984 28.4 6.05688 29C6.56825 29.4 6.97734 29.65 7.33529 29.65C7.4887 29.65 7.64211 29.6 7.79552 29.5C7.89779 29.4 7.89779 29.3 7.89779 29.25C7.89779 29.05 7.69325 28.9 7.38643 28.65C7.23302 28.55 7.07961 28.4 6.87506 28.25C6.51711 27.95 6.21029 27.6 5.90347 27.3C6.26143 27.65 6.77279 28 7.28416 28.35C7.74438 28.7 8.20461 28.95 8.6137 29.15C9.32961 30 10.0455 30.85 10.7614 31.8C12.7557 34.4 15.0569 37.3 18.0739 39.35C19.3523 40.2 40.216 43.9 41.0853 44.05C41.0853 44.05 41.0853 44.05 41.1364 44.05C41.1876 44.05 41.2898 44 41.2898 43.95C41.341 44 41.3921 44.05 41.4432 44.05C41.4944 44.05 41.5455 44.05 41.5455 44C41.6989 43.9 41.6989 43.75 41.6478 43.7ZM20.8353 3.39999C23.4432 3.89999 24.8239 5.39999 25.5398 6.54999C26.358 7.84999 26.716 9.49999 26.6137 10.95C26.2557 14.7 27.1251 15.55 28.1989 16.65L28.2501 16.7C28.608 17.05 29.2217 17.3 29.8353 17.5C29.1705 17.65 28.4035 17.85 27.6364 18.1C26.5626 18.45 25.4887 18.8 24.5171 18.85C22.8807 18.95 19.5057 18.8 18.2785 18.65C18.0228 18.6 17.7671 18.65 17.6137 18.75C17.3069 18.85 17.0512 18.95 16.591 18.7C16.233 18.5 16.233 17.85 16.233 17.15C16.233 16.4 16.233 15.6 15.8239 15C15.466 14.45 15.0057 14 14.5967 13.6C13.9319 12.95 13.2671 12.4 13.1137 11.3C12.7557 8.99999 13.6251 6.54999 15.3126 4.99999C16.7444 3.54999 18.7387 2.99999 20.8353 3.39999ZM15.5682 17.95L15.466 17.9C15.2614 17.8 14.6989 17.15 14.1876 15.7C14.4432 15.85 14.6478 15.95 14.8012 15.95C14.9546 15.95 15.1592 15.9 15.1592 15.85C15.1592 15.8 14.9546 15.65 14.8523 15.6C14.4944 15.45 14.5967 15.6 13.983 15.05C13.983 15.05 13.983 15.05 13.9319 15C13.8807 14.75 13.8296 14.6 13.7273 14.2C13.6251 13.85 13.5739 13.45 13.4717 13.1C13.6762 13.35 13.9319 13.55 14.1364 13.75C14.5455 14.15 15.0057 14.55 15.3126 15.05C15.6194 15.55 15.6194 16.3 15.6194 17C15.6194 17.35 15.6194 17.65 15.6705 17.95H15.5682ZM6.72166 3.44999C9.7387 0.949992 14.4944 1.84999 16.5398 3.54999C15.9773 3.84999 15.4148 4.19999 14.9035 4.64999C13.1137 6.29999 12.2444 8.84999 12.6023 11.3C12.6535 11.55 12.7046 11.8 12.8069 12C13.0114 12.6 13.216 13.55 13.4205 14.35C13.5228 14.9 13.6251 15.35 13.7273 15.65C14.0342 16.55 14.341 17.2 14.5967 17.6L13.8807 17.3C13.216 17.05 12.3467 16.65 11.4262 16.25C8.97165 15.15 6.26143 13.95 5.08529 13.75C4.72734 13 3.96029 11.3 3.96029 9.19999C3.96029 6.84999 4.88075 4.94999 6.72166 3.44999ZM1.91484 16C2.37506 14.8 2.93756 14.1 4.77847 14.05C5.59666 14.05 8.86938 15.5 11.2217 16.55C12.1421 16.95 13.0626 17.35 13.6762 17.65L15.2614 18.3C15.3126 18.35 15.3637 18.35 15.4148 18.35L15.8239 18.5H15.8751C15.9773 18.7 16.0796 18.9 16.2842 19C16.8978 19.3 17.3069 19.2 17.6137 19.1C17.8182 19.05 17.9205 19 18.1251 19.05C19.3523 19.2 22.7273 19.3 24.4148 19.25C25.3864 19.2 26.5626 18.85 27.6364 18.5C28.9148 18.1 30.1421 17.7 31.0114 17.8C33.3637 18.1 34.7444 19.6 35.1535 22.25C35.3069 23.25 35.358 24.45 35.4092 25.8C35.5626 29.55 35.8182 34.15 38.3239 39.3C33.9262 37.85 23.8523 34.35 22.983 33.6C21.1932 32.05 19.5057 29.65 17.9205 27.3C17.3069 26.4 16.6932 25.5 16.1307 24.7C18.5853 25.4 21.2955 26.05 24.1592 26.45C24.1592 26.45 24.1592 26.45 24.2103 26.45C24.3126 26.45 24.4148 26.4 24.4148 26.3C24.4148 26.2 24.3637 26.1 24.2614 26.1C21.1421 25.65 18.2785 24.95 15.7217 24.2C10.5569 22.65 6.67052 20.85 4.88075 19.9C2.37506 18.55 1.40347 17.35 1.91484 16ZM7.53984 27.95C6.87506 27.55 6.3637 27.1 5.95461 26.75C5.44325 26.3 5.13643 26.05 4.88075 26.1C4.77847 26.15 4.72734 26.25 4.72734 26.35C4.77847 26.6 5.75006 27.75 6.61938 28.5C6.82393 28.65 6.97734 28.8 7.13075 28.9C7.28415 29 7.43756 29.15 7.4887 29.2C7.38643 29.25 7.13075 29.3 6.31256 28.7C5.49438 28.1 5.03416 27.75 4.26711 26.85C4.01143 26.55 3.80688 26.25 3.60234 26C2.17052 24 1.60802 22.3 3.60234 19.6C3.96029 19.85 4.36938 20.05 4.77847 20.25C5.44325 20.6 6.3637 21.05 7.53984 21.6C8.71597 22.9 9.1762 23.85 9.1762 24.05C9.1762 24.05 9.1762 24.05 9.1762 24.1C8.86938 24.25 8.15347 23.55 7.64211 23.05C7.33529 22.75 7.07961 22.5 6.82393 22.3C6.77279 22.25 6.67052 22.25 6.61938 22.3C6.56825 22.35 6.51711 22.4 6.51711 22.5C6.51711 23.25 7.89779 24.9 9.68756 25.95L9.78984 26C10.2501 26.3 10.9148 26.65 11.0171 26.85C10.8637 26.95 10.5569 26.85 9.63643 26.35C9.53415 26.3 9.38075 26.2 9.27847 26.15C7.84666 25.35 7.18188 25 6.87506 25.1C6.77279 25.15 6.72166 25.2 6.72166 25.3C6.77279 25.75 8.92052 27.1 9.32961 27.35C10.5569 28.1 10.608 28.35 10.608 28.35C10.4035 28.5 9.38075 27.85 9.02279 27.65C8.51143 27.35 8.0512 27 7.64211 26.65C6.77279 26 6.3637 25.7 6.10802 25.8C6.05688 25.8 6.00575 25.85 5.95461 25.9C5.90347 25.95 5.90347 26 5.95461 26.05C6.05688 26.25 6.77279 27.2 7.89779 27.95L8.25575 28.15C8.81825 28.5 9.38075 28.85 9.58529 29.05C9.48302 29.05 9.27847 28.95 9.02279 28.85C8.51143 28.6 8.10234 28.35 7.53984 27.95ZM18.3296 39C15.3637 37 13.216 34.2 11.1194 31.5C10.5057 30.75 9.94325 30 9.38075 29.35C9.53415 29.35 9.63643 29.35 9.68756 29.35C9.84097 29.25 9.89211 29.15 9.89211 29.05C9.89211 28.75 9.53416 28.5 8.30688 27.75L7.94893 27.55C7.43756 27.25 6.97734 26.85 6.67052 26.55C6.82393 26.65 7.02847 26.8 7.23302 26.95C7.64211 27.25 8.15347 27.6 8.66484 27.95C9.94325 28.75 10.4035 28.9 10.7614 28.65C10.9148 28.55 10.9148 28.4 10.9148 28.3C10.9148 28.05 10.6592 27.7 9.48302 27C8.71597 26.5 8.00006 26.05 7.59097 25.7C8.0512 25.9 8.56256 26.25 9.02279 26.45C9.12506 26.5 9.27847 26.6 9.38075 26.65C10.3523 27.2 10.8637 27.4 11.2217 27.15C11.3239 27.1 11.3751 27 11.3751 26.85C11.3751 26.55 10.9148 26.25 9.94325 25.65L9.84097 25.6C9.02279 25.1 8.25575 24.5 7.64211 23.8C7.43756 23.6 7.28415 23.4 7.18188 23.2C7.23302 23.25 7.28415 23.3 7.33529 23.35C8.10234 24.05 8.76711 24.75 9.32961 24.45C9.43188 24.4 9.53416 24.3 9.53416 24.15C9.63643 23.65 8.92052 22.65 8.35802 21.95C10.3012 22.8 12.7557 23.7 15.6194 24.55C16.2842 25.45 17.0001 26.45 17.716 27.55C19.3012 29.9 20.9887 32.35 22.8296 33.95C23.9035 34.9 37.4035 39.4 38.6819 39.85C39.3467 41.15 40.1648 42.4 41.0342 43.6C35.0001 42.55 19.3523 39.65 18.3296 39ZM17.9717 15.75C17.9717 15.65 18.1251 15.5 18.2273 15.5C19.3012 15.65 19.8126 14.85 19.966 14.8C20.0682 14.75 20.4773 14.65 20.2728 14.95C20.2217 15 19.6592 15.9 18.5342 15.9C18.4319 15.9 18.3296 15.9 18.2273 15.9C18.0739 15.85 17.9205 15.85 17.9717 15.75Z"/>
</mask>
<path d="M41.6478 43.7C40.5739 42.25 39.6535 40.8 38.8864 39.25C36.3296 34.1 36.1251 29.5 35.9205 25.8C35.8694 24.4 35.8182 23.25 35.6137 22.2C35.1535 19.35 33.6705 17.75 31.1137 17.4C31.0626 17.4 29.1194 17.05 28.4546 16.4L28.4035 16.35C27.3807 15.35 26.5626 14.5 26.9205 10.95C27.0739 9.39999 26.6648 7.69999 25.7955 6.29999C25.0285 5.09999 23.5967 3.49999 20.8353 2.99999C19.4546 2.74999 18.0739 2.84999 16.8467 3.34999C15.8239 2.39999 14.0342 1.69999 12.1932 1.54999C9.94325 1.34999 7.89779 1.89999 6.3637 3.14999C4.42052 4.74999 3.44893 6.74999 3.44893 9.14999C3.44893 11.1 4.1137 12.8 4.52279 13.65C2.63075 13.75 1.91484 14.6 1.45461 15.85C0.89211 17.35 1.91484 18.5 3.19325 19.35C1.09666 22.2 1.65916 24.05 3.14211 26.1C3.03984 27.8 3.24438 30.5 4.62506 34C5.64779 36.7 6.10802 38.3 6.26143 39.15C6.46597 40.1 6.41484 40.45 6.41484 40.45C6.41484 40.55 6.46597 40.65 6.56825 40.7H6.61938C6.72165 40.7 6.77279 40.65 6.82393 40.55C6.82393 40.5 7.07961 39.2 5.03416 33.85C3.85802 30.8 3.60234 28.3 3.60234 26.65C3.70461 26.8 3.85802 26.95 3.96029 27.1C4.77847 28.05 5.28984 28.4 6.05688 29C6.56825 29.4 6.97734 29.65 7.33529 29.65C7.4887 29.65 7.64211 29.6 7.79552 29.5C7.89779 29.4 7.89779 29.3 7.89779 29.25C7.89779 29.05 7.69325 28.9 7.38643 28.65C7.23302 28.55 7.07961 28.4 6.87506 28.25C6.51711 27.95 6.21029 27.6 5.90347 27.3C6.26143 27.65 6.77279 28 7.28416 28.35C7.74438 28.7 8.20461 28.95 8.6137 29.15C9.32961 30 10.0455 30.85 10.7614 31.8C12.7557 34.4 15.0569 37.3 18.0739 39.35C19.3523 40.2 40.216 43.9 41.0853 44.05C41.0853 44.05 41.0853 44.05 41.1364 44.05C41.1876 44.05 41.2898 44 41.2898 43.95C41.341 44 41.3921 44.05 41.4432 44.05C41.4944 44.05 41.5455 44.05 41.5455 44C41.6989 43.9 41.6989 43.75 41.6478 43.7ZM20.8353 3.39999C23.4432 3.89999 24.8239 5.39999 25.5398 6.54999C26.358 7.84999 26.716 9.49999 26.6137 10.95C26.2557 14.7 27.1251 15.55 28.1989 16.65L28.2501 16.7C28.608 17.05 29.2217 17.3 29.8353 17.5C29.1705 17.65 28.4035 17.85 27.6364 18.1C26.5626 18.45 25.4887 18.8 24.5171 18.85C22.8807 18.95 19.5057 18.8 18.2785 18.65C18.0228 18.6 17.7671 18.65 17.6137 18.75C17.3069 18.85 17.0512 18.95 16.591 18.7C16.233 18.5 16.233 17.85 16.233 17.15C16.233 16.4 16.233 15.6 15.8239 15C15.466 14.45 15.0057 14 14.5967 13.6C13.9319 12.95 13.2671 12.4 13.1137 11.3C12.7557 8.99999 13.6251 6.54999 15.3126 4.99999C16.7444 3.54999 18.7387 2.99999 20.8353 3.39999ZM15.5682 17.95L15.466 17.9C15.2614 17.8 14.6989 17.15 14.1876 15.7C14.4432 15.85 14.6478 15.95 14.8012 15.95C14.9546 15.95 15.1592 15.9 15.1592 15.85C15.1592 15.8 14.9546 15.65 14.8523 15.6C14.4944 15.45 14.5967 15.6 13.983 15.05C13.983 15.05 13.983 15.05 13.9319 15C13.8807 14.75 13.8296 14.6 13.7273 14.2C13.6251 13.85 13.5739 13.45 13.4717 13.1C13.6762 13.35 13.9319 13.55 14.1364 13.75C14.5455 14.15 15.0057 14.55 15.3126 15.05C15.6194 15.55 15.6194 16.3 15.6194 17C15.6194 17.35 15.6194 17.65 15.6705 17.95H15.5682ZM6.72166 3.44999C9.7387 0.949992 14.4944 1.84999 16.5398 3.54999C15.9773 3.84999 15.4148 4.19999 14.9035 4.64999C13.1137 6.29999 12.2444 8.84999 12.6023 11.3C12.6535 11.55 12.7046 11.8 12.8069 12C13.0114 12.6 13.216 13.55 13.4205 14.35C13.5228 14.9 13.6251 15.35 13.7273 15.65C14.0342 16.55 14.341 17.2 14.5967 17.6L13.8807 17.3C13.216 17.05 12.3467 16.65 11.4262 16.25C8.97165 15.15 6.26143 13.95 5.08529 13.75C4.72734 13 3.96029 11.3 3.96029 9.19999C3.96029 6.84999 4.88075 4.94999 6.72166 3.44999ZM1.91484 16C2.37506 14.8 2.93756 14.1 4.77847 14.05C5.59666 14.05 8.86938 15.5 11.2217 16.55C12.1421 16.95 13.0626 17.35 13.6762 17.65L15.2614 18.3C15.3126 18.35 15.3637 18.35 15.4148 18.35L15.8239 18.5H15.8751C15.9773 18.7 16.0796 18.9 16.2842 19C16.8978 19.3 17.3069 19.2 17.6137 19.1C17.8182 19.05 17.9205 19 18.1251 19.05C19.3523 19.2 22.7273 19.3 24.4148 19.25C25.3864 19.2 26.5626 18.85 27.6364 18.5C28.9148 18.1 30.1421 17.7 31.0114 17.8C33.3637 18.1 34.7444 19.6 35.1535 22.25C35.3069 23.25 35.358 24.45 35.4092 25.8C35.5626 29.55 35.8182 34.15 38.3239 39.3C33.9262 37.85 23.8523 34.35 22.983 33.6C21.1932 32.05 19.5057 29.65 17.9205 27.3C17.3069 26.4 16.6932 25.5 16.1307 24.7C18.5853 25.4 21.2955 26.05 24.1592 26.45C24.1592 26.45 24.1592 26.45 24.2103 26.45C24.3126 26.45 24.4148 26.4 24.4148 26.3C24.4148 26.2 24.3637 26.1 24.2614 26.1C21.1421 25.65 18.2785 24.95 15.7217 24.2C10.5569 22.65 6.67052 20.85 4.88075 19.9C2.37506 18.55 1.40347 17.35 1.91484 16ZM7.53984 27.95C6.87506 27.55 6.3637 27.1 5.95461 26.75C5.44325 26.3 5.13643 26.05 4.88075 26.1C4.77847 26.15 4.72734 26.25 4.72734 26.35C4.77847 26.6 5.75006 27.75 6.61938 28.5C6.82393 28.65 6.97734 28.8 7.13075 28.9C7.28415 29 7.43756 29.15 7.4887 29.2C7.38643 29.25 7.13075 29.3 6.31256 28.7C5.49438 28.1 5.03416 27.75 4.26711 26.85C4.01143 26.55 3.80688 26.25 3.60234 26C2.17052 24 1.60802 22.3 3.60234 19.6C3.96029 19.85 4.36938 20.05 4.77847 20.25C5.44325 20.6 6.3637 21.05 7.53984 21.6C8.71597 22.9 9.1762 23.85 9.1762 24.05C9.1762 24.05 9.1762 24.05 9.1762 24.1C8.86938 24.25 8.15347 23.55 7.64211 23.05C7.33529 22.75 7.07961 22.5 6.82393 22.3C6.77279 22.25 6.67052 22.25 6.61938 22.3C6.56825 22.35 6.51711 22.4 6.51711 22.5C6.51711 23.25 7.89779 24.9 9.68756 25.95L9.78984 26C10.2501 26.3 10.9148 26.65 11.0171 26.85C10.8637 26.95 10.5569 26.85 9.63643 26.35C9.53415 26.3 9.38075 26.2 9.27847 26.15C7.84666 25.35 7.18188 25 6.87506 25.1C6.77279 25.15 6.72166 25.2 6.72166 25.3C6.77279 25.75 8.92052 27.1 9.32961 27.35C10.5569 28.1 10.608 28.35 10.608 28.35C10.4035 28.5 9.38075 27.85 9.02279 27.65C8.51143 27.35 8.0512 27 7.64211 26.65C6.77279 26 6.3637 25.7 6.10802 25.8C6.05688 25.8 6.00575 25.85 5.95461 25.9C5.90347 25.95 5.90347 26 5.95461 26.05C6.05688 26.25 6.77279 27.2 7.89779 27.95L8.25575 28.15C8.81825 28.5 9.38075 28.85 9.58529 29.05C9.48302 29.05 9.27847 28.95 9.02279 28.85C8.51143 28.6 8.10234 28.35 7.53984 27.95ZM18.3296 39C15.3637 37 13.216 34.2 11.1194 31.5C10.5057 30.75 9.94325 30 9.38075 29.35C9.53415 29.35 9.63643 29.35 9.68756 29.35C9.84097 29.25 9.89211 29.15 9.89211 29.05C9.89211 28.75 9.53416 28.5 8.30688 27.75L7.94893 27.55C7.43756 27.25 6.97734 26.85 6.67052 26.55C6.82393 26.65 7.02847 26.8 7.23302 26.95C7.64211 27.25 8.15347 27.6 8.66484 27.95C9.94325 28.75 10.4035 28.9 10.7614 28.65C10.9148 28.55 10.9148 28.4 10.9148 28.3C10.9148 28.05 10.6592 27.7 9.48302 27C8.71597 26.5 8.00006 26.05 7.59097 25.7C8.0512 25.9 8.56256 26.25 9.02279 26.45C9.12506 26.5 9.27847 26.6 9.38075 26.65C10.3523 27.2 10.8637 27.4 11.2217 27.15C11.3239 27.1 11.3751 27 11.3751 26.85C11.3751 26.55 10.9148 26.25 9.94325 25.65L9.84097 25.6C9.02279 25.1 8.25575 24.5 7.64211 23.8C7.43756 23.6 7.28415 23.4 7.18188 23.2C7.23302 23.25 7.28415 23.3 7.33529 23.35C8.10234 24.05 8.76711 24.75 9.32961 24.45C9.43188 24.4 9.53416 24.3 9.53416 24.15C9.63643 23.65 8.92052 22.65 8.35802 21.95C10.3012 22.8 12.7557 23.7 15.6194 24.55C16.2842 25.45 17.0001 26.45 17.716 27.55C19.3012 29.9 20.9887 32.35 22.8296 33.95C23.9035 34.9 37.4035 39.4 38.6819 39.85C39.3467 41.15 40.1648 42.4 41.0342 43.6C35.0001 42.55 19.3523 39.65 18.3296 39ZM17.9717 15.75C17.9717 15.65 18.1251 15.5 18.2273 15.5C19.3012 15.65 19.8126 14.85 19.966 14.8C20.0682 14.75 20.4773 14.65 20.2728 14.95C20.2217 15 19.6592 15.9 18.5342 15.9C18.4319 15.9 18.3296 15.9 18.2273 15.9C18.0739 15.85 17.9205 15.85 17.9717 15.75Z" fill="white"/>
<path d="M41.6478 43.7C40.5739 42.25 39.6535 40.8 38.8864 39.25C36.3296 34.1 36.1251 29.5 35.9205 25.8C35.8694 24.4 35.8182 23.25 35.6137 22.2C35.1535 19.35 33.6705 17.75 31.1137 17.4C31.0626 17.4 29.1194 17.05 28.4546 16.4L28.4035 16.35C27.3807 15.35 26.5626 14.5 26.9205 10.95C27.0739 9.39999 26.6648 7.69999 25.7955 6.29999C25.0285 5.09999 23.5967 3.49999 20.8353 2.99999C19.4546 2.74999 18.0739 2.84999 16.8467 3.34999C15.8239 2.39999 14.0342 1.69999 12.1932 1.54999C9.94325 1.34999 7.89779 1.89999 6.3637 3.14999C4.42052 4.74999 3.44893 6.74999 3.44893 9.14999C3.44893 11.1 4.1137 12.8 4.52279 13.65C2.63075 13.75 1.91484 14.6 1.45461 15.85C0.89211 17.35 1.91484 18.5 3.19325 19.35C1.09666 22.2 1.65916 24.05 3.14211 26.1C3.03984 27.8 3.24438 30.5 4.62506 34C5.64779 36.7 6.10802 38.3 6.26143 39.15C6.46597 40.1 6.41484 40.45 6.41484 40.45C6.41484 40.55 6.46597 40.65 6.56825 40.7H6.61938C6.72165 40.7 6.77279 40.65 6.82393 40.55C6.82393 40.5 7.07961 39.2 5.03416 33.85C3.85802 30.8 3.60234 28.3 3.60234 26.65C3.70461 26.8 3.85802 26.95 3.96029 27.1C4.77847 28.05 5.28984 28.4 6.05688 29C6.56825 29.4 6.97734 29.65 7.33529 29.65C7.4887 29.65 7.64211 29.6 7.79552 29.5C7.89779 29.4 7.89779 29.3 7.89779 29.25C7.89779 29.05 7.69325 28.9 7.38643 28.65C7.23302 28.55 7.07961 28.4 6.87506 28.25C6.51711 27.95 6.21029 27.6 5.90347 27.3C6.26143 27.65 6.77279 28 7.28416 28.35C7.74438 28.7 8.20461 28.95 8.6137 29.15C9.32961 30 10.0455 30.85 10.7614 31.8C12.7557 34.4 15.0569 37.3 18.0739 39.35C19.3523 40.2 40.216 43.9 41.0853 44.05C41.0853 44.05 41.0853 44.05 41.1364 44.05C41.1876 44.05 41.2898 44 41.2898 43.95C41.341 44 41.3921 44.05 41.4432 44.05C41.4944 44.05 41.5455 44.05 41.5455 44C41.6989 43.9 41.6989 43.75 41.6478 43.7ZM20.8353 3.39999C23.4432 3.89999 24.8239 5.39999 25.5398 6.54999C26.358 7.84999 26.716 9.49999 26.6137 10.95C26.2557 14.7 27.1251 15.55 28.1989 16.65L28.2501 16.7C28.608 17.05 29.2217 17.3 29.8353 17.5C29.1705 17.65 28.4035 17.85 27.6364 18.1C26.5626 18.45 25.4887 18.8 24.5171 18.85C22.8807 18.95 19.5057 18.8 18.2785 18.65C18.0228 18.6 17.7671 18.65 17.6137 18.75C17.3069 18.85 17.0512 18.95 16.591 18.7C16.233 18.5 16.233 17.85 16.233 17.15C16.233 16.4 16.233 15.6 15.8239 15C15.466 14.45 15.0057 14 14.5967 13.6C13.9319 12.95 13.2671 12.4 13.1137 11.3C12.7557 8.99999 13.6251 6.54999 15.3126 4.99999C16.7444 3.54999 18.7387 2.99999 20.8353 3.39999ZM15.5682 17.95L15.466 17.9C15.2614 17.8 14.6989 17.15 14.1876 15.7C14.4432 15.85 14.6478 15.95 14.8012 15.95C14.9546 15.95 15.1592 15.9 15.1592 15.85C15.1592 15.8 14.9546 15.65 14.8523 15.6C14.4944 15.45 14.5967 15.6 13.983 15.05C13.983 15.05 13.983 15.05 13.9319 15C13.8807 14.75 13.8296 14.6 13.7273 14.2C13.6251 13.85 13.5739 13.45 13.4717 13.1C13.6762 13.35 13.9319 13.55 14.1364 13.75C14.5455 14.15 15.0057 14.55 15.3126 15.05C15.6194 15.55 15.6194 16.3 15.6194 17C15.6194 17.35 15.6194 17.65 15.6705 17.95H15.5682ZM6.72166 3.44999C9.7387 0.949992 14.4944 1.84999 16.5398 3.54999C15.9773 3.84999 15.4148 4.19999 14.9035 4.64999C13.1137 6.29999 12.2444 8.84999 12.6023 11.3C12.6535 11.55 12.7046 11.8 12.8069 12C13.0114 12.6 13.216 13.55 13.4205 14.35C13.5228 14.9 13.6251 15.35 13.7273 15.65C14.0342 16.55 14.341 17.2 14.5967 17.6L13.8807 17.3C13.216 17.05 12.3467 16.65 11.4262 16.25C8.97165 15.15 6.26143 13.95 5.08529 13.75C4.72734 13 3.96029 11.3 3.96029 9.19999C3.96029 6.84999 4.88075 4.94999 6.72166 3.44999ZM1.91484 16C2.37506 14.8 2.93756 14.1 4.77847 14.05C5.59666 14.05 8.86938 15.5 11.2217 16.55C12.1421 16.95 13.0626 17.35 13.6762 17.65L15.2614 18.3C15.3126 18.35 15.3637 18.35 15.4148 18.35L15.8239 18.5H15.8751C15.9773 18.7 16.0796 18.9 16.2842 19C16.8978 19.3 17.3069 19.2 17.6137 19.1C17.8182 19.05 17.9205 19 18.1251 19.05C19.3523 19.2 22.7273 19.3 24.4148 19.25C25.3864 19.2 26.5626 18.85 27.6364 18.5C28.9148 18.1 30.1421 17.7 31.0114 17.8C33.3637 18.1 34.7444 19.6 35.1535 22.25C35.3069 23.25 35.358 24.45 35.4092 25.8C35.5626 29.55 35.8182 34.15 38.3239 39.3C33.9262 37.85 23.8523 34.35 22.983 33.6C21.1932 32.05 19.5057 29.65 17.9205 27.3C17.3069 26.4 16.6932 25.5 16.1307 24.7C18.5853 25.4 21.2955 26.05 24.1592 26.45C24.1592 26.45 24.1592 26.45 24.2103 26.45C24.3126 26.45 24.4148 26.4 24.4148 26.3C24.4148 26.2 24.3637 26.1 24.2614 26.1C21.1421 25.65 18.2785 24.95 15.7217 24.2C10.5569 22.65 6.67052 20.85 4.88075 19.9C2.37506 18.55 1.40347 17.35 1.91484 16ZM7.53984 27.95C6.87506 27.55 6.3637 27.1 5.95461 26.75C5.44325 26.3 5.13643 26.05 4.88075 26.1C4.77847 26.15 4.72734 26.25 4.72734 26.35C4.77847 26.6 5.75006 27.75 6.61938 28.5C6.82393 28.65 6.97734 28.8 7.13075 28.9C7.28415 29 7.43756 29.15 7.4887 29.2C7.38643 29.25 7.13075 29.3 6.31256 28.7C5.49438 28.1 5.03416 27.75 4.26711 26.85C4.01143 26.55 3.80688 26.25 3.60234 26C2.17052 24 1.60802 22.3 3.60234 19.6C3.96029 19.85 4.36938 20.05 4.77847 20.25C5.44325 20.6 6.3637 21.05 7.53984 21.6C8.71597 22.9 9.1762 23.85 9.1762 24.05C9.1762 24.05 9.1762 24.05 9.1762 24.1C8.86938 24.25 8.15347 23.55 7.64211 23.05C7.33529 22.75 7.07961 22.5 6.82393 22.3C6.77279 22.25 6.67052 22.25 6.61938 22.3C6.56825 22.35 6.51711 22.4 6.51711 22.5C6.51711 23.25 7.89779 24.9 9.68756 25.95L9.78984 26C10.2501 26.3 10.9148 26.65 11.0171 26.85C10.8637 26.95 10.5569 26.85 9.63643 26.35C9.53415 26.3 9.38075 26.2 9.27847 26.15C7.84666 25.35 7.18188 25 6.87506 25.1C6.77279 25.15 6.72166 25.2 6.72166 25.3C6.77279 25.75 8.92052 27.1 9.32961 27.35C10.5569 28.1 10.608 28.35 10.608 28.35C10.4035 28.5 9.38075 27.85 9.02279 27.65C8.51143 27.35 8.0512 27 7.64211 26.65C6.77279 26 6.3637 25.7 6.10802 25.8C6.05688 25.8 6.00575 25.85 5.95461 25.9C5.90347 25.95 5.90347 26 5.95461 26.05C6.05688 26.25 6.77279 27.2 7.89779 27.95L8.25575 28.15C8.81825 28.5 9.38075 28.85 9.58529 29.05C9.48302 29.05 9.27847 28.95 9.02279 28.85C8.51143 28.6 8.10234 28.35 7.53984 27.95ZM18.3296 39C15.3637 37 13.216 34.2 11.1194 31.5C10.5057 30.75 9.94325 30 9.38075 29.35C9.53415 29.35 9.63643 29.35 9.68756 29.35C9.84097 29.25 9.89211 29.15 9.89211 29.05C9.89211 28.75 9.53416 28.5 8.30688 27.75L7.94893 27.55C7.43756 27.25 6.97734 26.85 6.67052 26.55C6.82393 26.65 7.02847 26.8 7.23302 26.95C7.64211 27.25 8.15347 27.6 8.66484 27.95C9.94325 28.75 10.4035 28.9 10.7614 28.65C10.9148 28.55 10.9148 28.4 10.9148 28.3C10.9148 28.05 10.6592 27.7 9.48302 27C8.71597 26.5 8.00006 26.05 7.59097 25.7C8.0512 25.9 8.56256 26.25 9.02279 26.45C9.12506 26.5 9.27847 26.6 9.38075 26.65C10.3523 27.2 10.8637 27.4 11.2217 27.15C11.3239 27.1 11.3751 27 11.3751 26.85C11.3751 26.55 10.9148 26.25 9.94325 25.65L9.84097 25.6C9.02279 25.1 8.25575 24.5 7.64211 23.8C7.43756 23.6 7.28415 23.4 7.18188 23.2C7.23302 23.25 7.28415 23.3 7.33529 23.35C8.10234 24.05 8.76711 24.75 9.32961 24.45C9.43188 24.4 9.53416 24.3 9.53416 24.15C9.63643 23.65 8.92052 22.65 8.35802 21.95C10.3012 22.8 12.7557 23.7 15.6194 24.55C16.2842 25.45 17.0001 26.45 17.716 27.55C19.3012 29.9 20.9887 32.35 22.8296 33.95C23.9035 34.9 37.4035 39.4 38.6819 39.85C39.3467 41.15 40.1648 42.4 41.0342 43.6C35.0001 42.55 19.3523 39.65 18.3296 39ZM17.9717 15.75C17.9717 15.65 18.1251 15.5 18.2273 15.5C19.3012 15.65 19.8126 14.85 19.966 14.8C20.0682 14.75 20.4773 14.65 20.2728 14.95C20.2217 15 19.6592 15.9 18.5342 15.9C18.4319 15.9 18.3296 15.9 18.2273 15.9C18.0739 15.85 17.9205 15.85 17.9717 15.75Z" stroke="white" stroke-width="1.4" mask="url(#path-1-outside-1)"/>
</svg>
