<svg width="46" height="47" viewBox="0 0 46 47" fill="none" xmlns="http://www.w3.org/2000/svg">
<path d="M5.73594 7.42151C5.73594 7.75638 5.95166 8.04302 6.27127 8.04302H7.38629V13.1203C7.38629 13.4464 7.67824 13.6553 8.02462 13.6553C8.37061 13.6553 8.66295 13.4464 8.66295 13.1203V8.04302H9.76939C10.0927 8.04302 10.3047 7.76122 10.3047 7.42151C10.3047 7.08869 10.0898 6.81751 9.76939 6.81751H6.27127C6.09545 6.81751 5.95854 6.89966 5.86826 7.01699C5.77973 7.13205 5.73594 7.28019 5.73594 7.42151Z" fill="white" stroke="white" stroke-width="0.2"/>
<path d="M11.8059 6.81751C11.6298 6.81751 11.4719 6.86626 11.3558 6.95827C11.2381 7.05154 11.1676 7.18653 11.1676 7.34426V13.1203C11.1676 13.4467 11.4595 13.6557 11.8059 13.6557C12.1523 13.6557 12.4442 13.4467 12.4442 13.1203V10.699H14.2187V13.1203C14.2187 13.4467 14.511 13.6557 14.857 13.6557C15.2034 13.6557 15.4957 13.4468 15.4957 13.1203V7.34426C15.4957 7.18652 15.4251 7.05153 15.3074 6.95826C15.1913 6.86624 15.0333 6.81751 14.857 6.81751C14.6809 6.81751 14.523 6.86626 14.4069 6.95827C14.2892 7.05154 14.2187 7.18653 14.2187 7.34426V9.54212H12.4442V7.34426C12.4442 7.18658 12.3738 7.05158 12.2562 6.95829C12.1401 6.86625 11.9822 6.81751 11.8059 6.81751Z" fill="white" stroke="white" stroke-width="0.2"/>
<path d="M19.5909 7.20987L19.5909 7.20987L19.5907 7.20913C19.5031 6.93134 19.2057 6.76601 18.8794 6.76601C18.5407 6.76601 18.2534 6.92482 18.1671 7.21151C18.1671 7.2116 18.167 7.2117 18.167 7.21179L16.416 12.9207L16.4127 12.9296L16.4126 12.9298L16.4125 12.9303C16.4028 12.9572 16.3844 13.0081 16.3844 13.0771C16.3844 13.2766 16.5001 13.4238 16.6403 13.5166C16.7793 13.6086 16.9526 13.6553 17.1003 13.6553C17.3529 13.6553 17.5611 13.5265 17.6323 13.2942L17.6323 13.2942L17.6326 13.2932L17.9523 12.2116H19.7979L20.118 13.2953L20.118 13.2953L20.1183 13.2964C20.1882 13.5226 20.3959 13.6553 20.6413 13.6553C20.8097 13.6553 20.9863 13.5989 21.1227 13.5007C21.2593 13.4023 21.3658 13.2536 21.3658 13.0685C21.3658 13.0396 21.3619 13.0141 21.3572 12.995V12.982V12.967L21.3528 12.9526L19.5909 7.20987ZM18.8768 9.08127L19.4621 11.0637H18.2812L18.8768 9.08127Z" fill="white" stroke="white" stroke-width="0.2"/>
<path d="M23.5399 13.1203V9.86902L25.2507 13.1789L25.2505 13.179L25.2538 13.1845L25.2548 13.1862C25.4146 13.4781 25.6607 13.6557 25.9531 13.6557C26.2991 13.6557 26.5914 13.4467 26.5914 13.1203V7.34426C26.5914 7.18653 26.5208 7.05154 26.4032 6.95827C26.2871 6.86626 26.1292 6.81751 25.9531 6.81751C25.7768 6.81751 25.6188 6.86624 25.5027 6.95826C25.3849 7.05153 25.3144 7.18652 25.3144 7.34426V10.5844L23.6986 7.42405L23.6985 7.42385C23.5613 7.15708 23.3572 6.81751 22.9016 6.81751C22.722 6.81751 22.5635 6.86344 22.4476 6.95533C22.3295 7.04901 22.2633 7.18482 22.2633 7.34426V13.1203C22.2633 13.4463 22.5551 13.6557 22.9016 13.6557C23.248 13.6557 23.5399 13.4467 23.5399 13.1203Z" fill="white" stroke="white" stroke-width="0.2"/>
<path d="M29.2209 11.3178L29.5597 10.8922L31.2308 13.403L31.2309 13.4031C31.3457 13.5753 31.5238 13.6728 31.7281 13.6728C31.9118 13.6728 32.0848 13.5979 32.2119 13.4836C32.3387 13.3695 32.4269 13.2095 32.4269 13.0345C32.4269 12.9399 32.3969 12.8501 32.3401 12.7559L32.3402 12.7559L32.3379 12.7524L30.4036 9.8266L32.0281 7.79642C32.106 7.70247 32.1519 7.58271 32.1519 7.46477C32.1519 7.28018 32.051 7.11808 31.9223 7.00556C31.7939 6.89326 31.6239 6.81785 31.4621 6.81785C31.2929 6.81785 31.1261 6.89767 31.0268 7.02966L29.2209 9.37448V7.34426C29.2209 7.18653 29.1504 7.05154 29.0327 6.95827C28.9166 6.86626 28.7588 6.81751 28.5826 6.81751C28.4065 6.81751 28.2485 6.86625 28.1324 6.95825C28.0146 7.05148 27.9439 7.18647 27.9439 7.34426V13.1203C27.9439 13.4468 28.2363 13.6557 28.5826 13.6557C28.9287 13.6557 29.2209 13.4467 29.2209 13.1203V11.3178Z" fill="white" stroke="white" stroke-width="0.2"/>
<path d="M11.1121 17.9644L11.1117 17.9645L11.1159 17.9724L12.8948 21.2911V23.4337C12.8948 23.7601 13.1867 23.9691 13.5331 23.9691C13.8792 23.9691 14.1715 23.7601 14.1715 23.4337V21.275L15.9349 17.9865L15.9349 17.9865L15.9362 17.9839L15.9431 17.9702L15.9432 17.9703L15.9456 17.9649C15.9915 17.8577 16.0024 17.7686 16.0024 17.7095C16.0024 17.5262 15.9012 17.3794 15.7675 17.2821C15.6345 17.1854 15.4619 17.1313 15.2951 17.1313C14.9713 17.1313 14.832 17.3929 14.7924 17.4674L14.791 17.4699L14.791 17.4699L14.7902 17.4715L13.5322 19.9368L12.266 17.4685L12.266 17.4685L12.2652 17.4671C12.1898 17.3258 12.0533 17.1313 11.7623 17.1313C11.6185 17.1313 11.4473 17.1796 11.3099 17.2719C11.1716 17.3648 11.0553 17.5117 11.0553 17.7095C11.0553 17.7684 11.0662 17.857 11.1121 17.9644Z" fill="white" stroke="white" stroke-width="0.2"/>
<path d="M18.8537 17.1309C18.1823 17.1309 17.647 17.3185 17.2799 17.6903C16.9129 18.0619 16.7281 18.6033 16.7281 19.2823V21.8692C16.7281 22.5482 16.9129 23.0896 17.2799 23.4612C17.647 23.833 18.1823 24.0206 18.8537 24.0206C19.5192 24.0206 20.056 23.8277 20.4264 23.4541C20.7966 23.0807 20.9876 22.5397 20.9876 21.8692V19.2823C20.9876 18.6118 20.7966 18.0708 20.4264 17.6973C20.056 17.3238 19.5192 17.1309 18.8537 17.1309ZM19.7106 19.2823V21.8692C19.7106 22.2076 19.6349 22.4394 19.5 22.5866C19.3666 22.7321 19.1588 22.8126 18.8537 22.8126C18.5519 22.8126 18.3462 22.7322 18.2141 22.5869C18.0802 22.4397 18.0051 22.2077 18.0051 21.8692V19.2823C18.0051 18.9439 18.0802 18.7121 18.2141 18.5649C18.3462 18.4196 18.5519 18.3393 18.8537 18.3393C19.1588 18.3393 19.3666 18.4197 19.5 18.5651C19.6349 18.7122 19.7106 18.9439 19.7106 19.2823Z" fill="white" stroke="white" stroke-width="0.2"/>
<path d="M22.2539 21.7692H22.2535V21.8692C22.2535 22.5485 22.4408 23.0901 22.8124 23.4617C23.184 23.8332 23.7256 24.0206 24.4049 24.0206C25.0782 24.0206 25.6214 23.8279 25.9963 23.4546C26.3713 23.0812 26.5648 22.54 26.5648 21.8692V17.6577C26.5648 17.3348 26.2705 17.1309 25.9261 17.1309C25.7482 17.1309 25.5901 17.1783 25.4741 17.2703C25.3562 17.3638 25.2878 17.4992 25.2878 17.6577V21.8692C25.2878 22.207 25.2103 22.4384 25.0716 22.5856C24.9341 22.7317 24.7194 22.8126 24.4049 22.8126C24.0935 22.8126 23.8811 22.7318 23.7449 22.5859C23.6074 22.4387 23.5305 22.2072 23.5305 21.8692V17.6577C23.5305 17.4999 23.46 17.365 23.3423 17.2717C23.2262 17.1797 23.0683 17.1309 22.8922 17.1309C22.716 17.1309 22.5582 17.1797 22.4421 17.2717C22.3244 17.365 22.2539 17.4999 22.2539 17.6577V21.7692Z" fill="white" stroke="white" stroke-width="0.2"/>
<path d="M18.6984 31.5656L18.6985 31.5655C18.8418 31.4242 19.0348 31.3448 19.2363 31.3448H28.713C29.136 31.3448 29.4784 31.6876 29.4784 32.1102C29.4784 32.5327 29.136 32.8755 28.713 32.8755H19.5506L10.7276 41.5907L10.7276 41.5908M18.6984 31.5656L9.52436 41.0462C9.52436 41.3147 9.68572 41.5567 9.93326 41.66C10.0163 41.6947 10.1032 41.7115 10.1897 41.7115C10.3617 41.7115 10.5306 41.6449 10.6573 41.5196L10.7276 41.5908M18.6984 31.5656L10.9554 39.2142V32.1102C10.9554 31.6876 10.6126 31.3448 10.1897 31.3448H8.16103C5.00138 31.3448 2.43072 28.7742 2.43072 25.6145V8.16102C2.43072 5.00172 5.00138 2.43105 8.16103 2.43105H8.26059C8.68355 2.43105 9.02595 2.08825 9.02595 1.6657C9.02595 1.24277 8.68352 0.900336 8.26059 0.900336H8.16103C4.15725 0.900336 0.9 4.15723 0.9 8.16102V25.6145C0.9 29.6183 4.15724 32.8755 8.16103 32.8755H9.42436M18.6984 31.5656L9.42436 32.8755M10.7276 41.5908C10.5818 41.735 10.3874 41.8115 10.1897 41.8115C10.0902 41.8115 9.99019 41.7922 9.89473 41.7523C9.60998 41.6335 9.42436 41.355 9.42436 41.0462V32.8755M10.7276 41.5908L9.42436 32.8755" fill="white" stroke="white" stroke-width="0.2"/>
<path d="M28.9723 44.9181L28.9723 44.918L30.818 42.0704C29.8949 40.0933 29.4573 37.9098 29.5516 35.7269C29.6554 33.3239 30.4053 30.9813 31.7203 28.9525C33.0352 26.9237 34.8673 25.2825 37.0185 24.2067C38.0088 23.7114 39.0548 23.3413 40.1293 23.1007V8.16068C40.1293 5.00138 37.559 2.43072 34.3994 2.43072H11.1156C10.6926 2.43072 10.3502 2.08829 10.3502 1.66536C10.3502 1.24281 10.6926 0.9 11.1156 0.9H34.3997C38.4035 0.9 41.6604 4.15725 41.6604 8.16068V22.8472C42.3596 22.7724 43.0657 22.7511 43.7718 22.7859C43.7718 22.7859 43.7718 22.7859 43.7718 22.7859L43.7669 22.8858L28.9723 44.9181ZM28.9723 44.9181C28.7425 45.273 28.8435 45.7469 29.1982 45.9768L29.1983 45.9768M28.9723 44.9181L29.1983 45.9768M29.1983 45.9768C29.3268 46.06 29.4711 46.1 29.6141 46.1C29.8643 46.1 30.1104 45.9769 30.257 45.7509L30.257 45.7509M29.1983 45.9768L30.257 45.7509M30.257 45.7509L32.1027 42.9033L30.257 45.7509ZM39.0248 32.2234L40.0449 32.067L40.0601 32.1658L40.0449 32.067C40.4623 32.003 40.8533 32.2893 40.9173 32.7072C40.9816 33.125 40.6949 33.5159 40.2771 33.5799L37.9103 33.9432L36.007 36.8791L37.9671 36.5782L37.9823 36.6771L37.9671 36.5782C38.3846 36.5142 38.7755 36.8009 38.8399 37.2187L38.8399 37.2188C38.9038 37.6366 38.6171 38.0272 38.1994 38.0915L38.1993 38.0915L34.8925 38.599L33.1113 41.3468C34.4164 41.2599 35.7107 40.9632 36.9174 40.4672M39.0248 32.2234L36.9554 40.5597M39.0248 32.2234L41.4668 28.4557L41.4668 28.4556C41.6966 28.1007 41.5956 27.6268 41.2409 27.3969C40.8862 27.1671 40.4124 27.2682 40.1822 27.6228L40.1821 27.6228L37.906 31.1346L37.7958 30.4162L37.7958 30.4161C37.7315 29.9984 37.3417 29.7117 36.9231 29.7756L36.9231 29.7756C36.5052 29.8396 36.2185 30.2306 36.2825 30.6484L36.2825 30.6484L36.6537 33.0669L34.8882 35.7904L34.6338 34.132L34.6338 34.1319C34.5694 33.7141 34.1788 33.4278 33.7611 33.4918C33.3433 33.5557 33.0565 33.9463 33.1209 34.3642L39.0248 32.2234ZM36.9174 40.4672L36.9554 40.5597M36.9174 40.4672C36.9174 40.4672 36.9174 40.4672 36.9173 40.4672L36.9554 40.5597M36.9174 40.4672C37.3081 40.3065 37.7554 40.4933 37.9161 40.8842C38.0769 41.2752 37.8905 41.7223 37.4995 41.883L37.4615 41.7905C37.8013 41.6508 37.9634 41.2621 37.8237 40.9223C37.6839 40.5824 37.2949 40.42 36.9554 40.5597M44.4167 23.2038L44.4167 23.2036L33.1209 34.3642L33.6359 37.7227L31.8256 40.5158C30.518 36.9826 30.9334 32.9816 33.0049 29.7854C35.2464 26.3271 39.1426 24.2557 43.2471 24.3016C44.9679 28.0319 44.6652 32.4324 42.4237 35.8904L42.5033 35.942L42.4237 35.8904C41.4825 37.3428 40.2725 38.5479 38.8276 39.4737C38.4713 39.7015 38.3674 40.1751 38.5957 40.531C38.8237 40.8872 39.2972 40.9905 39.6529 40.7627C41.2831 39.7188 42.6477 38.3594 43.7084 36.7229C45.0233 34.6941 45.7732 32.3515 45.877 29.9485C45.978 27.617 45.473 25.2849 44.4167 23.2038ZM33.0436 41.4513C33.0024 41.4538 32.9612 41.4561 32.92 41.4582L32.9872 41.3545L33.0436 41.4513Z" fill="white" stroke="white" stroke-width="0.2"/>
</svg>
