<svg width="45" height="45" viewBox="0 0 45 45" fill="none" xmlns="http://www.w3.org/2000/svg">
<path d="M12.038 28.3214C12.4582 28.079 12.602 27.541 12.3597 27.1208C12.1169 26.7009 11.5793 26.5567 11.1591 26.7991C10.7388 27.0418 10.5946 27.5798 10.8374 27.9997C11.0797 28.4199 11.6177 28.5641 12.038 28.3214Z" fill="white"/>
<path d="M8.43611 34.3876L12.8622 42.0543C13.8174 43.7105 15.9659 44.3237 17.665 43.3414C19.3462 42.3698 19.924 40.2216 18.9514 38.539L16.3147 33.9715L18.5981 32.6531C19.0184 32.41 19.1625 31.8727 18.9198 31.4525L17.7769 29.4729C17.9132 29.4465 18.8093 29.2707 34.6114 26.1708C36.5649 26.0647 37.7353 23.9282 36.7486 22.2202L33.8276 17.161L35.6942 14.3337C35.8776 14.0556 35.8885 13.6982 35.722 13.4099L33.9642 10.3653C33.7977 10.0769 33.4815 9.90796 33.1502 9.92753L29.7688 10.1304L26.5261 4.51367C26.0565 3.7 25.215 3.20733 24.2757 3.19566C24.2643 3.19531 24.2533 3.19531 24.242 3.19531C23.3343 3.19531 22.5103 3.64713 22.0221 4.41102L10.5407 19.0373L3.0765 23.3466C0.140748 25.0409 -0.876174 28.8072 0.824647 31.7508C2.37853 34.4425 5.65451 35.5013 8.43611 34.3876ZM17.4295 39.4183C17.9149 40.258 17.6276 41.3326 16.7854 41.8191C15.9405 42.3077 14.8645 42.0076 14.3845 41.1757L9.98999 33.5632L13.0346 31.8054C18.1206 40.6158 17.3477 39.2772 17.4295 39.4183ZM15.4358 32.4488L14.5569 30.9265L16.0792 30.0476L16.9581 31.5699L15.4358 32.4488ZM32.7135 11.7145L33.9282 13.8184L32.845 15.4588L30.7514 11.8323L32.7135 11.7145ZM23.4922 5.37473C23.7281 4.98883 24.1023 4.94901 24.254 4.95312C24.4041 4.95484 24.7779 5.00153 25.0035 5.39223L35.2263 23.0991C35.5593 23.6755 35.1545 24.4003 34.4868 24.4168C34.3669 24.4195 34.3117 24.4412 34.0047 24.4985L23.1911 5.76852C23.418 5.47669 23.4472 5.44854 23.4922 5.37473ZM22.0214 7.25854L32.1813 24.8562L16.8479 27.8637L12.1855 19.7884L22.0214 7.25854ZM2.34694 30.8719C1.96105 30.2042 1.75711 29.4461 1.75711 28.6791C1.75711 27.1115 2.59963 25.6517 3.95541 24.8689L10.8057 20.9139L15.2003 28.5253L8.34994 32.4807C6.25121 33.692 3.55853 32.9703 2.34694 30.8719Z" fill="white"/>
<path d="M9.31501 28.8786C9.07228 28.4584 8.53463 28.3142 8.11441 28.5569L6.59211 29.4358C6.17257 29.6782 5.6339 29.5337 5.39152 29.1141C5.14879 28.6939 4.61114 28.5497 4.19092 28.7924C3.77069 29.0352 3.62649 29.5728 3.86922 29.993C4.5926 31.2462 6.20622 31.688 7.47102 30.9581L8.99331 30.0792C9.41354 29.8365 9.55774 29.2992 9.31501 28.8786Z" fill="white"/>
<path d="M43.6936 5.07533L38.7961 7.80063C38.3721 8.03684 38.2193 8.57208 38.4555 8.99608C38.691 9.41974 39.2259 9.57321 39.6509 9.33666L44.5481 6.61136C44.9724 6.37515 45.1249 5.83991 44.8887 5.41591C44.6528 4.99156 44.1176 4.83913 43.6936 5.07533Z" fill="white"/>
<path d="M43.1801 14.1782L39.7843 13.2684C39.3153 13.1428 38.8333 13.4208 38.7077 13.8898C38.582 14.3588 38.8604 14.8405 39.3294 14.9661L42.7256 15.8759C43.1973 16.0026 43.6769 15.7201 43.8019 15.2545C43.9275 14.7855 43.6491 14.3035 43.1801 14.1782Z" fill="white"/>
<path d="M34.6465 1.8821L33.7356 5.27825C33.61 5.74723 33.8881 6.22891 34.357 6.35491C34.8257 6.48022 35.3077 6.20282 35.4337 5.73349L36.3442 2.33735C36.4699 1.86837 36.1918 1.38634 35.7228 1.26069C35.2541 1.13503 34.7721 1.41312 34.6465 1.8821Z" fill="white"/>
</svg>
