<svg width="45" height="39" viewBox="0 0 45 39" fill="none" xmlns="http://www.w3.org/2000/svg">
<path d="M44.8288 22.6626C44.8274 22.6358 44.8249 22.6088 44.821 22.5819L42.5655 6.88742C42.527 6.62033 42.3681 6.38566 42.1344 6.25092C41.9008 6.11618 41.6181 6.09615 41.3675 6.19687L30.9874 10.3701C30.5369 10.5511 30.3187 11.0631 30.4997 11.5135C30.6808 11.964 31.1929 12.1822 31.6431 12.0012L40.9845 8.24551L43.0658 22.7278C43.067 22.7686 43.071 22.8095 43.0779 22.8505C43.533 25.5296 43.0348 28.3019 41.6752 30.6568C40.1094 33.3688 37.5784 35.307 34.548 36.1145C31.5168 36.9222 28.3491 36.502 25.6282 34.9312C25.6094 34.9203 25.5901 34.9112 25.5708 34.9019C26.1542 34.4585 26.7029 33.9786 27.2147 33.4651L37.5047 30.7079C37.9737 30.5823 38.252 30.1002 38.1263 29.6313C38.0007 29.1624 37.5183 28.8841 37.0498 29.0098L29.1321 31.1313C30.0021 29.837 30.6827 28.4096 31.1479 26.8825L38.2118 24.9898C38.6808 24.8642 38.959 24.3821 38.8334 23.9132C38.7078 23.4443 38.2254 23.166 37.7569 23.2917L32.5592 24.6844L34.5137 21.2989L38.6441 20.1922C39.1131 20.0666 39.3914 19.5845 39.2657 19.1156C39.14 18.6467 38.6577 18.3684 38.1892 18.4941L35.7568 19.1459L37.6271 15.9063C37.8699 15.4859 37.7258 14.9483 37.3055 14.7056C36.885 14.4629 36.3475 14.6069 36.1048 15.0273L34.2345 18.2668L33.5827 15.8344C33.457 15.3655 32.9749 15.0872 32.5062 15.2129C32.0372 15.3385 31.759 15.8205 31.8846 16.2894L32.9914 20.4199L31.8477 22.4007C31.8815 19.5871 31.1616 16.8066 29.7187 14.3075C27.9017 11.1605 25.0343 8.71643 21.641 7.42162C21.6354 7.41925 21.6297 7.41688 21.6241 7.4145L17.6469 5.8003C17.1967 5.61776 16.6845 5.8345 16.5019 6.28423C16.3194 6.73414 16.536 7.24672 16.9859 7.42927L20.9269 9.0287C20.9447 9.03688 20.9629 9.04444 20.9814 9.05147C24.0126 10.1994 26.575 12.3781 28.1962 15.1863C30.0834 18.4551 30.5812 22.2653 29.5979 25.9152C28.6908 29.282 26.6231 32.1396 23.735 34.049L22.2598 31.494L25.4579 19.5588C25.5836 19.0898 25.3053 18.6079 24.8363 18.4822C24.3671 18.3566 23.8855 18.6349 23.7599 19.1038L21.0169 29.3411L17.7626 23.7046L19.9813 15.4246C20.107 14.9556 19.8288 14.4737 19.3598 14.348C18.8907 14.2223 18.409 14.5007 18.2833 14.9696L16.5197 21.5515L13.9544 17.1084L15.2906 12.1219C15.4163 11.6529 15.138 11.171 14.6691 11.0454C14.1999 10.9198 13.7183 11.198 13.5926 11.6669L12.7113 14.9553L10.2811 10.7461C10.0385 10.3257 9.50083 10.1816 9.08045 10.4244C8.65998 10.6671 8.51593 11.2047 8.75877 11.6251L11.1889 15.8343L7.9006 14.9531C7.43153 14.8275 6.9498 15.1058 6.82412 15.5747C6.69844 16.0437 6.9767 16.5256 7.44568 16.6513L12.4321 17.9875L14.9973 22.4306L8.41556 20.6671C7.94648 20.5414 7.46475 20.8198 7.33907 21.2887C7.21339 21.7576 7.49165 22.2395 7.96063 22.3652L16.2405 24.5838L19.4947 30.2204L9.25764 27.4774C8.78848 27.3517 8.30683 27.6301 8.18115 28.0989C8.05547 28.5679 8.33373 29.0498 8.80271 29.1755L20.7378 32.3735L22.2128 34.9282C15.5706 38.2387 7.39611 35.8544 3.64696 29.3608C2.00815 26.5223 1.40768 23.1807 1.95621 19.9515C1.96368 19.9079 1.96763 19.8644 1.96834 19.8211L4.47823 2.35324L10.3011 4.71653C10.7513 4.89916 11.2635 4.68242 11.446 4.2326C11.6286 3.78269 11.4119 3.27011 10.9621 3.08756L4.09854 0.30178C3.84814 0.200266 3.56461 0.219426 3.33029 0.353987C3.09589 0.488547 2.93645 0.723567 2.89796 0.991282L0.211668 19.6833C0.207361 19.713 0.204724 19.7427 0.203494 19.7721C-0.379924 23.3683 0.300525 27.0808 2.12417 30.2394C5.06086 35.3261 10.4117 38.1712 15.9123 38.1711C18.3417 38.1711 20.7998 37.614 23.0923 36.452L24.1726 38.323C24.3354 38.605 24.6308 38.7626 24.9347 38.7626C25.0837 38.7626 25.2349 38.7247 25.3733 38.6448C25.7938 38.4021 25.9379 37.8645 25.695 37.4441L25.2945 36.7503C27.2367 37.7586 29.3551 38.2744 31.4989 38.2744C32.667 38.2744 33.8426 38.1217 35.0007 37.8131C38.4856 36.8845 41.3968 34.6551 43.1977 31.5357C44.7436 28.8582 45.3213 25.7114 44.8288 22.6626Z" fill="white"/>
</svg>
