<svg width="45" height="42" viewBox="0 0 45 42" fill="none" xmlns="http://www.w3.org/2000/svg">
<path d="M36.9983 38.181L36.9982 38.181C27.6206 40.0271 17.973 40.0271 8.59545 38.181L8.59541 38.181C8.41606 38.1457 8.23006 38.1727 8.06816 38.2576C7.90627 38.3424 7.77818 38.48 7.70508 38.6475C7.52831 39.0523 7.25536 39.4078 6.90995 39.6831C6.56454 39.9584 6.15713 40.1452 5.72311 40.2272C5.28909 40.3093 4.8416 40.2841 4.41953 40.1539C3.99745 40.0236 3.61357 39.7923 3.30123 39.48C2.9889 39.1676 2.75757 38.7838 2.62734 38.3617C2.49711 37.9396 2.47192 37.4921 2.55397 37.0581C2.63601 36.6241 2.82281 36.2167 3.09812 35.8713C3.37344 35.5259 3.72894 35.2529 4.13373 35.0761L4.13376 35.0761C4.31616 34.9964 4.46246 34.8518 4.54428 34.6703C4.6261 34.4889 4.63761 34.2835 4.57658 34.094L4.4814 34.1247L4.57658 34.094C2.76279 28.4636 2.76279 22.7551 4.57658 17.1248L4.57658 17.1247C4.63761 16.9353 4.6261 16.7299 4.54428 16.5484C4.46246 16.367 4.31616 16.2223 4.13376 16.1426L4.13373 16.1426C3.72894 15.9658 3.37344 15.6929 3.09813 15.3475C2.82281 15.0021 2.63601 14.5947 2.55397 14.1606C2.47192 13.7266 2.49711 13.2791 2.62734 12.8571C2.75757 12.435 2.9889 12.0511 3.30123 11.7388C3.61357 11.4264 3.99745 11.1951 4.41952 11.0649C4.8416 10.9346 5.28909 10.9095 5.72311 10.9915C6.15713 11.0735 6.56454 11.2603 6.90995 11.5357C7.25536 11.811 7.52831 12.1665 7.70508 12.5713L7.70509 12.5713C7.77827 12.7387 7.90637 12.8762 8.06823 12.961C8.23008 13.0458 8.41603 13.0729 8.59536 13.0378L8.59545 13.0378C17.973 11.1916 27.6206 11.1916 36.9982 13.0378L36.9983 13.0378C37.1777 13.0729 37.3636 13.0458 37.5255 12.961C37.6873 12.8762 37.8154 12.7387 37.8886 12.5713L37.8886 12.5713C38.0654 12.1665 38.3383 11.811 38.6837 11.5357C39.0291 11.2603 39.4366 11.0735 39.8706 10.9915C40.3046 10.9095 40.7521 10.9346 41.1742 11.0649C41.5962 11.1951 41.9801 11.4264 42.2924 11.7388C42.6048 12.0511 42.8361 12.435 42.9663 12.8571C43.0966 13.2791 43.1218 13.7266 43.0397 14.1606C42.9577 14.5947 42.7709 15.0021 42.4956 15.3475C42.2202 15.6929 41.8647 15.9658 41.4599 16.1426L41.4599 16.1426C41.2775 16.2223 41.1312 16.367 41.0494 16.5484C40.9676 16.7299 40.9561 16.9353 41.0171 17.1247C42.8309 22.7551 42.8309 28.4636 41.0171 34.094C40.9561 34.2835 40.9676 34.4889 41.0494 34.6703C41.1312 34.8518 41.2775 34.9964 41.4599 35.0761L41.46 35.0762C42.0313 35.3253 42.4994 35.7636 42.7855 36.3174C43.0716 36.8711 43.1583 37.5065 43.031 38.1167C42.9036 38.7268 42.57 39.2745 42.0863 39.6676C41.6026 40.0607 40.9983 40.2752 40.375 40.275C39.8472 40.2749 39.3308 40.1209 38.8892 39.8318C38.4476 39.5427 38.0999 39.1312 37.8886 38.6475C37.8155 38.48 37.6874 38.3424 37.5255 38.2576C37.3636 38.1727 37.1776 38.1457 36.9983 38.181ZM44.0387 35.2766C43.7077 34.7458 43.2655 34.2935 42.743 33.9508C44.3985 28.4123 44.3985 22.8064 42.743 17.268C43.2655 16.9252 43.7077 16.4729 44.0387 15.9422C44.3832 15.3899 44.5983 14.7668 44.6681 14.1197C44.7379 13.4725 44.6604 12.8179 44.4416 12.2049C44.2228 11.5918 43.8682 11.0362 43.4044 10.5795C42.9405 10.1228 42.3795 9.77683 41.7632 9.56749C41.1468 9.35815 40.4911 9.29084 39.8451 9.37059C39.1991 9.45034 38.5794 9.67509 38.0325 10.028C37.505 10.3684 37.0583 10.8196 36.7233 11.3498C27.52 9.6131 18.073 9.6131 8.8697 11.3498C8.53465 10.8196 8.08796 10.3684 7.56047 10.028C7.01354 9.67509 6.3939 9.45034 5.74788 9.37059C5.10186 9.29084 4.44617 9.35815 3.82982 9.56749C3.21348 9.77683 2.65243 10.1228 2.18861 10.5795C1.7248 11.0362 1.37022 11.5918 1.15138 12.2049C0.932545 12.8179 0.855113 13.4725 0.924875 14.1197C0.994636 14.7668 1.20979 15.3899 1.55424 15.9422C1.88525 16.4729 2.32744 16.9252 2.84997 17.268C1.19449 22.8064 1.19449 28.4123 2.84997 33.9508C2.32744 34.2935 1.88525 34.7458 1.55424 35.2766C1.20979 35.8289 0.994636 36.4519 0.924875 37.0991C0.855113 37.7463 0.932545 38.4008 1.15138 39.0139C1.37022 39.6269 1.7248 40.1826 2.18861 40.6393C2.65243 41.096 3.21348 41.4419 3.82982 41.6513C4.44617 41.8606 5.10186 41.9279 5.74788 41.8482C6.3939 41.7684 7.01354 41.5437 7.56047 41.1907C8.08796 40.8503 8.53465 40.3992 8.8697 39.8689C18.073 41.6057 27.52 41.6057 36.7233 39.8689C37.0583 40.3992 37.505 40.8503 38.0325 41.1907C38.5794 41.5437 39.1991 41.7684 39.8451 41.8482C40.4911 41.9279 41.1468 41.8606 41.7632 41.6513C42.3795 41.4419 42.9405 41.096 43.4044 40.6393C43.8682 40.1826 44.2228 39.6269 44.4416 39.0139C44.6604 38.4008 44.7379 37.7463 44.6681 37.0991C44.5983 36.4519 44.3832 35.8289 44.0387 35.2766Z" fill="white" stroke="white" stroke-width="0.2"/>
<path d="M34.04 35.8969V35.8874L33.9248 35.9051C27.9419 36.8259 21.868 37.0008 15.8421 36.4259C15.7372 36.4158 15.6312 36.4265 15.5303 36.4574C15.4295 36.4882 15.3357 36.5387 15.2543 36.6058C15.173 36.6729 15.1056 36.7554 15.0561 36.8485C15.0067 36.9417 14.976 37.0437 14.9659 37.1487C14.9559 37.2537 14.9666 37.3596 14.9974 37.4605C15.0283 37.5613 15.0787 37.6551 15.1459 37.7365C15.213 37.8178 15.2955 37.8852 15.3886 37.9347C15.4818 37.9841 15.5837 38.0148 15.6887 38.0249C18.0423 38.2506 20.4053 38.3634 22.7776 38.3634H22.7776C26.5912 38.3629 30.3992 38.0719 34.1686 37.4929L34.1695 37.4927C34.3784 37.4586 34.5655 37.3434 34.6899 37.1722C34.8144 37.0009 34.8662 36.7874 34.834 36.5782C34.8019 36.3689 34.6885 36.1808 34.5184 36.0548C34.3792 35.9516 34.2112 35.8969 34.04 35.8969Z" fill="white" stroke="white" stroke-width="0.2"/>
<path d="M24.9063 14.4594H26.0477L24.2793 16.6699C24.1847 16.788 24.1255 16.9305 24.1083 17.0808C24.0911 17.2311 24.1168 17.3833 24.1823 17.5196C24.2478 17.656 24.3506 17.7711 24.4786 17.8517C24.6067 17.9323 24.7549 17.975 24.9063 17.975H27.7187C27.9318 17.975 28.136 17.8904 28.2866 17.7398C28.4373 17.5892 28.5219 17.3849 28.5219 17.1719C28.5219 16.9589 28.4373 16.7546 28.2866 16.604C28.136 16.4534 27.9318 16.3688 27.7187 16.3688H26.5773L28.3457 14.1582C28.4403 14.0401 28.4995 13.8977 28.5167 13.7473C28.5339 13.597 28.5082 13.4449 28.4427 13.3085C28.3772 13.1721 28.2744 13.057 28.1464 12.9764C28.0183 12.8959 27.8701 12.8531 27.7187 12.8531H24.9063C24.6932 12.8531 24.489 12.9377 24.3384 13.0884C24.1877 13.239 24.1031 13.4432 24.1031 13.6562C24.1031 13.8693 24.1877 14.0735 24.3384 14.2241C24.489 14.3748 24.6932 14.4594 24.9063 14.4594Z" fill="white" stroke="white" stroke-width="0.2"/>
<path d="M31.2344 6.02188H32.3759L30.6074 8.23242C30.5129 8.35054 30.4536 8.49296 30.4364 8.6433C30.4193 8.79363 30.4449 8.94575 30.5104 9.08214C30.576 9.21853 30.6787 9.33363 30.8068 9.41419C30.9348 9.49476 31.0831 9.5375 31.2344 9.5375H34.0469C34.2599 9.5375 34.4642 9.45289 34.6148 9.30227C34.7654 9.15165 34.85 8.94738 34.85 8.73438C34.85 8.52137 34.7654 8.3171 34.6148 8.16648C34.4642 8.01587 34.2599 7.93125 34.0469 7.93125H32.9054L34.6738 5.7207C34.7684 5.60259 34.8277 5.46016 34.8448 5.30983C34.862 5.1595 34.8363 5.00737 34.7708 4.87099C34.7053 4.7346 34.6026 4.61949 34.4745 4.53893C34.3464 4.45837 34.1982 4.41562 34.0469 4.41562H31.2344C31.0214 4.41562 30.8171 4.50024 30.6665 4.65086C30.5159 4.80147 30.4313 5.00575 30.4313 5.21875C30.4313 5.43175 30.5159 5.63603 30.6665 5.78664C30.8171 5.93726 31.0214 6.02188 31.2344 6.02188Z" fill="white" stroke="white" stroke-width="0.2"/>
<path d="M22.7969 2.50625H23.9384L22.1699 4.7168C22.0754 4.83491 22.0161 4.97734 21.9989 5.12767C21.9818 5.278 22.0074 5.43013 22.0729 5.56651C22.1385 5.7029 22.2412 5.81801 22.3693 5.89857C22.4973 5.97913 22.6456 6.02187 22.7969 6.02187H25.6094C25.8224 6.02187 26.0267 5.93726 26.1773 5.78664C26.3279 5.63603 26.4125 5.43175 26.4125 5.21875C26.4125 5.00575 26.3279 4.80147 26.1773 4.65086C26.0267 4.50024 25.8224 4.41563 25.6094 4.41563H24.4679L26.2363 2.20508C26.3309 2.08696 26.3902 1.94454 26.4073 1.7942C26.4245 1.64387 26.3988 1.49175 26.3333 1.35536C26.2678 1.21897 26.1651 1.10387 26.037 1.02331C25.9089 0.942743 25.7607 0.9 25.6094 0.9H22.7969C22.5839 0.9 22.3796 0.984615 22.229 1.13523C22.0784 1.28585 21.9938 1.49012 21.9938 1.70312C21.9938 1.91613 22.0784 2.1204 22.229 2.27102C22.3796 2.42164 22.5839 2.50625 22.7969 2.50625Z" fill="white" stroke="white" stroke-width="0.2"/>
</svg>
