<svg width="46" height="47" viewBox="0 0 46 47" fill="none" xmlns="http://www.w3.org/2000/svg">
<path d="M46 3.03226H44.4667V4.54839H46V3.03226Z" fill="white"/>
<path d="M44.4667 1.51614H42.9333V3.03227H44.4667V1.51614Z" fill="white"/>
<path d="M42.9334 3.03226H41.4V4.54839H42.9334V3.03226Z" fill="white"/>
<path d="M44.4667 4.5484H42.9333V6.06453H44.4667V4.5484Z" fill="white"/>
<path d="M39.8667 3.03226H38.3334V4.54839H39.8667V3.03226Z" fill="white"/>
<path d="M38.3334 18.1935H36.8V19.7097H38.3334V18.1935Z" fill="white"/>
<path d="M41.4 18.1935H39.8667V19.7097H41.4V18.1935Z" fill="white"/>
<path d="M39.8667 16.6774H38.3334V18.1936H39.8667V16.6774Z" fill="white"/>
<path d="M39.8667 19.7097H38.3334V21.2258H39.8667V19.7097Z" fill="white"/>
<path d="M9.96668 15.9193H8.43335V17.4355H9.96668V15.9193Z" fill="white"/>
<path d="M8.43336 14.4032H6.90002V15.9194H8.43336V14.4032Z" fill="white"/>
<path d="M6.90003 15.9193H5.3667V17.4355H6.90003V15.9193Z" fill="white"/>
<path d="M8.43336 17.4355H6.90002V18.9516H8.43336V17.4355Z" fill="white"/>
<path d="M3.83338 15.9193H2.30005V17.4355H3.83338V15.9193Z" fill="white"/>
<path d="M1.53333 6.06451H0V7.58064H1.53333V6.06451Z" fill="white"/>
<path d="M4.59998 6.06451H3.06665V7.58064H4.59998V6.06451Z" fill="white"/>
<path d="M3.06666 4.5484H1.53333V6.06453H3.06666V4.5484Z" fill="white"/>
<path d="M3.06666 7.58066H1.53333V9.09679H3.06666V7.58066Z" fill="white"/>
<path d="M12.2666 1.51614H10.7333V3.03227H12.2666V1.51614Z" fill="white"/>
<path d="M39.1 35.629H37.2446L34.5 30.879V22.7419C34.5 21.0697 33.1246 19.7097 31.4333 19.7097V10.6129V9.85409C31.4333 5.02295 27.8867 1.51614 23 1.51614C17.7284 1.51614 14.7207 5.79769 14.5666 9.82605C14.5666 9.8359 14.572 9.845 14.572 9.85485H14.5666V19.7097C12.8754 19.7097 11.5 21.0697 11.5 22.7419V30.879L8.75531 35.629H6.89998C5.63191 35.629 4.59998 36.6494 4.59998 37.9032C4.59998 38.888 5.23938 39.7196 6.12641 40.0357C5.64724 40.58 5.36664 41.2706 5.36664 42.0006C5.36664 43.4993 6.49901 44.7819 8.00091 44.9851L22.8965 46.9932C22.931 46.9977 22.9655 47 23 47C23.0345 47 23.069 46.9977 23.1035 46.9932L37.999 44.9851C39.5009 44.7819 40.6333 43.4993 40.6333 42.0006C40.6333 41.2698 40.3527 40.5792 39.8735 40.0357C40.7606 39.7196 41.4 38.888 41.4 37.9032C41.4 36.6494 40.368 35.629 39.1 35.629ZM32.9666 22.7419V31.0807C32.9666 31.2126 33.0011 31.3422 33.0678 31.4567L36.1345 36.7631C36.271 36.9996 36.5247 37.1452 36.8 37.1452H39.1C39.5224 37.1452 39.8666 37.4848 39.8666 37.9032C39.8666 38.3217 39.5224 38.6613 39.1 38.6613H34.8611L29.9812 32.8204L32.052 21.3547C32.5902 21.5897 32.9666 22.1241 32.9666 22.7419ZM18.1577 23.4606L22.7577 24.9767C22.8367 25.0025 22.9179 25.0161 23 25.0161C23.082 25.0161 23.1633 25.0025 23.2422 24.9767L27.8422 23.4606C28.1558 23.3583 28.3666 23.0687 28.3666 22.7419V21.2258H30.4512L27.0012 34.871H18.9987L15.5487 21.2258H17.6333V22.7419C17.6333 23.0687 17.8441 23.3583 18.1577 23.4606ZM21.0626 8.98308C21.0634 8.98232 21.0641 8.98232 21.0649 8.98156C21.301 8.85497 21.5341 8.72306 21.7626 8.58282C21.8124 8.5525 21.8615 8.52066 21.9113 8.48958C22.1114 8.36374 22.31 8.23714 22.5039 8.10069C22.6174 8.02185 22.7263 7.93619 22.8374 7.85356C22.9647 7.7588 23.0958 7.66935 23.22 7.57005C23.2422 7.64509 23.2798 7.71408 23.3051 7.78837C23.3733 7.98319 23.44 8.17953 23.5305 8.36374C23.5405 8.38421 23.5543 8.40164 23.5642 8.42135C24.0626 9.41063 24.8599 10.2271 25.8435 10.7471C25.8474 10.7494 25.852 10.7501 25.8558 10.7524C26.1034 10.8828 26.3618 10.995 26.6301 11.0859C26.7083 11.1125 26.7927 11.1239 26.8724 11.1466C27.071 11.2035 27.268 11.2633 27.475 11.2974C27.7648 11.346 28.063 11.371 28.3666 11.371H28.7063C28.0247 13.1805 26.5949 14.7125 24.9948 15.4494C24.9902 15.4516 24.9849 15.4516 24.9795 15.4539C24.6452 15.6063 24.3179 15.72 23.9943 15.7966C23.9867 15.7981 23.9798 15.8004 23.9721 15.8026C22.9885 16.0316 22.037 15.9163 21.0204 15.4539C20.9928 15.441 20.9637 15.4365 20.9353 15.4274C19.0662 14.548 17.4777 12.5899 17.01 10.4014C18.4299 10.1399 19.7953 9.66079 21.0626 8.98308ZM21.4666 20.4678V17.2255C21.6997 17.2869 21.9343 17.3354 22.1704 17.3688C22.198 17.3726 22.2256 17.3794 22.2532 17.3832C22.5016 17.4158 22.75 17.4355 23 17.4355C23.2369 17.4355 23.4738 17.4158 23.7107 17.3862C23.7697 17.3786 23.8287 17.3665 23.8878 17.3574C24.0802 17.3271 24.2711 17.2884 24.462 17.2399C24.4858 17.2339 24.5095 17.2316 24.5341 17.2255V20.4678C24.5341 20.887 24.8775 21.2258 25.3007 21.2258H26.8341V22.1954L23.0007 23.4591L19.1674 22.1954V21.2258H20.7007C21.1232 21.2258 21.4666 20.887 21.4666 20.4678ZM23 40.9256L15.3371 39.7294L18.7174 36.3871H27.2826L30.6628 39.7294L23 40.9256ZM17.5513 35.3963L13.2817 39.618L12.4253 39.5028L17.1572 33.8393L17.5513 35.3963ZM32.7182 39.618L28.4487 35.3963L28.8427 33.8385L33.5746 39.502L32.7182 39.618ZM27.6 19.7097H26.0666V16.613C27.6835 15.7435 29.0819 14.2494 29.9 12.4671V19.7097H27.6ZM23 3.03227C27.0625 3.03227 29.9 5.83711 29.9 9.85409L28.3666 9.85485C26.2529 9.85485 24.5333 8.15451 24.5333 6.06453C24.5333 5.75827 24.3462 5.48082 24.0603 5.36408C23.9736 5.32769 23.8824 5.31405 23.7919 5.31101C23.7835 5.31101 23.7751 5.30647 23.7666 5.30647C23.7513 5.30647 23.7375 5.31405 23.7229 5.3148C23.6539 5.3186 23.5865 5.33148 23.5213 5.35422C23.4975 5.3618 23.4753 5.36863 23.4523 5.37848C23.3695 5.41563 23.2913 5.46263 23.2246 5.52858C21.3325 7.40024 18.8385 8.62148 16.1897 8.98914C16.6819 5.9584 19.0739 3.03227 23 3.03227ZM16.1 12.4694C16.9126 14.2501 18.3049 15.7465 19.9333 16.6175V19.7097H18.4H16.1V12.4694ZM6.89998 37.1452H9.19998C9.47521 37.1452 9.72898 36.9996 9.86544 36.7631L12.9321 31.4567C12.9988 31.3422 13.0333 31.2126 13.0333 31.0807V22.7419C13.0333 22.1241 13.4097 21.5897 13.9479 21.3547L16.0187 32.8204L11.1389 38.6613H6.89998C6.47754 38.6613 6.13331 38.3217 6.13331 37.9032C6.13331 37.4848 6.47754 37.1452 6.89998 37.1452ZM23 45.4771L8.20791 43.4818C7.46194 43.3818 6.89998 42.745 6.89998 42.0006C6.89998 41.5692 7.08858 41.1584 7.41748 40.8748C7.69501 40.6353 8.04844 40.5057 8.41184 40.5057C8.47931 40.5057 8.54754 40.5102 8.61578 40.5201L22.7339 42.4236L26.8379 44.9601L23 45.4771ZM37.792 43.4818L29.2123 44.6386L25.2034 42.1613L37.3826 40.5186C37.8173 40.4564 38.252 40.5898 38.5817 40.8741C38.9114 41.1584 39.1 41.5692 39.1 42.0006C39.1 42.745 38.538 43.3818 37.792 43.4818Z" fill="white"/>
</svg>
