<svg width="45" height="45" viewBox="0 0 45 45" fill="none" xmlns="http://www.w3.org/2000/svg">
<g clip-path="url(#clip0)">
<path d="M8.38797 10.6045L8.40171 10.5922C9.45262 9.55603 10.7123 8.7554 12.0965 8.2435C12.7592 8.03751 13.4564 7.9685 14.1465 8.04094C14.5104 8.07047 14.8723 8.12471 15.229 8.20333C15.5967 8.28058 15.9552 8.41482 16.3524 8.49138L16.4018 8.50099C16.5282 8.52503 16.6542 8.46014 16.7077 8.34341C16.7613 8.22668 16.7283 8.08866 16.6281 8.00867C16.3019 7.73539 15.9531 7.49025 15.585 7.27636C15.1988 7.06831 14.7882 6.91004 14.3625 6.80498C13.4815 6.56465 12.5501 6.58285 11.6787 6.85682C9.97172 7.38314 8.6283 8.70802 8.07898 10.4078C8.06079 10.4706 8.07589 10.5383 8.11881 10.5877C8.18885 10.6667 8.30901 10.6739 8.38797 10.6045Z" fill="white"/>
<path d="M25.8016 6.85649C24.9306 6.58252 23.9992 6.56432 23.1182 6.80465C22.6925 6.9097 22.2816 7.06797 21.8957 7.27603C21.5276 7.48992 21.1788 7.73505 20.8526 8.00834C20.752 8.08833 20.7191 8.22669 20.7726 8.34308C20.8266 8.45981 20.9529 8.52469 21.0789 8.50066L21.1283 8.49105C21.5256 8.41449 21.884 8.28025 22.2513 8.20334C22.6081 8.12438 22.9699 8.07013 23.3342 8.04061C24.0239 7.96851 24.7215 8.03717 25.3838 8.24317C26.7684 8.75506 28.0281 9.55569 29.079 10.5922L29.0934 10.6049C29.1573 10.6605 29.2503 10.6677 29.3217 10.6217C29.3931 10.576 29.4258 10.4888 29.4021 10.4075C28.8524 8.70768 27.509 7.3828 25.802 6.85649H25.8016Z" fill="white"/>
<path d="M15.9602 18.5302C16.2541 18.8155 16.7231 18.812 17.0125 18.5223C17.3022 18.2325 17.306 17.7639 17.0207 17.4696C15.8527 16.3913 14.3298 15.7795 12.7405 15.7499C11.1509 15.7795 9.62795 16.3913 8.45997 17.4696C8.17467 17.7639 8.17844 18.2325 8.46821 18.5223C8.75763 18.812 9.22661 18.8155 9.52049 18.5302C10.4049 17.7302 11.5482 17.2757 12.7405 17.2499C13.9312 17.2825 15.072 17.7361 15.9602 18.5302Z" fill="white"/>
<path d="M24.7403 15.7499C23.1511 15.7795 21.6278 16.3913 20.4601 17.4696C20.1748 17.7639 20.1783 18.2325 20.468 18.5223C20.7578 18.812 21.2264 18.8155 21.5207 18.5302C22.4051 17.7302 23.548 17.2757 24.7403 17.2499C25.9313 17.2825 27.0722 17.7361 27.96 18.5302C28.2542 18.8155 28.7229 18.812 29.0126 18.5223C29.3024 18.2325 29.3058 17.7639 29.0205 17.4696C27.8529 16.3913 26.3296 15.7795 24.7403 15.7499Z" fill="white"/>
<path d="M24.7401 22.5H12.7403C11.9122 22.501 11.2414 23.1719 11.24 24V24.7501C11.2465 28.1961 13.5986 31.1953 16.944 32.0234C16.9553 32.0282 16.9683 32.0286 16.98 32.0327C18.9057 32.5082 20.9416 32.1965 22.6369 31.1668C24.3323 30.1372 25.5473 28.4745 26.0135 26.5464C26.0187 26.5351 26.0187 26.5213 26.0231 26.5097C26.1649 25.9339 26.238 25.3431 26.2401 24.7501V24C26.2391 23.1719 25.5682 22.501 24.7401 22.5ZM12.7403 24.7501V24H24.7401V24.7501C24.7384 25.0008 24.7209 25.2514 24.6879 25.5H20.99C18.5061 25.5027 16.4928 27.5159 16.4901 29.9999V30.3082C14.2262 29.3905 12.7434 27.1929 12.7403 24.7501ZM18.7402 30.75C18.4893 30.7483 18.239 30.7308 17.9901 30.6979V29.9999C17.9918 28.3437 19.3338 27.0017 20.99 26.9999H24.2983C23.3806 29.2641 21.183 30.7466 18.7402 30.75Z" fill="white"/>
<path d="M41.9901 10.4998C41.9901 7.80539 37.7789 3.03423 37.2982 2.49899C37.1523 2.34724 36.9508 2.26175 36.7403 2.26175C36.5295 2.26175 36.328 2.34724 36.1821 2.49899C36.0554 2.6401 35.6664 3.08058 35.1665 3.69513C31.469 1.25273 26.9632 -5.54349e-05 21.7402 -5.54349e-05C14.6788 -0.00520528 8.08799 3.54166 4.20227 9.43823C0.316883 15.3345 -0.34264 22.7901 2.44754 29.2768C1.99539 29.97 1.49311 30.6291 0.944477 31.2488C-0.425724 32.7941 -0.289082 35.1565 1.25038 36.5336C2.78984 37.9107 5.15293 37.784 6.53652 36.2504C6.65668 36.1154 6.76757 35.973 6.88499 35.8356C7.54623 36.4976 8.25142 37.1148 8.99505 37.6834C7.58297 38.6653 6.74079 40.2758 6.74011 41.9955V42.7471C6.74079 43.9899 7.74742 44.9979 8.99025 44.9999H30.7401C31.9822 44.9986 32.9888 43.9919 32.9902 42.7498V38.7195C33.0802 38.6615 33.1688 38.6014 33.2587 38.542C33.337 38.6265 33.4036 38.7185 33.4911 38.7968C35.0351 40.1745 37.4026 40.043 38.7845 38.5026C42.719 34.0974 44.9238 28.4157 44.99 22.5096C44.944 18.5188 43.899 14.6028 41.9503 11.1198C41.9757 10.9142 41.9891 10.7072 41.9901 10.4998ZM36.7403 4.14385C38.378 6.08637 40.4901 9.06882 40.4901 10.4998C40.4901 12.5711 38.8113 14.2499 36.7403 14.2499C34.6691 14.2499 32.9902 12.5711 32.9902 10.4998C32.9902 9.07019 35.1023 6.08706 36.7403 4.14385ZM5.41729 35.2513C4.57065 36.1408 3.17813 36.2177 2.2388 35.4274C1.31664 34.5949 1.23939 33.1742 2.06508 32.2462C2.46711 31.7951 2.83756 31.3237 3.18878 30.8437C3.93001 32.2342 4.8254 33.5367 5.85846 34.7264C5.71117 34.9018 5.56835 35.081 5.41729 35.2513ZM8.24009 42.7471V41.9955C8.24043 39.9232 9.9179 38.2423 11.9902 38.2375H12.7404C14.1291 38.2382 15.4032 39.0093 16.0486 40.2394C16.0321 40.2878 16.0088 40.3397 15.9951 40.3864C15.8255 40.9048 15.7393 41.4472 15.7403 41.9928V42.7501C15.7427 43.0063 15.7894 43.26 15.8783 43.5003H8.99025C8.57517 43.4989 8.2394 43.1621 8.24009 42.7471ZM30.7401 43.5H17.9901C17.5761 43.4996 17.2403 43.1642 17.2403 42.7498V41.9924C17.2403 41.5986 17.3031 41.2076 17.426 40.8337C17.4621 40.7156 17.504 40.5996 17.552 40.4859C18.1498 39.1199 19.499 38.2365 20.9901 38.2355H21.7402C23.3947 38.2396 24.8875 39.2304 25.5343 40.7534C25.5398 40.7695 25.5528 40.7795 25.5593 40.7949C25.5576 40.8296 25.5583 40.8646 25.5621 40.8993C25.6397 41.2399 25.9425 41.4819 26.292 41.4823C26.3486 41.4823 26.4049 41.4757 26.4599 41.463C28.2108 41.0593 29.9017 40.4293 31.4902 39.5892V42.7498C31.4899 43.1642 31.1541 43.4996 30.7401 43.5ZM43.4901 22.4903C43.4286 28.0336 41.3597 33.3668 37.6673 37.5014C36.8207 38.391 35.4282 38.4679 34.4888 37.6772C33.567 36.8453 33.4891 35.4257 34.3137 34.4977C37.0651 31.4205 38.676 27.4915 38.8765 23.3686C38.8895 23.1008 38.7584 22.8467 38.5332 22.7018C38.3076 22.5569 38.022 22.5432 37.7837 22.6658C37.5458 22.7887 37.3909 23.029 37.3782 23.2968C37.1946 27.0764 35.7176 30.6782 33.1945 33.4986C32.2857 34.5269 32.0114 35.9695 32.4794 37.2597C32.2689 37.3998 32.0602 37.5457 31.8507 37.6765C30.2639 38.6354 28.5473 39.3609 26.7538 39.8309C25.7931 37.9423 23.8589 36.7482 21.7402 36.7355H20.9901C19.3785 36.7389 17.8579 37.4839 16.8674 38.7552C15.8756 37.4836 14.3533 36.7393 12.7404 36.7375H11.9902C11.4982 36.7386 11.0086 36.8089 10.5366 36.947C3.57433 32.0622 0.583301 23.2268 3.14621 15.1171C5.70945 7.0075 13.2351 1.49615 21.7402 1.49992C26.1488 1.37701 30.4963 2.55289 34.2416 4.88165C32.9446 6.61886 31.4902 8.91604 31.4902 10.4998C31.4885 12.879 33.0874 14.9613 35.3863 15.5734C37.6852 16.1852 40.108 15.1738 41.2894 13.109C42.6915 16.0407 43.4423 19.2411 43.4901 22.4903Z" fill="white"/>
</g>
<defs>
<clipPath id="clip0">
<rect width="45" height="45" fill="white"/>
</clipPath>
</defs>
</svg>
