<svg width="54" height="45" viewBox="0 0 54 45" fill="none" xmlns="http://www.w3.org/2000/svg">
<path d="M11.2351 29.7745C11.2406 31.3202 11.5878 32.8455 12.2517 34.2413C12.6502 35.1178 13.2017 35.9163 13.8804 36.5994C14.6128 37.3062 15.4734 37.8667 16.4161 38.2508C17.8648 38.878 19.4383 39.1637 21.0151 39.0859C20.2732 38.6257 19.6307 38.0219 19.1256 37.3098C18.0524 35.7529 18.3169 34.5625 17.3041 33.425C16.8696 32.9375 16.0911 32.3367 14.6097 32.0646C14.6097 32.0646 13.8539 33.4401 15.9815 35.4657" stroke="white" stroke-width="1.5" stroke-linecap="round" stroke-linejoin="round"/>
<path d="M27.4241 30.3943C25.848 30.556 24.3482 31.1541 23.0934 32.1213C23.7984 32.8089 24.7169 33.2355 25.6971 33.3306C27.7037 33.4628 28.6976 31.7169 31.3202 30.8893C32.7003 30.4675 34.1595 30.3717 35.5829 30.6097C34.4492 29.6007 32.5295 28.2214 30.0013 27.9644C26.2942 27.5865 22.9725 29.6914 19.3144 29.7897C17.1821 29.8512 15.0605 29.465 13.0867 28.656" stroke="white" stroke-width="1.5" stroke-linecap="round" stroke-linejoin="round"/>
<path d="M20.9319 18.706H48.987C49.2285 18.7064 49.4676 18.7553 49.6899 18.8499C49.9122 18.9444 50.1132 19.0827 50.281 19.2565C50.4488 19.4303 50.5799 19.636 50.6666 19.8615C50.7534 20.087 50.7939 20.3276 50.7858 20.569C50.6146 25.939 48.5197 31.0688 44.883 35.0236C43.1474 36.9096 40.924 38.2789 38.4588 38.9802C35.6194 39.79 32.6886 40.2358 29.7369 40.3066C28.7317 40.3331 27.7038 40.3368 26.6646 40.3066" stroke="white" stroke-width="1.5" stroke-linecap="round" stroke-linejoin="round"/>
<path d="M15.0745 40.9641V42.6495C15.0735 42.884 15.1189 43.1164 15.2082 43.3333C15.2975 43.5501 15.4288 43.7471 15.5947 43.913C15.7605 44.0788 15.9575 44.2101 16.1744 44.2994C16.3912 44.3887 16.6236 44.4342 16.8582 44.4332H41.7654C42 44.4342 42.2326 44.3887 42.4497 44.2995C42.6668 44.2103 42.864 44.079 43.0302 43.9132C43.1963 43.7474 43.328 43.5504 43.4177 43.3335C43.5074 43.1167 43.5533 42.8842 43.5528 42.6495V39.649" stroke="white" stroke-width="1.5" stroke-linecap="round" stroke-linejoin="round"/>
<path d="M30.0355 16.1778L45.5293 4.46301C45.5066 4.30429 45.2308 2.10871 46.6063 1.06193C48.1179 -0.0982099 50.5024 1.06193 51.6626 2.22586C53.1742 3.73745 53.9904 6.66993 52.6602 7.86408C51.587 8.82394 49.637 8.20797 49.3612 8.1135C47.5473 10.003 41.7012 16.2572 41.7012 16.2572" stroke="white" stroke-width="1.5" stroke-linecap="round" stroke-linejoin="round"/>
<path d="M45.5327 4.44788L47.7321 6.81729" stroke="white" stroke-width="1.5" stroke-linecap="round" stroke-linejoin="round"/>
<path d="M11.2351 18.7324C11.2073 18.8568 11.1535 18.974 11.0773 19.0762C11.0011 19.1784 10.9042 19.2634 10.793 19.3257C10.5996 19.4366 10.3715 19.4703 10.1543 19.4202C10.038 19.3947 9.92791 19.3465 9.83032 19.2783C9.73273 19.2101 9.64958 19.1233 9.58566 19.0228C9.52174 18.9224 9.47831 18.8103 9.45787 18.693C9.43743 18.5757 9.44038 18.4555 9.46655 18.3394C9.48064 18.27 9.5035 18.2027 9.53457 18.1391C9.61736 17.9711 9.74996 17.8326 9.91429 17.7427C10.0786 17.6528 10.2667 17.6157 10.4529 17.6365H10.5473C10.7171 17.6744 10.8724 17.7606 10.9944 17.8846C11.1164 18.0086 11.2 18.1652 11.2351 18.3356C11.2638 18.4663 11.2638 18.6017 11.2351 18.7324V18.7324Z" stroke="white" stroke-width="1.5" stroke-linecap="round" stroke-linejoin="round"/>
<path d="M9.53424 18.1391C7.93573 17.2246 4.75384 14.6662 6.53373 9.44746C7.40523 9.14392 8.33363 9.03933 9.25081 9.14136C9.78365 9.20182 11.6051 9.41345 12.7653 10.8835C13.0098 11.1976 13.2106 11.5433 13.3623 11.9113" stroke="white" stroke-width="1.5" stroke-linecap="round" stroke-linejoin="round"/>
<path d="M10.4525 17.6365C10.7699 15.8377 12.0964 11.968 17.5948 11.8735C18.1747 12.5913 18.5877 13.429 18.804 14.3261C18.925 14.8438 19.3444 16.6313 18.3543 18.2222C18.1477 18.5596 17.8931 18.8651 17.5986 19.1292" stroke="white" stroke-width="1.5" stroke-linecap="round" stroke-linejoin="round"/>
<path d="M11.2351 18.3508C13.0452 18.0825 17.1454 18.1165 18.9593 23.3126C18.4581 24.0891 17.7908 24.7448 17.0056 25.2323C16.5521 25.5081 14.9876 26.4718 13.1662 26.0334C12.7791 25.9397 12.4074 25.7908 12.0627 25.5913" stroke="white" stroke-width="1.5" stroke-linecap="round" stroke-linejoin="round"/>
<path d="M10.7927 19.3257C11.5787 20.9771 12.7615 24.8997 8.33636 28.1723C7.44843 27.9263 6.62622 27.4862 5.92916 26.8836C5.52481 26.5284 4.14548 25.3229 4.03967 23.4523C4.0146 23.0543 4.04641 22.6548 4.13415 22.2657" stroke="white" stroke-width="1.5" stroke-linecap="round" stroke-linejoin="round"/>
<path d="M4.82578 13.8198C4.43662 13.8637 4.05523 13.9603 3.69209 14.107C1.96132 14.8212 1.25465 16.5142 1.04681 17.0092C0.695053 17.8619 0.538808 18.7826 0.589551 19.7036C5.09787 22.8515 8.44603 20.4821 9.75734 19.2086" stroke="white" stroke-width="1.5" stroke-linecap="round" stroke-linejoin="round"/>
</svg>
