<svg width="47" height="43" viewBox="0 0 47 43" fill="none" xmlns="http://www.w3.org/2000/svg">
<mask id="path-1-outside-1" maskUnits="userSpaceOnUse" x="15.7469" y="1.33514e-05" width="31" height="43" fill="black">
<rect fill="white" x="15.7469" y="1.33514e-05" width="31" height="43"/>
<path d="M44.0357 7.99961C42.4537 7.99961 41.101 8.99752 40.5721 10.3967C40.4052 10.4592 40.2449 10.5331 40.0916 10.617C40.2096 9.37395 40.1191 8.17768 39.8099 7.06955C39.1525 4.71391 37.5877 2.92094 35.2847 1.88453C30.367 -0.328291 26.49 2.10997 24.6168 3.76047C23.9802 4.32147 23.0199 4.32147 22.3832 3.76047C21.3504 2.85054 19.673 1.66823 17.5471 1.2032C17.1917 1.12533 16.8401 1.35068 16.7623 1.70629C16.6845 2.06189 16.9098 2.41328 17.2654 2.49106C19.1156 2.89571 20.5957 3.94267 21.5117 4.74959C22.6453 5.74847 24.3549 5.74847 25.4885 4.74959C27.4857 2.98976 30.7126 1.27272 34.7439 3.08687C36.6786 3.95752 37.9913 5.45728 38.5401 7.42401C39.3164 10.2064 38.4888 13.6798 36.2707 16.9855C36.1331 16.9725 35.9942 16.9656 35.8543 16.9656C34.6884 16.9656 33.5923 17.4196 32.7679 18.2441L27.1552 23.8567C26.6154 24.3966 26.217 25.0398 25.9763 25.7413C25.4427 26.023 24.8908 26.2986 24.3331 26.5606C23.8038 26.8094 23.1966 26.8094 22.6673 26.5606C22.1094 26.2985 21.5574 26.0229 21.0241 25.7414C20.7835 25.0398 20.3851 24.3967 19.8452 23.8567L17.9614 21.9729C17.704 21.7155 17.2866 21.7155 17.0292 21.9729C16.7718 22.2303 16.7718 22.6477 17.0292 22.9051L18.9131 24.7889C19.5966 25.4724 19.973 26.3812 19.973 27.3478V29.4633C19.973 29.8273 20.2682 30.1225 20.6322 30.1225C20.9963 30.1225 21.2914 29.8273 21.2914 29.4633V27.3593C21.5611 27.4932 21.8332 27.6252 22.1068 27.7538C22.5496 27.9619 23.025 28.066 23.5004 28.066C23.9757 28.066 24.4512 27.9619 24.8939 27.7538C25.1674 27.6253 25.4395 27.4933 25.7092 27.3593V34.0073C24.9687 34.3779 24.4587 35.1435 24.4587 36.0263V41.364C24.4587 41.7281 24.7539 42.0232 25.1179 42.0232C25.4819 42.0232 25.7771 41.7281 25.7771 41.364V36.0263C25.7771 35.5089 26.198 35.088 26.7154 35.088H28.5662V41.1992C28.5662 41.5633 28.8613 41.8584 29.2254 41.8584C29.5894 41.8584 29.8846 41.5633 29.8846 41.1992V35.088H33.0331V41.1992C33.0331 41.5633 33.3282 41.8584 33.6922 41.8584C34.0563 41.8584 34.3514 41.5633 34.3514 41.1992V35.088H36.2021C36.7195 35.088 37.1405 35.5089 37.1405 36.0263V41.364C37.1405 41.7281 37.4356 42.0232 37.7996 42.0232C38.1637 42.0232 38.4588 41.7281 38.4588 41.364V36.0263C38.4588 34.782 37.4464 33.7697 36.2021 33.7697H35.7138V29.1417C35.7138 28.6498 35.9054 28.1872 36.2533 27.8393L45.3617 18.731C45.7735 18.3191 46.0004 17.7716 46.0004 17.1892V9.96388C46 8.8808 45.1188 7.99961 44.0357 7.99961ZM40.334 12.0421V15.7165L39.4916 16.5589V13.8621C39.4916 13.143 39.8103 12.4848 40.334 12.0421ZM38.1733 16.4071V17.6322C37.9947 17.5197 37.8087 17.4209 37.6166 17.3361C37.8133 17.0276 37.9988 16.7178 38.1733 16.4071ZM44.6816 17.1892C44.6816 17.4195 44.5919 17.6359 44.4291 17.7988L35.3208 26.9072C34.7239 27.504 34.3952 28.2976 34.3952 29.1417V33.7697H27.0273V27.3478C27.0273 26.3811 27.4038 25.4724 28.0873 24.7889L33.7 19.1762C34.2754 18.6008 35.0404 18.284 35.8542 18.284C36.668 18.284 37.433 18.6008 38.0084 19.1763C38.1299 19.2978 38.1968 19.4593 38.1968 19.6311C38.1968 19.803 38.1299 19.9644 38.0084 20.086L32.4199 25.6744C32.1625 25.9318 32.1625 26.3492 32.4199 26.6066C32.6774 26.864 33.0948 26.864 33.3521 26.6066L38.9405 21.0181C39.3111 20.6476 39.5152 20.155 39.5152 19.6311C39.5152 19.2841 39.424 18.9519 39.2561 18.6589L41.4594 16.4556C41.5831 16.332 41.6525 16.1643 41.6525 15.9895V11.7013C41.6525 10.3871 42.7217 9.31797 44.0358 9.31797C44.392 9.31797 44.6817 9.60766 44.6817 9.96388V17.1892H44.6816Z"/>
</mask>
<path d="M44.0357 7.99961C42.4537 7.99961 41.101 8.99752 40.5721 10.3967C40.4052 10.4592 40.2449 10.5331 40.0916 10.617C40.2096 9.37395 40.1191 8.17768 39.8099 7.06955C39.1525 4.71391 37.5877 2.92094 35.2847 1.88453C30.367 -0.328291 26.49 2.10997 24.6168 3.76047C23.9802 4.32147 23.0199 4.32147 22.3832 3.76047C21.3504 2.85054 19.673 1.66823 17.5471 1.2032C17.1917 1.12533 16.8401 1.35068 16.7623 1.70629C16.6845 2.06189 16.9098 2.41328 17.2654 2.49106C19.1156 2.89571 20.5957 3.94267 21.5117 4.74959C22.6453 5.74847 24.3549 5.74847 25.4885 4.74959C27.4857 2.98976 30.7126 1.27272 34.7439 3.08687C36.6786 3.95752 37.9913 5.45728 38.5401 7.42401C39.3164 10.2064 38.4888 13.6798 36.2707 16.9855C36.1331 16.9725 35.9942 16.9656 35.8543 16.9656C34.6884 16.9656 33.5923 17.4196 32.7679 18.2441L27.1552 23.8567C26.6154 24.3966 26.217 25.0398 25.9763 25.7413C25.4427 26.023 24.8908 26.2986 24.3331 26.5606C23.8038 26.8094 23.1966 26.8094 22.6673 26.5606C22.1094 26.2985 21.5574 26.0229 21.0241 25.7414C20.7835 25.0398 20.3851 24.3967 19.8452 23.8567L17.9614 21.9729C17.704 21.7155 17.2866 21.7155 17.0292 21.9729C16.7718 22.2303 16.7718 22.6477 17.0292 22.9051L18.9131 24.7889C19.5966 25.4724 19.973 26.3812 19.973 27.3478V29.4633C19.973 29.8273 20.2682 30.1225 20.6322 30.1225C20.9963 30.1225 21.2914 29.8273 21.2914 29.4633V27.3593C21.5611 27.4932 21.8332 27.6252 22.1068 27.7538C22.5496 27.9619 23.025 28.066 23.5004 28.066C23.9757 28.066 24.4512 27.9619 24.8939 27.7538C25.1674 27.6253 25.4395 27.4933 25.7092 27.3593V34.0073C24.9687 34.3779 24.4587 35.1435 24.4587 36.0263V41.364C24.4587 41.7281 24.7539 42.0232 25.1179 42.0232C25.4819 42.0232 25.7771 41.7281 25.7771 41.364V36.0263C25.7771 35.5089 26.198 35.088 26.7154 35.088H28.5662V41.1992C28.5662 41.5633 28.8613 41.8584 29.2254 41.8584C29.5894 41.8584 29.8846 41.5633 29.8846 41.1992V35.088H33.0331V41.1992C33.0331 41.5633 33.3282 41.8584 33.6922 41.8584C34.0563 41.8584 34.3514 41.5633 34.3514 41.1992V35.088H36.2021C36.7195 35.088 37.1405 35.5089 37.1405 36.0263V41.364C37.1405 41.7281 37.4356 42.0232 37.7996 42.0232C38.1637 42.0232 38.4588 41.7281 38.4588 41.364V36.0263C38.4588 34.782 37.4464 33.7697 36.2021 33.7697H35.7138V29.1417C35.7138 28.6498 35.9054 28.1872 36.2533 27.8393L45.3617 18.731C45.7735 18.3191 46.0004 17.7716 46.0004 17.1892V9.96388C46 8.8808 45.1188 7.99961 44.0357 7.99961ZM40.334 12.0421V15.7165L39.4916 16.5589V13.8621C39.4916 13.143 39.8103 12.4848 40.334 12.0421ZM38.1733 16.4071V17.6322C37.9947 17.5197 37.8087 17.4209 37.6166 17.3361C37.8133 17.0276 37.9988 16.7178 38.1733 16.4071ZM44.6816 17.1892C44.6816 17.4195 44.5919 17.6359 44.4291 17.7988L35.3208 26.9072C34.7239 27.504 34.3952 28.2976 34.3952 29.1417V33.7697H27.0273V27.3478C27.0273 26.3811 27.4038 25.4724 28.0873 24.7889L33.7 19.1762C34.2754 18.6008 35.0404 18.284 35.8542 18.284C36.668 18.284 37.433 18.6008 38.0084 19.1763C38.1299 19.2978 38.1968 19.4593 38.1968 19.6311C38.1968 19.803 38.1299 19.9644 38.0084 20.086L32.4199 25.6744C32.1625 25.9318 32.1625 26.3492 32.4199 26.6066C32.6774 26.864 33.0948 26.864 33.3521 26.6066L38.9405 21.0181C39.3111 20.6476 39.5152 20.155 39.5152 19.6311C39.5152 19.2841 39.424 18.9519 39.2561 18.6589L41.4594 16.4556C41.5831 16.332 41.6525 16.1643 41.6525 15.9895V11.7013C41.6525 10.3871 42.7217 9.31797 44.0358 9.31797C44.392 9.31797 44.6817 9.60766 44.6817 9.96388V17.1892H44.6816Z" fill="white"/>
<path d="M44.0357 7.99961C42.4537 7.99961 41.101 8.99752 40.5721 10.3967C40.4052 10.4592 40.2449 10.5331 40.0916 10.617C40.2096 9.37395 40.1191 8.17768 39.8099 7.06955C39.1525 4.71391 37.5877 2.92094 35.2847 1.88453C30.367 -0.328291 26.49 2.10997 24.6168 3.76047C23.9802 4.32147 23.0199 4.32147 22.3832 3.76047C21.3504 2.85054 19.673 1.66823 17.5471 1.2032C17.1917 1.12533 16.8401 1.35068 16.7623 1.70629C16.6845 2.06189 16.9098 2.41328 17.2654 2.49106C19.1156 2.89571 20.5957 3.94267 21.5117 4.74959C22.6453 5.74847 24.3549 5.74847 25.4885 4.74959C27.4857 2.98976 30.7126 1.27272 34.7439 3.08687C36.6786 3.95752 37.9913 5.45728 38.5401 7.42401C39.3164 10.2064 38.4888 13.6798 36.2707 16.9855C36.1331 16.9725 35.9942 16.9656 35.8543 16.9656C34.6884 16.9656 33.5923 17.4196 32.7679 18.2441L27.1552 23.8567C26.6154 24.3966 26.217 25.0398 25.9763 25.7413C25.4427 26.023 24.8908 26.2986 24.3331 26.5606C23.8038 26.8094 23.1966 26.8094 22.6673 26.5606C22.1094 26.2985 21.5574 26.0229 21.0241 25.7414C20.7835 25.0398 20.3851 24.3967 19.8452 23.8567L17.9614 21.9729C17.704 21.7155 17.2866 21.7155 17.0292 21.9729C16.7718 22.2303 16.7718 22.6477 17.0292 22.9051L18.9131 24.7889C19.5966 25.4724 19.973 26.3812 19.973 27.3478V29.4633C19.973 29.8273 20.2682 30.1225 20.6322 30.1225C20.9963 30.1225 21.2914 29.8273 21.2914 29.4633V27.3593C21.5611 27.4932 21.8332 27.6252 22.1068 27.7538C22.5496 27.9619 23.025 28.066 23.5004 28.066C23.9757 28.066 24.4512 27.9619 24.8939 27.7538C25.1674 27.6253 25.4395 27.4933 25.7092 27.3593V34.0073C24.9687 34.3779 24.4587 35.1435 24.4587 36.0263V41.364C24.4587 41.7281 24.7539 42.0232 25.1179 42.0232C25.4819 42.0232 25.7771 41.7281 25.7771 41.364V36.0263C25.7771 35.5089 26.198 35.088 26.7154 35.088H28.5662V41.1992C28.5662 41.5633 28.8613 41.8584 29.2254 41.8584C29.5894 41.8584 29.8846 41.5633 29.8846 41.1992V35.088H33.0331V41.1992C33.0331 41.5633 33.3282 41.8584 33.6922 41.8584C34.0563 41.8584 34.3514 41.5633 34.3514 41.1992V35.088H36.2021C36.7195 35.088 37.1405 35.5089 37.1405 36.0263V41.364C37.1405 41.7281 37.4356 42.0232 37.7996 42.0232C38.1637 42.0232 38.4588 41.7281 38.4588 41.364V36.0263C38.4588 34.782 37.4464 33.7697 36.2021 33.7697H35.7138V29.1417C35.7138 28.6498 35.9054 28.1872 36.2533 27.8393L45.3617 18.731C45.7735 18.3191 46.0004 17.7716 46.0004 17.1892V9.96388C46 8.8808 45.1188 7.99961 44.0357 7.99961ZM40.334 12.0421V15.7165L39.4916 16.5589V13.8621C39.4916 13.143 39.8103 12.4848 40.334 12.0421ZM38.1733 16.4071V17.6322C37.9947 17.5197 37.8087 17.4209 37.6166 17.3361C37.8133 17.0276 37.9988 16.7178 38.1733 16.4071ZM44.6816 17.1892C44.6816 17.4195 44.5919 17.6359 44.4291 17.7988L35.3208 26.9072C34.7239 27.504 34.3952 28.2976 34.3952 29.1417V33.7697H27.0273V27.3478C27.0273 26.3811 27.4038 25.4724 28.0873 24.7889L33.7 19.1762C34.2754 18.6008 35.0404 18.284 35.8542 18.284C36.668 18.284 37.433 18.6008 38.0084 19.1763C38.1299 19.2978 38.1968 19.4593 38.1968 19.6311C38.1968 19.803 38.1299 19.9644 38.0084 20.086L32.4199 25.6744C32.1625 25.9318 32.1625 26.3492 32.4199 26.6066C32.6774 26.864 33.0948 26.864 33.3521 26.6066L38.9405 21.0181C39.3111 20.6476 39.5152 20.155 39.5152 19.6311C39.5152 19.2841 39.424 18.9519 39.2561 18.6589L41.4594 16.4556C41.5831 16.332 41.6525 16.1643 41.6525 15.9895V11.7013C41.6525 10.3871 42.7217 9.31797 44.0358 9.31797C44.392 9.31797 44.6817 9.60766 44.6817 9.96388V17.1892H44.6816Z" stroke="white" stroke-width="0.4" mask="url(#path-1-outside-1)"/>
<path d="M12.2566 3.08752L12.2973 3.17798C10.395 4.03397 9.10515 5.50432 8.56159 7.43164C7.79115 10.1636 8.59129 13.5988 10.7807 16.8824C12.0421 16.7798 13.3396 17.2099 14.3029 18.1732L15.799 19.6692C16.0955 19.9657 16.0955 20.4463 15.799 20.7428C15.5025 21.0393 15.0218 21.0393 14.7254 20.7428C14.7254 20.7428 14.7254 20.7428 14.7254 20.7428L13.2293 19.2468C12.0804 18.098 10.211 18.0981 9.06234 19.2468C8.85055 19.4585 8.85055 19.8034 9.06234 20.0152L14.6508 25.6036C14.6508 25.6036 14.6508 25.6036 14.6508 25.6036C14.9473 25.9 14.9473 26.3807 14.6508 26.6772L12.2566 3.08752ZM12.2566 3.08752L12.2973 3.17798C12.9899 2.86631 13.6902 2.6479 14.3784 2.52842M12.2566 3.08752L14.9966 1.65059L14.9966 1.65061C15.0682 2.06369 14.7915 2.45675 14.3784 2.52842M14.3784 2.52842L14.3613 2.42989L14.3784 2.52842C14.3784 2.52842 14.3784 2.52842 14.3784 2.52842ZM2.96426 7.89952H2.96427C4.57344 7.89952 5.9512 8.90457 6.50518 10.319C6.60382 10.3574 6.70018 10.3996 6.79413 10.4453C6.69932 9.24721 6.79763 8.09253 7.10031 7.01947C7.76984 4.64563 9.3533 2.83773 11.6742 1.79334C12.4816 1.43007 13.304 1.17389 14.1187 1.03243C14.1188 1.03243 14.1188 1.03243 14.1188 1.03243L14.1359 1.13096L2.96426 7.89952ZM2.96426 7.89952C1.82587 7.89961 0.9 8.82557 0.9 9.96388V17.1892C0.9 17.7981 1.13739 18.3711 1.5679 18.8017L1.63861 18.731M2.96426 7.89952L1.63861 18.731M1.63861 18.731L1.5679 18.8017L10.6763 27.91C11.0054 28.2392 11.1865 28.6763 11.1865 29.1417V33.6697H10.7981C9.49855 33.6697 8.44146 34.7268 8.44146 36.0263V41.364C8.44146 41.7833 8.78136 42.1232 9.20063 42.1232C9.61991 42.1232 9.95982 41.7833 9.95982 41.364V36.0263C9.95982 35.5642 10.336 35.188 10.7981 35.188H12.5488V41.1992C12.5488 41.6185 12.8888 41.9584 13.308 41.9584C13.7273 41.9584 14.0672 41.6185 14.0672 41.1992V35.188H17.0157V41.1992C17.0157 41.6185 17.3556 41.9584 17.7749 41.9584C18.1942 41.9584 18.5341 41.6185 18.5341 41.1992V35.188H20.2849C20.7471 35.188 21.1232 35.5642 21.1232 36.0263V41.364C21.1232 41.7833 21.4631 42.1232 21.8824 42.1232C22.3016 42.1232 22.6416 41.7833 22.6416 41.364V36.0263C22.6416 35.1262 22.134 34.3431 21.391 33.9465M1.63861 18.731L21.391 33.9465M21.391 33.9465V32.6209C21.391 32.2017 21.0511 31.8618 20.6319 31.8618C20.2126 31.8618 19.8727 32.2017 19.8727 32.6209V33.6698H12.7048V29.1418C12.7048 28.2712 12.3656 27.4522 11.7499 26.8365L2.6416 17.7282C2.64159 17.7282 2.64159 17.7282 2.64158 17.7282C2.49755 17.5841 2.41836 17.3929 2.41836 17.1892V9.96388C2.41836 9.66297 2.66336 9.41797 2.96427 9.41797C4.22318 9.41797 5.2476 10.4424 5.2476 11.7013V15.9895C5.2476 16.1908 5.32755 16.3839 5.46998 16.5263C5.46999 16.5263 5.47 16.5263 5.47001 16.5263L7.62102 18.6773C7.21569 19.4542 7.33661 20.4366 7.98875 21.0888L13.5772 26.6772C13.7254 26.8254 13.9199 26.8996 14.114 26.8996C14.3081 26.8996 14.5026 26.8255 14.6508 26.6772L21.391 33.9465ZM8.92675 16.7828C9.0274 16.9538 9.13147 17.1243 9.23873 17.2944C9.13306 17.3443 9.029 17.3985 8.92675 17.457V16.7828ZM7.40839 13.8622V16.3176L6.76596 15.6752V12.2722C7.16903 12.6877 7.40839 13.2519 7.40839 13.8622Z" fill="white" stroke="white" stroke-width="0.2"/>
</svg>
