<svg width="50" height="40" viewBox="0 0 50 40" fill="none" xmlns="http://www.w3.org/2000/svg">
<path d="M49.9829 25.5943C49.8761 24.3709 49.2756 23.2799 48.3353 22.6012C47.4659 21.9737 46.4154 21.7643 45.377 22.0111C44.8788 22.1294 43.5902 22.4742 41.9587 22.9106C39.2628 23.632 35.6831 24.5895 33.8936 24.998C33.3638 24.1878 32.536 23.6079 31.5544 23.4649C31.1669 23.4084 30.4543 23.3081 29.5586 23.1818C26.4927 22.7492 20.113 21.8494 19.2917 21.6422C18.7542 21.5068 18.2205 21.3061 17.656 21.0937C17.4606 21.02 17.2653 20.9468 17.0712 20.8766C16.6531 20.7248 16.1991 20.5745 15.7116 20.5012C14.4589 20.3128 12.9532 20.6256 11.7821 21.3172C11.2293 21.6437 10.7262 22.0237 10.3497 22.3178C9.97392 22.6112 8.76122 23.4405 8.69027 23.5397L0.621415 26.6902C0.246811 26.8363 0 27.1976 0 27.5996V38.2675C0 38.5864 0.156021 38.8855 0.417328 39.0682C0.583649 39.1842 0.779343 39.244 0.976563 39.244C1.08986 39.244 1.20392 39.2242 1.31302 39.1842C1.31302 39.1842 10.3993 35.873 10.5087 35.8055L13.5388 33.9439C13.9824 33.7059 14.4791 33.6498 14.9403 33.786C14.967 33.794 14.9933 33.8005 15.0204 33.8062L26.9478 36.2625C27.4922 36.4196 28.0499 36.4982 28.6091 36.4982C29.3106 36.4982 30.0152 36.3746 30.6992 36.1278L47.2916 30.0231C49.0216 29.3979 50.1534 27.5352 49.9829 25.5943ZM1.95313 36.8686V28.2668L8.55218 25.6904L8.9882 34.2864L1.95313 36.8686ZM46.6225 28.1879L30.0308 34.2929C29.1878 34.597 28.2994 34.6263 27.4613 34.378C27.4346 34.37 27.4079 34.3631 27.3808 34.3578L15.4518 31.9007C14.4928 31.6291 13.4743 31.75 12.579 32.2425C12.5649 32.2502 12.5515 32.2578 12.5382 32.2662L10.8929 33.2771L10.4549 24.6417C10.8685 24.3667 11.2362 24.1035 11.5521 23.8567C11.8824 23.5988 12.3196 23.2681 12.7754 22.9987C13.5532 22.5391 14.6164 22.3113 15.4213 22.4326C15.7219 22.4776 16.0317 22.5772 16.4055 22.7126C16.5932 22.7809 16.7809 22.8511 16.9685 22.9217C17.5591 23.1441 18.1698 23.3733 18.8141 23.5358C19.6659 23.7506 24.4541 24.4342 29.2858 25.1159C30.1777 25.2414 30.8872 25.3417 31.2733 25.3978C32.1022 25.5183 32.6752 26.4106 32.5501 27.3872C32.4841 27.9064 32.2163 28.3786 31.8157 28.683C31.4759 28.9409 31.0776 29.0523 30.6942 28.9966L23.7736 27.9895C23.2403 27.9113 22.7444 28.2813 22.6666 28.815C22.5891 29.3487 22.9588 29.8446 23.4925 29.922L30.4131 30.9295C30.5733 30.9528 30.7335 30.9642 30.8934 30.9642C31.6384 30.9642 32.3712 30.7136 32.9975 30.2383C33.8124 29.6188 34.3556 28.6697 34.4876 27.6347C34.5211 27.3727 34.5284 27.1133 34.5116 26.8596C36.4075 26.4179 39.848 25.497 42.4637 24.7974C44.0163 24.3819 45.3572 24.0234 45.829 23.9112C46.3063 23.7975 46.7907 23.8952 47.1924 24.1851C47.6719 24.5311 47.9802 25.1067 48.0378 25.7648C48.1316 26.8386 47.5392 27.8568 46.6225 28.1879Z" fill="white"/>
<path d="M47.3669 1.87025C47.3036 1.44567 46.9702 1.11188 46.5452 1.04856C46.1665 0.992102 37.2088 -0.280864 32.3031 4.62637C30.7924 6.13737 29.8678 8.03252 29.3131 9.94368C28.8473 8.87099 28.2084 7.84941 27.3382 6.9789C23.2225 2.86169 15.7343 3.92561 15.4177 3.97291C14.9927 4.03623 14.6593 4.36964 14.596 4.7946C14.5487 5.1116 13.4851 12.6014 17.6008 16.7182C20.2765 19.395 24.3776 19.8817 27.0067 19.8817C28.4216 19.8817 29.4104 19.7406 29.5214 19.7242C29.5546 19.7192 29.5874 19.7128 29.6194 19.7044C29.9238 19.7463 31.0389 19.8836 32.5674 19.8836C35.7119 19.8836 40.6054 19.3031 43.7907 16.1166C48.696 11.2098 47.4234 2.24943 47.3669 1.87025ZM18.9821 15.3373C16.2409 12.5957 16.3126 7.69339 16.4526 5.82953C18.3172 5.68915 23.2164 5.61819 25.9569 8.35944C28.1862 10.5895 28.5551 14.2482 28.5399 16.5393L22.6938 10.6914C22.3124 10.3099 21.694 10.3099 21.3125 10.6914C20.9314 11.0725 20.9311 11.6908 21.3125 12.0723L27.1593 17.921C24.8686 17.9366 21.2111 17.5674 18.9821 15.3373ZM42.4094 14.7357C39.4995 17.6463 34.6369 17.9843 31.8895 17.9118L39.3015 10.4976C39.683 10.1161 39.683 9.49774 39.3015 9.11665C38.92 8.73518 38.3017 8.73518 37.9202 9.11665L30.5067 16.5328C30.432 13.787 30.7665 8.9263 33.6844 6.00729C37.1474 2.54316 43.3764 2.72321 45.5138 2.90174C45.6923 5.04065 45.8723 11.2716 42.4094 14.7357Z" fill="white"/>
</svg>
