<svg width="50" height="45" viewBox="0 0 50 45" fill="none" xmlns="http://www.w3.org/2000/svg">
<path d="M47.381 17.0119C47.4115 16.9482 47.4348 16.8815 47.4508 16.8124C47.9894 14.4885 46.8943 12.9279 45.9509 12.1886C45.7369 10.4457 44.0939 9.33067 42.7492 8.79242C42.6123 7.15058 41.9889 5.81735 40.8907 4.82209C39.0932 3.1936 36.5179 2.97388 35.2587 2.97388C35.2457 2.97388 35.2331 2.97388 35.2202 2.97388C33.9934 0.876945 31.1861 0.780051 29.5493 1.08408C28.5891 0.756019 27.6209 0.495094 26.6684 0.30703C26.1378 0.202508 25.6217 0.547356 25.5168 1.07874C25.4118 1.60975 25.7575 2.12549 26.2888 2.2304C27.2345 2.41732 28.1996 2.68396 29.156 3.02309C29.3333 3.08641 29.5248 3.09671 29.7079 3.0536C29.7408 3.04598 32.976 2.3105 33.6855 4.30749C33.8362 4.73054 34.2566 4.99681 34.7037 4.95484C34.7346 4.95179 37.8222 4.68057 39.58 6.28045C40.1983 6.8435 40.5802 7.56981 40.7362 8.48419C39.4137 8.54752 37.3507 9.01215 36.2768 11.1385C36.0327 11.6218 36.2261 12.2111 36.7094 12.4557C36.8513 12.527 37.0024 12.5609 37.1508 12.5609C37.509 12.5609 37.8542 12.3641 38.0266 12.0227C38.9307 10.2336 41.1772 10.4133 41.585 10.4621C41.9474 10.5811 44.0969 11.3475 44.0103 12.6613C43.9848 13.0504 44.1923 13.4177 44.5391 13.5966C44.5425 13.5982 44.8904 13.7939 45.1921 14.2047C45.5885 14.7441 45.7186 15.4067 45.5805 16.1765L45.5145 16.2642C43.9928 16.4313 41.7044 17.3888 41.3919 20.2193C41.3328 20.7576 41.7208 21.242 42.259 21.3015C42.2957 21.3054 42.3319 21.3073 42.3677 21.3073C42.861 21.3073 43.2856 20.9361 43.3409 20.4345C43.5389 18.6408 45.0792 18.2841 45.7434 18.2139C50.0391 21.3649 47.0068 28.7131 46.8061 29.1842C45.7426 31.2174 44.4078 32.2577 42.7347 32.3527C42.0176 31.7534 40.14 30.4209 36.8586 29.6347C36.3318 29.5085 35.8027 29.8331 35.6764 30.3595C35.5505 30.8863 35.8748 31.4154 36.4016 31.5413C39.2054 32.2131 40.806 33.3167 41.3965 33.7912C41.3889 34.0601 41.3534 34.326 41.2882 34.5843C40.5909 37.3545 36.8414 38.8075 32.9298 37.8226C32.2825 37.6593 31.6553 37.4346 31.066 37.1542C30.7761 37.0161 30.4369 37.0291 30.1581 37.1886C29.8796 37.3476 29.6965 37.6337 29.6683 37.9534C29.5561 39.2226 29.6107 40.4452 29.8296 41.601L27.2555 42.029C27.1456 41.6392 27.0354 41.1833 26.916 40.6878C26.3407 38.3055 25.5099 34.8689 23.067 32.049C25.1006 31.5539 27.0571 31.227 28.9011 31.0755C29.4409 31.0313 29.8426 30.5579 29.798 30.0185C29.7537 29.4787 29.2799 29.0778 28.7409 29.1217C26.3037 29.3215 23.6907 29.8091 20.9731 30.5701C18.4817 30.9073 16.7369 30.7723 16.5416 30.7551C12.292 30.1165 11.1052 27.5489 11.3814 25.5412C11.4257 25.2196 11.3078 24.8969 11.0667 24.6794C10.8256 24.462 10.493 24.3781 10.1775 24.4551L9.46684 24.6291C8.22745 24.5677 5.12954 24.0878 3.73527 22.4643C3.1295 21.7585 2.89757 20.9063 3.02689 19.8588C3.07648 19.4545 2.87125 19.0616 2.51114 18.872C2.50695 18.8697 2.08962 18.6183 1.987 18.1754C1.86493 17.6478 2.21894 17.0161 2.53746 16.5793C2.7301 16.315 2.77817 15.9717 2.66564 15.6646C2.65801 15.644 1.93512 13.5585 2.76062 11.8274C3.21991 10.8642 4.10034 10.1539 5.37788 9.71672C5.7479 9.59007 6.00654 9.26239 6.03706 8.87253C6.0382 8.85994 6.16294 7.61673 7.06855 6.94153C7.69416 6.47538 8.59671 6.35598 9.75065 6.58677C10.0123 6.63865 10.2836 6.58257 10.5025 6.43037C10.7215 6.27816 10.8691 6.04356 10.9111 5.77996C10.9145 5.7586 11.3536 3.7185 15.1786 3.64603C15.7588 4.43834 17.039 6.52001 16.0891 8.38501C15.8435 8.86757 16.0357 9.45808 16.5179 9.70375C16.6606 9.77623 16.8124 9.81056 16.9619 9.81056C17.319 9.81056 17.6635 9.61487 17.8366 9.27498C18.1899 8.58109 18.3524 7.88529 18.386 7.21352C18.9151 6.98845 19.739 6.7466 20.3967 6.9423C20.8243 7.06894 21.1531 7.37946 21.4022 7.89063C21.572 8.23929 21.921 8.44185 22.2846 8.44185C22.4284 8.44185 22.5749 8.40981 22.7133 8.34229C23.2001 8.10539 23.4023 7.51831 23.165 7.03156C22.6756 6.02753 21.9115 5.34661 20.9548 5.06242C19.9359 4.75991 18.899 4.95294 18.1319 5.21157C17.8759 4.33648 17.4735 3.57622 17.1195 3.0166C17.5811 2.81557 18.2044 2.58135 18.9719 2.37955C19.4957 2.24222 19.8088 1.70588 19.6711 1.1825C19.5334 0.658363 18.9971 0.34594 18.4737 0.483269C16.9242 0.890296 15.8625 1.41977 15.3918 1.68261C11.4211 1.68337 9.88607 3.41791 9.30815 4.54095C7.93982 4.41163 6.78741 4.69507 5.87341 5.38667C4.80796 6.19271 4.37156 7.35276 4.19609 8.06915C2.68967 8.7001 1.61278 9.67857 0.990608 10.9832C0.0876718 12.8772 0.435571 14.915 0.673989 15.8378C0.0743204 16.8055 -0.126714 17.739 0.0769906 18.6179C0.249414 19.3633 0.675515 19.8817 1.03448 20.2029C0.989082 21.5609 1.39573 22.7492 2.24755 23.7414C4.35936 26.2 8.56848 26.5437 9.3997 26.5879C9.61371 29.3219 11.695 32.0197 16.2803 32.6983C16.2947 32.7006 16.3096 32.7025 16.3245 32.704C16.3653 32.7082 16.8731 32.7578 17.731 32.7578C18.5099 32.7578 19.5788 32.7166 20.8487 32.5625C23.5533 35.1191 24.3922 38.5886 25.0098 41.1478C25.2348 42.0794 25.429 42.8843 25.6823 43.5045C25.8345 43.8776 26.1965 44.1141 26.5894 44.1141C26.6428 44.1141 26.6966 44.1099 26.7508 44.1008L31.1869 43.3626C31.4631 43.3165 31.7065 43.1547 31.8556 42.9178C32.0048 42.681 32.0456 42.3914 31.9674 42.1225C31.7255 41.2882 31.5943 40.3998 31.5749 39.4682C31.8625 39.5644 32.1551 39.6494 32.4507 39.7238C34.8025 40.3158 37.1969 40.1873 39.1935 39.3614C41.2909 38.494 42.7099 36.9673 43.1894 35.063C43.2554 34.7998 43.3016 34.532 43.329 34.2616C45.0026 34.0289 47.0171 33.0328 48.5617 30.0578C48.5708 30.0402 48.5792 30.0227 48.5872 30.0047C48.6296 29.9098 49.6286 27.6416 49.9208 24.8755C50.2817 21.4572 49.4058 18.7621 47.381 17.0119Z" fill="white"/>
</svg>