<svg width="44" height="50" viewBox="0 0 44 50" fill="none" xmlns="http://www.w3.org/2000/svg">
<path d="M43.7484 29.5479L43.4303 28.8692C42.2073 26.2604 40.3762 22.3553 39.9158 20.6577C40.29 15.3984 38.4208 10.1299 34.7736 6.17867C31.1489 2.25182 26.1154 0 20.9632 0C19.9176 0 18.9121 0.069809 17.979 0.206757C13.2957 0.870895 9.18917 2.77901 6.10347 5.72472C3.08223 8.60939 1.09553 12.4214 0.358531 16.7496C0.357768 16.7557 0.356624 16.7614 0.355861 16.7675C-0.232366 20.6657 0.315806 25.0431 1.85961 28.7766C3.60102 32.9884 6.49752 36.0435 10.0234 37.3909C10.461 37.674 10.8177 38.0573 11.1122 38.5601C11.3845 39.0255 11.9827 39.1819 12.4481 38.9095C12.9138 38.6368 13.0699 38.0386 12.7975 37.5732C12.3264 36.7687 11.7111 36.1309 10.9684 35.6781C10.9149 35.6457 10.8589 35.6182 10.8001 35.5965C4.18887 33.1352 1.23362 24.065 2.28572 17.0681C3.67312 8.94165 9.6416 3.36151 18.2579 2.14005C19.102 2.01607 20.0122 1.95312 20.9632 1.95312C25.5718 1.95312 30.0823 3.97606 33.3385 7.50351C36.6554 11.0966 38.3384 15.8943 37.9562 20.6669C37.9482 20.7699 37.9562 20.874 37.9806 20.9743C38.417 22.7776 40.2927 26.7776 41.6618 29.6986L41.9792 30.3753C42.0639 30.5565 41.999 30.7049 41.9529 30.7774C41.9063 30.8502 41.7984 30.9727 41.5962 30.9727H38.6287C38.0893 30.9727 37.6522 31.4102 37.6522 31.9492V34.6546C37.1768 34.766 36.6802 34.726 36.2209 34.5348C35.7227 34.3277 35.1512 34.5634 34.9445 35.0616C34.7374 35.5595 34.9731 36.1313 35.4713 36.3384C36.0031 36.5597 36.5627 36.6703 37.1219 36.6703C37.2989 36.6703 37.4759 36.6589 37.6522 36.6367V40.646C37.6522 41.5226 36.9377 42.2356 36.0595 42.2356H28.5182C28.2051 42.2356 27.9109 42.3859 27.7271 42.6395L23.8113 48.0469H13.3796C13.4517 47.7043 13.5299 47.303 13.6047 46.8571C13.694 46.3253 13.3354 45.8218 12.8036 45.7325C12.2707 45.6429 11.7679 46.0018 11.6786 46.5336C11.4589 47.842 11.2068 48.7514 11.2045 48.7598C11.1221 49.0543 11.182 49.3702 11.3666 49.6136C11.5512 49.8569 11.8392 50 12.1448 50H24.3099C24.6231 50 24.9172 49.8497 25.101 49.596L29.0168 44.1883H36.0595C38.0149 44.1883 39.6057 42.5991 39.6057 40.6456V32.9258H41.5962C42.4133 32.9258 43.1625 32.5146 43.6008 31.8256C44.0383 31.1378 44.0937 30.2864 43.7484 29.5479Z" fill="white"/>
</svg>
