<svg width="50" height="48" viewBox="0 0 50 48" fill="none" xmlns="http://www.w3.org/2000/svg">
<path d="M11.5379 32.5876L13.018 33.2228C14.2403 33.7462 15.6422 33.7462 16.8655 33.2224L18.3445 32.588C19.0056 32.3046 19.6518 31.9819 20.2785 31.6256C21.146 37.9778 25.4726 43.6102 31.6551 46.2595L33.1352 46.8947C34.3571 47.4177 35.7594 47.418 36.9823 46.8943L38.4617 46.2599C45.3396 43.3127 50 36.5778 50 29.2059V17.3594C50 15.7439 48.6858 14.4297 47.0703 14.4297H29.8828V3.6875C29.8828 2.07198 28.5686 0.757812 26.9531 0.757812H2.92969C1.31416 0.757812 0 2.07198 0 3.6875V15.534C0 22.9155 4.66957 29.6446 11.5379 32.5876ZM48.0469 17.3594V29.2059C48.0469 35.6787 43.8858 41.8108 37.6923 44.4647L36.2133 45.0995C35.4797 45.4134 34.6378 45.4134 33.9046 45.0995L32.4245 44.4647C26.5736 41.9573 22.5758 36.4912 22.1165 30.4392C23.5035 29.4283 24.7295 28.2564 25.7748 26.9636C26.6521 27.6976 27.7588 28.1016 28.9062 28.1016C30.0968 28.1016 31.2443 27.6678 32.1365 26.8809C32.5409 26.5238 32.5794 25.907 32.2227 25.5022C31.8657 25.0979 31.2485 25.0593 30.8441 25.4164C30.3089 25.8883 29.6207 26.1484 28.9062 26.1484C28.1918 26.1484 27.5036 25.8887 26.9684 25.4164C26.9543 25.4034 26.939 25.3927 26.9241 25.3809C28.6751 22.6881 29.705 19.5929 29.8603 16.3828H47.0703C47.6089 16.3828 48.0469 16.8207 48.0469 17.3594ZM1.95312 3.6875C1.95312 3.14886 2.39105 2.71094 2.92969 2.71094H26.9531C27.4918 2.71094 27.9297 3.14886 27.9297 3.6875V15.534C27.9297 22.2029 23.6805 28.1771 17.5751 30.7928L16.0961 31.4276C15.3622 31.7415 14.5203 31.7415 13.7875 31.4276L12.3074 30.7928C6.1142 28.1389 1.95312 22.0068 1.95312 15.534V3.6875Z" fill="white"/>
</svg>
