<svg width="49" height="50" viewBox="0 0 49 50" fill="none" xmlns="http://www.w3.org/2000/svg">
<path d="M31.6334 51.7242V43.8189L41.0769 43.2603C41.9264 43.2109 42.5857 42.514 42.5779 41.6755L42.4838 31.45H46.2348C46.7399 31.45 47.2136 31.2157 47.5152 30.818C47.8168 30.4214 47.9097 29.907 47.768 29.4304C47.7459 29.3573 45.5587 22.0842 43.8281 16.2225C42.774 12.645 40.2971 9.02142 37.0387 6.28156C34.2681 3.95071 29.604 1.17206 23.1436 1.17206C17.7219 1.17206 12.1832 3.40576 7.94447 7.2992C3.66326 11.2341 1.20703 16.4162 1.20703 21.5168C1.20703 26.2901 2.73971 31.0223 5.63469 35.2019C7.16079 37.4024 8.69018 38.9164 9.50853 39.6545V48.488" stroke="white" stroke-width="2" stroke-linecap="round"/>
</svg>
