<svg width="46" height="50" viewBox="0 0 46 50" fill="none" xmlns="http://www.w3.org/2000/svg">
<path d="M44.9938 37.0669L43.2188 34.2711C42.9294 33.8153 42.3251 33.6802 41.8684 33.9686C41.412 34.2574 41.2767 34.8609 41.5657 35.3164L43.3411 38.1125C43.6568 38.61 43.5811 39.2711 43.161 39.685C42.8962 39.9459 42.5319 40.0763 42.1608 40.0432C41.79 40.0096 41.4548 39.8166 41.2404 39.5125L33.5888 28.6517L30.5552 21.4289V20.5801C30.5552 20.0411 30.1171 19.6036 29.5767 19.6036C29.0366 19.6036 28.5982 20.0411 28.5982 20.5801V33.594H17.5789V21.6376C17.5789 21.6345 17.5789 21.6311 17.5789 21.6277V20.5801C17.5789 20.0411 17.1409 19.6036 16.6004 19.6036C16.06 19.6036 15.622 20.0411 15.622 20.5801V21.4388L12.5929 28.6517L4.94094 39.5125C4.7269 39.8162 4.39131 40.0096 4.02057 40.0428C3.6502 40.076 3.28518 39.9459 3.02031 39.6846C2.60025 39.2711 2.52457 38.61 2.84028 38.1121L9.64029 27.402C9.68272 27.3356 9.71635 27.265 9.74158 27.1906L12.6495 18.5599C13.6738 15.5192 16.5221 13.4764 19.7361 13.4764H26.4452C29.6596 13.4764 32.5075 15.5192 33.5319 18.5599L36.4401 27.1906C36.465 27.265 36.499 27.3356 36.541 27.402L37.8696 29.4951C38.0562 29.7885 38.373 29.9491 38.6971 29.9491C38.8764 29.9491 39.0576 29.8999 39.22 29.7972C39.6764 29.5085 39.8121 28.905 39.5227 28.4495L38.2572 26.4563L35.3868 17.9373C34.2107 14.4461 31.1292 11.9982 27.528 11.5855C28.5929 10.48 29.2499 8.98001 29.2499 7.32901V6.04918C29.2499 2.65981 26.4869 -0.0978394 23.0905 -0.0978394C19.6945 -0.0978394 16.9314 2.65981 16.9314 6.04918V7.32901C16.9314 8.98001 17.5881 10.48 18.6533 11.5855C15.0521 11.9982 11.9707 14.4461 10.7942 17.9373L7.92414 26.4563L1.1872 37.0669C0.381867 38.3349 0.574886 40.0206 1.64586 41.075C2.13203 41.5538 2.75008 41.8601 3.41055 41.9623C3.41017 41.9635 3.40978 41.9642 3.40978 41.965C2.89265 43.3455 2.91252 44.8585 3.46559 46.2249C4.38214 48.4897 6.57912 49.9023 8.92937 49.9023C9.43542 49.9023 9.94912 49.8366 10.4582 49.6997L23.0905 46.3061L35.7227 49.6997C36.2318 49.8366 36.7452 49.9023 37.2516 49.9023C39.6011 49.9019 41.7984 48.4893 42.715 46.2249C43.2681 44.8585 43.2879 43.3455 42.7712 41.965C42.7708 41.9642 42.7704 41.9635 42.77 41.9623C43.4305 41.8601 44.0485 41.5538 44.5351 41.075C45.6061 40.021 45.7991 38.3353 44.9938 37.0669ZM18.8884 6.04918C18.8884 3.7367 20.7735 1.85529 23.0909 1.85529C25.4079 1.85529 27.2929 3.7367 27.2929 6.04918V7.32901C27.2929 9.64186 25.4079 11.5233 23.0909 11.5233C20.7735 11.5233 18.8884 9.64148 18.8884 7.32901V6.04918ZM31.8245 29.5043C31.8516 29.5691 31.886 29.6313 31.9266 29.6885L37.4454 37.5216L30.5552 34.0152V26.4815L31.8245 29.5043ZM14.2548 29.6885C14.2953 29.6313 14.3293 29.5691 14.3565 29.5043L15.622 26.4914V34.0174L8.73558 37.5216L14.2548 29.6885ZM40.901 45.4936C40.1568 47.3315 38.1494 48.3291 36.2315 47.8141L26.3324 45.1545C27.1255 44.5304 27.6197 43.5653 27.6197 42.5116C27.6197 42.475 27.6178 42.4388 27.6167 42.4025L33.7337 43.8445C33.8093 43.8624 33.885 43.8708 33.9596 43.8708C34.4029 43.8708 34.8046 43.5679 34.9109 43.1186C35.0351 42.5937 34.7095 42.0676 34.1835 41.9436L26.866 40.2186C26.8079 40.2049 26.7494 40.1976 26.6913 40.1946C26.5828 40.0813 26.4666 39.9733 26.3408 39.8742C25.5283 39.2325 24.4837 39.001 23.475 39.2383L11.9978 41.9436C11.4719 42.0676 11.1462 42.5937 11.2704 43.1186C11.3947 43.6435 11.9214 43.9685 12.4477 43.8445L23.9245 41.1391C24.348 41.0392 24.786 41.1364 25.1265 41.4058C25.4675 41.6751 25.6628 42.0783 25.6628 42.5116C25.6628 43.1483 25.2324 43.7083 24.6167 43.8739L22.8745 44.3419C22.8539 44.3465 22.834 44.3522 22.8141 44.358L9.94989 47.8137C8.03192 48.3291 6.02452 47.3315 5.28035 45.4936C4.51133 43.5927 5.31093 41.4569 7.1406 40.5257L16.9242 35.5471H29.2572L39.0407 40.5257C40.8704 41.4573 41.6704 43.5927 40.901 45.4936Z" fill="white"/>
</svg>
