<svg width="50" height="50" viewBox="0 0 50 50" fill="none" xmlns="http://www.w3.org/2000/svg">
<path d="M41.8924 34.4341C42.3575 34.0375 42.8096 33.6217 43.2459 33.1855C47.6237 28.8077 50.0214 22.9859 49.9972 16.793C49.9914 15.3267 48.794 14.1292 47.3278 14.1235C47.2964 14.1234 47.2657 14.1233 47.2344 14.1233C45.9926 14.1233 44.7654 14.2209 43.5609 14.4126C43.5052 10.9914 42.7658 7.54521 41.4035 4.3947C40.8253 3.05726 39.3112 2.42999 37.9564 2.96684C35.6115 3.89603 33.4267 5.14862 31.4491 6.69384C30.2155 4.51607 28.6704 2.51035 26.8659 0.760751C25.8198 -0.253584 24.1809 -0.253584 23.1348 0.760751C21.3147 2.52549 19.7802 4.51334 18.5492 6.69179C16.5724 5.14754 14.3884 3.89564 12.0443 2.96674C10.6896 2.42999 9.17539 3.05716 8.59723 4.3946C7.21429 7.59257 6.48996 10.9595 6.4385 14.4137C5.20437 14.2174 3.94641 14.1192 2.67293 14.1235C1.2066 14.1292 0.00917756 15.3267 0.00341652 16.793C-0.0207994 22.986 2.37687 28.8076 6.75468 33.1855C7.18978 33.6206 7.64139 34.0369 8.10745 34.4346C5.54378 36.1662 3.51951 38.5566 2.22435 41.4027C1.91862 42.0748 1.90563 42.8525 2.189 43.5365C2.47227 44.2205 3.03138 44.7613 3.7228 45.0203C5.63567 45.7367 7.63436 46.0942 9.63149 46.0942C11.8207 46.0942 14.008 45.6646 16.0774 44.8074C16.7992 44.5085 17.5011 44.1592 18.1722 43.7658C19.3649 45.9136 21.1528 47.8712 23.4542 49.5072C23.9165 49.8359 24.4584 50.0001 25.0002 50.0001C25.542 50.0001 26.0839 49.8358 26.5462 49.5071C28.8478 47.871 30.6357 45.9134 31.8284 43.7654C32.4995 44.1588 33.2013 44.5085 33.923 44.8074C35.9926 45.6647 38.1793 46.0943 40.3689 46.0942C42.3657 46.0941 44.3649 45.7366 46.2776 45.0203C46.969 44.7614 47.5281 44.2205 47.8114 43.5365C48.0948 42.8525 48.0819 42.0748 47.776 41.4027C46.481 38.5562 44.4565 36.1658 41.8924 34.4341ZM47.2346 15.5879C47.2637 15.5879 47.2929 15.588 47.322 15.5881C47.987 15.5907 48.53 16.1337 48.5325 16.7986C48.5551 22.5982 46.3099 28.0501 42.2102 32.1497C38.1042 36.2557 32.5711 38.5081 26.8115 38.4716C31.9328 33.5364 34.8387 26.7531 34.8387 19.5914C34.8387 19.5606 34.8376 19.5297 34.8375 19.499C38.4765 16.9385 42.7531 15.5879 47.2346 15.5879ZM24.1543 1.81229C24.6207 1.36 25.3797 1.3599 25.8463 1.81229C28.7017 4.58101 30.87 8.02777 32.1165 11.78C32.2441 12.1638 32.6585 12.3714 33.0424 12.2441C33.4263 12.1165 33.634 11.702 33.5065 11.3182C33.1303 10.1857 32.6745 9.0797 32.1455 8.00893C34.0664 6.47532 36.2001 5.23825 38.4958 4.32859C39.0998 4.08927 39.8011 4.37966 40.059 4.97608C41.3799 8.03109 42.0808 11.3798 42.0993 14.6948C39.5044 15.2826 37.0342 16.3182 34.7745 17.7756C34.6925 16.5807 34.5317 15.3936 34.2898 14.2297C34.2075 13.8336 33.8201 13.5795 33.4238 13.6617C33.0278 13.744 32.7735 14.1317 32.8558 14.5277C33.1996 16.1822 33.374 17.886 33.374 19.5916C33.374 26.7163 30.3301 33.4458 25.0003 38.154C19.6704 33.4458 16.6266 26.7163 16.6266 19.5916C16.6266 12.8332 19.3 6.51916 24.1543 1.81229ZM9.94151 4.97588C10.1994 4.37956 10.9008 4.08897 11.5047 4.3284C13.7997 5.23776 15.9325 6.47444 17.8527 8.00717C17.6609 8.39677 17.4781 8.79184 17.305 9.19248C16.1227 11.9264 15.4268 14.8061 15.2251 17.7748C12.9655 16.3178 10.4961 15.2833 7.90142 14.6956C7.91665 11.3437 8.60104 8.07591 9.94151 4.97588ZM15.5169 43.4542C11.9038 44.9508 7.8978 45.0199 4.23661 43.6487C3.91927 43.5299 3.67262 43.2909 3.54216 42.976C3.41171 42.661 3.41718 42.3178 3.55749 42.0093C4.80412 39.2696 6.78973 36.9921 9.31248 35.3956C10.0711 35.9602 10.8626 36.4778 11.6833 36.9435C11.7974 37.0084 11.9216 37.0391 12.0441 37.0391C12.299 37.0391 12.5468 36.9057 12.6816 36.6682C12.8813 36.3164 12.758 35.8694 12.4063 35.6697C10.7244 34.7151 9.17138 33.5308 7.79039 32.1498C3.69078 28.0501 1.44543 22.5983 1.46809 16.7987C1.47063 16.1338 2.01363 15.5908 2.67859 15.5882C2.70798 15.5881 2.73659 15.588 2.76598 15.588C7.24739 15.588 11.5242 16.9387 15.1631 19.499C15.163 19.5298 15.1619 19.5606 15.1619 19.5915C15.1619 26.7521 18.0669 33.5344 23.1867 38.4694C20.3718 38.4843 17.5586 37.9528 14.9589 36.9029C14.5838 36.7512 14.157 36.9327 14.0056 37.3077C13.8541 37.6828 14.0354 38.1096 14.4104 38.261C15.1165 38.5462 15.838 38.7934 16.5697 39.0066C16.7274 40.1834 17.0496 41.3353 17.5248 42.4463C16.8834 42.8284 16.2106 43.1669 15.5169 43.4542ZM25.6978 48.3132C25.2805 48.6098 24.7201 48.6097 24.3028 48.3132C20.9182 45.9072 18.7513 42.7715 18.117 39.4003C20.369 39.8907 22.6973 40.0486 25.0003 39.8553C25.6527 39.9102 26.3031 39.9373 26.9513 39.9373C28.6224 39.9372 30.2748 39.7555 31.883 39.4038C31.2479 42.7737 29.0814 45.908 25.6978 48.3132ZM46.4584 42.976C46.328 43.2909 46.0813 43.5299 45.7641 43.6487C42.1029 45.0199 38.0968 44.9509 34.4837 43.4542C33.7903 43.1669 33.1173 42.8283 32.476 42.4461C32.951 41.3357 33.273 40.1843 33.4308 39.008C36.0317 38.2466 38.4893 37.0289 40.6874 35.3949C43.2107 36.9915 45.1964 39.2691 46.4432 42.0092C46.5834 42.3178 46.5889 42.661 46.4584 42.976Z" fill="white"/>
</svg>
