<svg width="50" height="48" viewBox="0 0 50 48" fill="none" xmlns="http://www.w3.org/2000/svg">
<path d="M49.6953 20.4433C49.6547 20.2208 49.5382 20.0192 49.3654 19.8731C47.7482 18.5051 47.4752 16.9966 47.2558 15.7846L47.2271 15.6267C47.1513 15.213 46.819 14.8942 46.4026 14.8356C46.2589 14.8154 46.1067 14.8051 45.9504 14.8051C45.021 14.8051 43.7116 15.1967 42.8814 16.0714C42.7398 16.2207 42.6489 16.4109 42.6218 16.6149C42.552 17.1397 42.516 17.62 42.4844 18.0438C42.3647 19.6405 42.259 19.8099 41.7726 19.9638C41.4677 20.0603 41.2294 20.2998 41.1346 20.6051C40.6765 22.0799 40.0686 23.4912 39.3328 24.8228C38.9694 24.129 38.5679 23.505 38.1941 22.9243C37.2801 21.5042 36.558 20.3823 36.8047 18.992C37.6041 14.4857 37.1983 11.0912 35.5983 8.90254C34.7073 7.68369 33.438 6.85274 31.8954 6.46455C32.2024 4.06885 33.8673 2.98272 34.7889 2.73574C35.3099 2.59619 35.619 2.06064 35.4794 1.53965C35.3397 1.01875 34.8042 0.709278 34.2834 0.849122C32.3806 1.35898 30.348 3.23076 29.9599 6.22041C28.4013 6.21602 26.9857 6.69199 25.8209 7.62266C23.6924 9.32334 22.4063 12.4837 21.9984 17.0157C21.8757 18.3795 20.9935 19.1752 19.7723 20.2763C18.7755 21.1751 17.6651 22.1786 16.7757 23.6957C15.6678 23.2445 14.4793 22.9519 13.2383 22.8459C13.59 20.5459 15.2077 19.4957 16.1114 19.2536C16.6324 19.1141 16.9416 18.5785 16.802 18.0576C16.6623 17.5366 16.1268 17.2272 15.606 17.3671C15.1152 17.4985 14.6161 17.7217 14.1385 18.0301C13.9163 16.9335 13.3788 15.905 12.5649 15.0912C11.4745 14.0008 10.0246 13.4003 8.48242 13.4003C7.97764 13.4003 7.4749 13.4662 6.98809 13.5961C6.65049 13.6862 6.38672 13.95 6.29658 14.2876C5.76602 16.2745 6.33887 18.4114 7.7916 19.8645C8.80244 20.8753 10.1227 21.4642 11.5387 21.5449C11.4152 21.949 11.3234 22.3791 11.2701 22.8352C4.97627 23.308 0 28.5799 0 34.9924C0 41.7149 5.46924 47.1842 12.1917 47.1842C14.6901 47.1842 17.07 46.4416 19.1074 45.033C19.4283 45.1738 19.7503 45.3094 20.0737 45.4369C23.0128 46.5962 25.9831 47.1841 28.902 47.1841C33.5969 47.1841 37.9543 45.6501 41.5031 42.7479C45.2124 39.7144 47.9462 35.2258 49.4087 29.7674C49.8859 27.9871 50.3069 23.7924 49.6953 20.4433ZM21.0804 21.7269C22.3939 20.5423 23.7522 19.3174 23.9438 17.1909C24.3021 13.21 25.3438 10.5041 27.0401 9.14873C28.0472 8.34414 29.2919 8.03389 30.7401 8.22744C32.1704 8.41836 33.2745 9.0333 34.0217 10.0554C35.2951 11.7974 35.5845 14.6894 34.8815 18.6509C34.501 20.7955 35.5436 22.4151 36.5518 23.9815C37.1168 24.8594 37.6984 25.7646 38.0939 26.8181C34.8026 31.571 29.8084 35.0371 24.313 36.3064C24.3599 35.8706 24.3837 35.4316 24.3837 34.9924C24.3837 30.5872 22.035 26.7203 18.5242 24.5776C19.2549 23.3751 20.1801 22.5388 21.0804 21.7269ZM9.17246 18.4833C8.35205 17.6628 7.95576 16.5123 8.07549 15.3748C8.21045 15.3605 8.34609 15.3532 8.48223 15.3532C9.50264 15.3532 10.4621 15.7506 11.1836 16.4721C12.0041 17.2926 12.4005 18.4432 12.2807 19.5806C12.1458 19.5948 12.0101 19.6021 11.8742 19.6021H11.874C10.8533 19.6021 9.89395 19.2048 9.17246 18.4833ZM12.1917 45.2311C6.54609 45.2311 1.95312 40.6381 1.95312 34.9924C1.95312 29.3467 6.54609 24.7537 12.1917 24.7537C17.8374 24.7537 22.4305 29.3467 22.4305 34.9924C22.4305 35.5553 22.3845 36.1172 22.2936 36.67C21.6653 36.7511 21.0328 36.8025 20.3974 36.8242C20.5312 36.2253 20.6011 35.6133 20.6011 34.9924C20.6011 33.8926 20.3895 32.8189 19.9722 31.8015C19.7676 31.3026 19.1974 31.0638 18.698 31.2686C18.1991 31.4732 17.9604 32.0437 18.1651 32.5427C18.4855 33.3238 18.6479 34.1479 18.6479 34.9924C18.6479 35.6064 18.5609 36.2097 18.3908 36.7938C16.9932 36.7038 15.5935 36.4729 14.2144 36.1033C13.9335 36.028 13.6335 36.0819 13.3963 36.2503C12.5283 36.8665 11.6535 37.6416 11.1348 39.1277C11.0011 39.5107 11.1181 39.9365 11.4287 40.1975C13.2227 41.7044 15.097 42.9818 17.0276 44.0188C15.5498 44.8148 13.9043 45.2311 12.1917 45.2311ZM47.5222 29.262C44.8428 39.2613 37.882 45.2311 28.9021 45.2311C23.6597 45.2311 18.126 43.0817 13.2485 39.1647C13.507 38.7007 13.8267 38.3813 14.1701 38.1086C16.0039 38.561 17.8687 38.7901 19.7206 38.7901C24.9617 38.7901 30.0153 37.0041 34.3351 33.6251C36.5312 31.9072 38.4347 29.8372 39.9594 27.5419C39.9775 27.5173 39.9946 27.4919 40.0103 27.4657C41.214 25.6396 42.178 23.6722 42.8579 21.6263C44.2266 20.9376 44.331 19.5427 44.4322 18.1896C44.4554 17.8803 44.4791 17.5631 44.5153 17.2284C44.7751 17.0403 45.1193 16.8914 45.4645 16.8148C45.7247 18.0565 46.2308 19.6504 47.8299 21.1222C48.2823 23.9993 47.9538 27.651 47.5222 29.262Z" fill="white"/>
</svg>
