<svg width="46" height="46" viewBox="0 0 46 46" fill="none" xmlns="http://www.w3.org/2000/svg">
<path d="M39.2634 6.73648C34.9193 2.39236 29.1436 0 23 0C16.8564 0 11.0807 2.39236 6.73666 6.73648C2.39236 11.0807 0 16.8565 0 23C0 26.7364 0.91443 30.4355 2.64752 33.7211L0.125152 44.7775C0.0551641 45.0848 0.147793 45.4064 0.370605 45.6292C0.593418 45.852 0.915418 45.9448 1.22232 45.8747L12.2789 43.3525C15.5644 45.0856 19.2635 46 23 46C29.1436 46 34.9193 43.6076 39.2634 39.2635C43.6076 34.9193 46 29.1435 46 23C46 16.8565 43.6076 11.0807 39.2634 6.73648ZM23 44.1674C19.4526 44.1674 15.9428 43.2723 12.8503 41.5791C12.7142 41.5047 12.5629 41.4665 12.4101 41.4665C12.3419 41.4665 12.2736 41.4741 12.2064 41.4894L2.2363 43.7637L4.51061 33.7937C4.56029 33.5754 4.52848 33.3464 4.42094 33.1499C2.72775 30.0571 1.83263 26.5474 1.83263 23C1.83263 11.3283 11.3282 1.83263 23 1.83263C34.6718 1.83263 44.1674 11.3283 44.1674 23C44.1674 34.6717 34.6717 44.1674 23 44.1674Z" fill="white"/>
</svg>
