<svg width="50" height="41" viewBox="0 0 50 41" fill="none" xmlns="http://www.w3.org/2000/svg">
<path d="M50 15.3226C50 12.7573 48.0637 10.404 44.9218 9.10161C44.8524 8.87339 44.7734 8.64839 44.6726 8.42823L41.3903 1.20726C41.0573 0.474193 40.3218 0 39.5161 0C38.7105 0 37.975 0.473387 37.6419 1.20645L34.3597 8.42823C34.2597 8.64839 34.1806 8.87339 34.1105 9.10161C31.7048 10.0984 30.0097 11.7121 29.3468 13.5653L24.4774 4.36774C24.104 3.66371 23.3774 3.22581 22.5806 3.22581C21.7839 3.22581 21.0573 3.66371 20.6839 4.36774L14.7403 15.5944C14.504 16.0411 14.321 16.5129 14.1645 16.9927C5.54677 18.821 0 23.1968 0 28.2258C0 35.0089 9.91855 40.3226 22.5806 40.3226C35.2427 40.3226 45.1613 35.0089 45.1613 28.2258C45.1613 26.1177 44.1726 24.1008 42.3113 22.3105C46.7371 21.4613 50 18.654 50 15.3226ZM45.1613 15.3226C45.1613 16.4645 42.7476 17.7419 39.5161 17.7419C36.2847 17.7419 33.871 16.4645 33.871 15.3226C33.871 14.8645 34.2774 14.3758 34.9758 13.9573C35.971 15.2734 37.5444 16.129 39.3177 16.129H39.7145C41.4879 16.129 43.0613 15.2734 44.0565 13.9573C44.7548 14.3758 45.1613 14.8645 45.1613 15.3226ZM35.8274 9.09597L39.1097 1.87419V1.87339C39.1823 1.71532 39.3411 1.6129 39.5161 1.6129C39.6911 1.6129 39.85 1.71532 39.9226 1.87419L43.2048 9.09597C43.4323 9.59758 43.5484 10.1315 43.5484 10.6823C43.5484 12.796 41.8282 14.5161 39.7145 14.5161H39.3177C37.204 14.5161 35.4839 12.796 35.4839 10.6823C35.4839 10.1315 35.6 9.59758 35.8274 9.09597ZM28.5524 26.7016C29.9806 27.2194 30.6452 27.8379 30.6452 28.2258C30.6452 29.1887 27.429 30.6452 22.5806 30.6452C17.7323 30.6452 14.5161 29.1887 14.5161 28.2258C14.5161 27.8379 15.1806 27.2194 16.6089 26.7016C18.1871 28.1435 20.279 29.0323 22.5806 29.0323C24.8823 29.0323 26.9742 28.1435 28.5524 26.7016ZM12.9032 28.2258C12.9032 30.8726 17.7718 32.2581 22.5806 32.2581C27.3895 32.2581 32.2581 30.8726 32.2581 28.2258C32.2581 27.1194 31.3524 26.1484 29.7024 25.4282C30.1177 24.8677 30.4774 24.2629 30.7524 23.6121C34.629 24.6839 37.0968 26.4605 37.0968 28.2258C37.0968 30.896 31.1347 33.871 22.5806 33.871C14.0266 33.871 8.06452 30.896 8.06452 28.2258C8.06452 26.4605 10.5323 24.6839 14.4089 23.6121C14.6847 24.2629 15.0435 24.8677 15.4589 25.4282C13.8089 26.1484 12.9032 27.1194 12.9032 28.2258ZM15.3226 19.7444C15.3226 18.5653 15.6137 17.3911 16.1661 16.3484L22.1097 5.12177C22.2952 4.77177 22.8661 4.77177 23.0516 5.12177L28.9952 16.3484C29.5476 17.3911 29.8387 18.5653 29.8387 19.7444V20.1613C29.8387 24.1637 26.5831 27.4194 22.5806 27.4194C18.5782 27.4194 15.3226 24.1637 15.3226 20.1613V19.7444ZM43.5484 28.2258C43.5484 34.0065 34.1427 38.7097 22.5806 38.7097C11.0185 38.7097 1.6129 34.0065 1.6129 28.2258C1.6129 24.1895 6.45242 20.454 13.7718 18.7306C13.7331 19.0669 13.7097 19.4056 13.7097 19.7444V20.1613C13.7097 20.8185 13.7871 21.4573 13.9226 22.0734C9.22903 23.3806 6.45161 25.6492 6.45161 28.2258C6.45161 32.296 13.5363 35.4839 22.5806 35.4839C31.625 35.4839 38.7097 32.296 38.7097 28.2258C38.7097 25.6492 35.9323 23.3806 31.2387 22.0734C31.3742 21.4573 31.4516 20.8185 31.4516 20.1613V19.954C33.3766 21.5573 36.2766 22.5806 39.5161 22.5806C39.7282 22.5806 39.9347 22.5669 40.1435 22.5589C41.746 23.7903 43.5484 25.7282 43.5484 28.2258ZM39.5161 20.9677C34.625 20.9677 30.6452 18.4347 30.6452 15.3226C30.6452 13.6476 31.8653 12.0613 33.8863 10.9919C33.9169 11.5339 34.0266 12.054 34.2048 12.5427C32.9621 13.275 32.2581 14.2597 32.2581 15.3226C32.2581 17.6218 35.3782 19.3548 39.5161 19.3548C43.654 19.3548 46.7742 17.6218 46.7742 15.3226C46.7742 14.2597 46.0702 13.275 44.8274 12.5427C45.0056 12.054 45.1153 11.5339 45.146 10.9919C47.1669 12.0613 48.3871 13.6476 48.3871 15.3226C48.3871 18.4347 44.4073 20.9677 39.5161 20.9677Z" fill="white"/>
</svg>
