<svg width="39" height="45" viewBox="0 0 39 45" fill="none" xmlns="http://www.w3.org/2000/svg">
<path d="M34.124 1.95653V2.00653H34.174H37.1087C37.6213 2.00653 38.037 2.42219 38.037 2.93476V44.0218C38.037 44.5343 37.6213 44.95 37.1087 44.95H1.89131C1.37875 44.95 0.963086 44.5343 0.963086 44.0218V2.93467C0.963086 2.42211 1.37875 2.00645 1.89131 2.00645H4.82642H4.87642V1.95645V0.978223C4.87642 0.465661 5.29208 0.05 5.80464 0.05C6.3172 0.05 6.73286 0.465661 6.73286 0.978223V1.95645V2.00645H6.78286H8.73939H8.78939V1.95645V0.978223C8.78939 0.465661 9.20506 0.05 9.71762 0.05C10.2302 0.05 10.6458 0.465661 10.6458 0.978223V1.95645V2.00645H10.6958H12.6524H12.7024V1.95645V0.978223C12.7024 0.465661 13.118 0.05 13.6306 0.05C14.1432 0.05 14.5588 0.465661 14.5588 0.978223V1.95645V2.00645H14.6088H16.5654H16.6154V1.95645V0.978223C16.6154 0.465661 17.031 0.05 17.5436 0.05C18.0561 0.05 18.4718 0.465661 18.4718 0.978223V1.95645V2.00645H18.5218H20.4786H20.5286V1.95645V0.978223C20.5286 0.465661 20.9443 0.05 21.4568 0.05C21.9694 0.05 22.385 0.465661 22.385 0.978223V1.95645V2.00645H22.435H24.3916H24.4416V1.95645V0.978223C24.4416 0.465661 24.8572 0.05 25.3698 0.05C25.8824 0.05 26.298 0.465661 26.298 0.978223V1.95645V2.00645H26.348H28.3046H28.3545V1.95645V0.978223C28.3545 0.465661 28.7702 0.05 29.2828 0.05C29.7953 0.05 30.211 0.465661 30.211 0.978223V1.95645V2.00645H30.261H32.2175H32.2675V1.95645V0.978223C32.2675 0.465661 32.6832 0.05 33.1958 0.05C33.7083 0.05 34.124 0.465661 34.124 0.978223V1.95653ZM2.81962 43.0435V43.0935H2.86962H36.08H36.13H36.1304V43.0435H36.18V3.91307V3.86307H36.13H34.1734H34.1234V3.91307V4.89129C34.1234 5.40385 33.7078 5.81951 33.1952 5.81951C32.6827 5.81951 32.267 5.40385 32.267 4.89129V3.91307V3.86307H32.217H30.2605H30.2105V3.91307V4.89129C30.2105 5.40385 29.7948 5.81951 29.2822 5.81951C28.7697 5.81951 28.354 5.40385 28.354 4.89129V3.91307V3.86307H28.304H26.3475H26.2975V3.91307V4.89129C26.2975 5.40385 25.8818 5.81951 25.3693 5.81951C24.8567 5.81951 24.441 5.40385 24.441 4.89129V3.91307V3.86307H24.391H22.4345H22.3845V3.91307V4.89129C22.3845 5.40385 21.9688 5.81951 21.4563 5.81951C20.9437 5.81951 20.5281 5.40385 20.5281 4.89129V3.91307V3.86307H20.4781H18.5215H18.4715V3.91307V4.89129C18.4715 5.40385 18.0559 5.81951 17.5433 5.81951C17.0307 5.81951 16.6151 5.40385 16.6151 4.89129V3.91307V3.86307H16.5651H14.6086H14.5586V3.91307V4.89129C14.5586 5.40385 14.1429 5.81951 13.6303 5.81951C13.1178 5.81951 12.7021 5.40385 12.7021 4.89129V3.91307V3.86307H12.6521H10.6956H10.6456V3.91307V4.89129C10.6456 5.40385 10.2299 5.81951 9.71735 5.81951C9.20479 5.81951 8.78913 5.40385 8.78913 4.89129V3.91307V3.86307H8.73913H6.7826H6.7326V3.91307V4.89129C6.7326 5.40385 6.31694 5.81951 5.80438 5.81951C5.29181 5.81951 4.87615 5.40385 4.87615 4.89129V3.91307V3.86307H4.82615H2.86962H2.81962V3.91307V43.0435Z" fill="white" stroke="white" stroke-width="0.1"/>
</svg>
