<svg width="20" height="24" viewBox="0 0 20 24" fill="none" xmlns="http://www.w3.org/2000/svg">
<path d="M10 0C8.44886 0 7.1875 1.26136 7.1875 2.8125V4.3125C7.1875 5.86364 8.44886 7.125 10 7.125C11.5511 7.125 12.8125 5.86364 12.8125 4.3125V2.8125C12.8125 1.26136 11.5511 0 10 0Z" fill="white"/>
<path d="M16.9172 20.0594L7.89062 21.1875V24H17.1624C18.2535 24 19.1406 23.1128 19.1406 22.0218C19.1406 20.8686 18.1407 19.9154 16.9172 20.0594Z" fill="white"/>
<path d="M10.7033 15.1505V17.0955L17.4294 18.4407L16.3283 8.53121L13.2368 6.9855C12.4624 7.92136 11.3071 8.53121 10.0002 8.53121C8.6933 8.53121 7.53801 7.92136 6.76364 6.9855L3.67209 8.53121L2.57104 18.4407L9.29709 17.0955V15.1505L8.88511 15.5625H5.35233L6.2024 11.365L7.58119 11.6438L7.07165 14.1562H8.30283L10.0002 12.4588L11.6976 14.1562H12.9288L12.4193 11.6438L13.7981 11.365L14.6481 15.5625H11.1153L10.7033 15.1505Z" fill="white"/>
<path d="M9.99992 18.3889L6.56042 19.0768L10.0002 19.5067L13.4398 19.0769L9.99992 18.3889Z" fill="white"/>
<path d="M3.08275 20.0594C1.85931 19.9154 0.859375 20.8686 0.859375 22.0218C0.859375 23.1128 1.74653 24 2.83759 24H6.48438V20.4845L3.08275 20.0594Z" fill="white"/>
</svg>
