<svg width="375" height="83" viewBox="0 0 375 83" fill="none" xmlns="http://www.w3.org/2000/svg">
<g filter="url(#filter0_b)">
<path d="M41.4561 0H-75V83H300V0H184.081C166.002 0 152.714 16.4041 147.775 33.7955C143.405 49.185 133.387 62.561 113 62.561C92.3693 62.561 82.1384 48.8637 77.6022 33.2435C72.613 16.0637 59.3457 0 41.4561 0Z" fill="#192244" fill-opacity="0.7"/>
<path d="M300 0H375V83H300V0Z" fill="#192244" fill-opacity="0.7"/>
</g>
<path d="M271.066 17.9312C268.839 17.9312 267.033 19.7333 267.033 21.9562H269.05C269.05 20.8448 269.952 19.9437 271.066 19.9437C272.18 19.9437 273.083 20.8447 273.083 21.9562C273.083 23.0677 272.18 23.9687 271.066 23.9687H256.95V25.9813H271.066C273.294 25.9812 275.1 24.1792 275.1 21.9562C275.1 19.7333 273.294 17.9312 271.066 17.9312Z" fill="white"/>
<path d="M266.96 27.9937H254.933V30.0062H266.96C268.074 30.0062 268.977 30.9073 268.977 32.0187V32.0921C268.977 33.163 268.107 34.0313 267.033 34.0313V36.0438C269.22 36.0438 270.993 34.2746 270.993 32.0921V32.0188C270.993 29.7958 269.187 27.9937 266.96 27.9937Z" fill="white"/>
<path d="M254.933 23.9688H250.9V25.9813H254.933V23.9688Z" fill="white"/>
<path d="M260.97 13.9063C258.777 13.9063 256.998 15.6809 256.998 17.87V18.1244H259.015V17.87C259.015 16.7924 259.891 15.9188 260.97 15.9188C262.05 15.9188 262.926 16.7924 262.926 17.87V17.9313C262.926 19.0428 262.023 19.9438 260.909 19.9438H252.916V21.9563H260.909C263.137 21.9563 264.942 20.1542 264.942 17.9313V17.87C264.942 15.6809 263.164 13.9063 260.97 13.9063Z" fill="white"/>
<defs>
<filter id="filter0_b" x="-85" y="-10" width="470" height="103" filterUnits="userSpaceOnUse" color-interpolation-filters="sRGB">
<feFlood flood-opacity="0" result="BackgroundImageFix"/>
<feGaussianBlur in="BackgroundImage" stdDeviation="5"/>
<feComposite in2="SourceAlpha" operator="in" result="effect1_backgroundBlur"/>
<feBlend mode="normal" in="SourceGraphic" in2="effect1_backgroundBlur" result="shape"/>
</filter>
</defs>
</svg>
