<svg width="28" height="30" viewBox="0 0 28 30" fill="none" xmlns="http://www.w3.org/2000/svg">
<path d="M25.2466 11.1833C24.5977 4.39365 18.4123 -0.887819 11.2228 0.124799C6.02411 0.85347 1.77214 5.0216 0.882098 10.1774C0.19286 14.171 1.40054 18.0986 4.19681 20.9542C5.33833 22.1189 5.96663 23.6466 5.96663 25.256V30H18.2712V26.4258H23.5446V19.3946H27.3074C27.265 19.2261 25.3664 11.6604 25.2466 11.1833ZM16.5134 7.09007H18.2712V8.84788H16.5134V7.09007ZM12.1189 3.57451H13.8767V5.33232H12.1189V3.57451ZM7.72444 7.09007H9.48225V8.84788H7.72444V7.09007ZM20.9079 13.2424C20.9079 16.6343 18.1476 19.3946 14.7556 19.3946C14.5705 19.3946 11.4076 19.3946 11.24 19.3946C7.84802 19.3946 5.08772 16.6344 5.08772 13.2424V10.6057H7.72438C8.24464 10.6057 8.74942 10.6928 9.24507 10.8195C10.0998 9.16564 11.4802 7.94636 12.9978 6.9099C14.5159 7.94671 15.8959 9.16617 16.7505 10.8195C17.2461 10.6928 17.7509 10.6057 18.2711 10.6057H20.9078V13.2424H20.9079ZM25.241 11.1611C25.2405 11.1592 25.2405 11.1591 25.241 11.1611V11.1611Z" fill="white"/>
</svg>
