<svg width="22" height="22" viewBox="0 0 22 22" fill="none" xmlns="http://www.w3.org/2000/svg">
<path d="M10.3555 16.8438C10.3555 15.6931 9.45411 15.2431 9.33896 15.1141C9.32989 14.9593 9.63196 13.9851 8.8455 13.1975C8.04865 12.4007 7.08413 12.7185 6.92953 12.7047C6.79607 12.5855 6.26609 11.6875 5.19922 11.6875C4.04856 11.6875 3.59859 12.5894 3.46955 12.7047C3.28427 12.7213 2.36444 12.3875 1.55298 13.1975C0.771633 13.9801 1.02511 14.9683 1.01655 15.1141C0.897402 15.2475 0 15.7769 0 16.8438C0 17.9944 0.901355 18.4444 1.01651 18.5734C1.02558 18.7282 0.766477 19.7024 1.55293 20.49C2.19824 21.1365 2.88694 21.0444 3.46951 20.9828C3.60293 21.102 4.13235 22 5.19922 22C6.34988 22 6.79946 21.0983 6.92953 20.9822C7.44928 21.0376 8.17846 21.157 8.8455 20.49C9.62685 19.7074 9.33041 18.7192 9.33896 18.5734C9.45807 18.44 10.3555 17.9106 10.3555 16.8438ZM5.19922 18.7773C4.13299 18.7773 3.26562 17.91 3.26562 16.8438C3.26562 15.7775 4.13299 14.9102 5.19922 14.9102C6.26545 14.9102 7.13281 15.7775 7.13281 16.8438C7.13281 17.91 6.26545 18.7773 5.19922 18.7773Z" fill="white"/>
<path d="M14.2227 0C12.0869 0 10.3555 0.90866 10.3555 1.97656C10.3555 3.04446 12.0869 3.95312 14.2227 3.95312C16.3585 3.95312 18.0898 3.04446 18.0898 1.97656C18.0898 0.90866 16.3585 0 14.2227 0Z" fill="white"/>
<path d="M19.5138 14.6045C18.0425 15.2475 16.0971 15.5547 14.2227 15.5547C13.2114 15.5547 12.1881 15.4533 11.2214 15.2698C11.4594 15.6777 11.6446 16.1862 11.6446 16.8438C11.6446 17.9371 11.1001 18.6823 10.6683 19.1167C10.6683 19.5252 10.5982 19.8966 10.4781 20.242C11.6142 20.546 12.887 20.711 14.2227 20.711C18.6318 20.711 22 19.0486 22 16.8438C22 15.5741 20.9583 14.9315 19.5138 14.6045Z" fill="white"/>
<path d="M17.4885 4.55139C16.6155 4.98233 15.5023 5.2422 14.2227 5.2422C12.943 5.2422 11.8298 4.98233 10.9568 4.55139C9.81166 5.02426 9.06641 5.73071 9.06641 6.53126C9.06641 7.95512 11.3749 9.10939 14.2227 9.10939C17.0704 9.10939 19.3789 7.95512 19.3789 6.53126C19.3789 5.73071 18.6337 5.02426 17.4885 4.55139Z" fill="white"/>
<path d="M18.1086 9.64267C17.0402 10.1147 15.7134 10.3984 14.2232 10.3984C12.7329 10.3984 11.4061 10.1147 10.3377 9.64267C8.97555 10.0576 8.02874 10.6789 7.82214 11.3935C8.56078 11.4612 9.22795 11.7566 9.75737 12.2861C10.1904 12.7196 10.4632 13.2334 10.589 13.8152C11.6241 14.0987 12.8741 14.2656 14.2232 14.2656C17.7828 14.2656 20.6685 13.1114 20.6685 11.6875C20.6685 10.8502 19.6547 10.1137 18.1086 9.64267Z" fill="white"/>
</svg>
