<svg width="24" height="20" viewBox="0 0 24 20" fill="none" xmlns="http://www.w3.org/2000/svg">
<path d="M24 9.89877L22.6667 11.5187L12 2.74612L1.33333 11.5187L0 9.89877L12 0.0296021L24 9.89877ZM12.0031 4.76792L19.7414 11.1854V17.1854V19.0234V19.9704H4.25545V18.9985V17.1854V11.1605L12.0031 4.76792ZM12.6355 11.5405C12.5817 11.58 12 12.1013 12 12.1013C12 12.1013 11.4175 11.5779 11.3645 11.5405C10.5769 10.9853 9.729 10.9486 9.08103 11.2882C8.4424 11.5965 8.05922 12.2757 8.01249 13.0577C8.00938 13.0856 8.00938 13.1137 8.00938 13.1418C8.00003 13.7368 8.23368 14.2882 8.57012 14.7773C8.71966 14.9953 8.87854 15.201 9.04364 15.4003C9.28664 15.7087 11.9985 18.2591 11.9985 18.2591C11.9985 18.2591 14.7134 15.7056 14.9564 15.4003C15.1215 15.201 15.2803 14.9922 15.4299 14.7773C15.7664 14.285 16 13.7368 15.9906 13.1418C15.9906 13.1137 15.9906 13.0856 15.9875 13.0577C15.9408 12.2757 15.5576 11.5935 14.919 11.2882C14.2711 10.9486 13.4126 10.9705 12.6355 11.5405Z" fill="white"/>
</svg>
