<svg width="45" height="45" viewBox="0 0 45 45" fill="none" xmlns="http://www.w3.org/2000/svg">
<g clip-path="url(#clip0)">
<path d="M9.516 19.1055C9.468 19.1055 9.444 19.0775 9.444 19.0215C9.444 18.9255 9.488 18.8055 9.576 18.6615C9.672 18.5175 9.784 18.4215 9.912 18.3735L10.248 18.2295C10.36 18.1735 10.436 18.0735 10.476 17.9295C10.524 17.7775 10.572 17.5215 10.62 17.1615L11.424 11.4735C11.264 11.4735 11.112 11.4775 10.968 11.4855C10.8 11.5015 10.648 11.5255 10.512 11.5575C10.376 11.5895 10.292 11.6055 10.26 11.6055C10.212 11.6055 10.188 11.5815 10.188 11.5335C10.188 11.4695 10.224 11.3855 10.296 11.2815C10.392 11.1295 10.504 11.0175 10.632 10.9455C10.76 10.8655 10.916 10.8215 11.1 10.8135L12.792 10.7775C13.008 10.7695 13.168 10.7495 13.272 10.7175C13.384 10.6855 13.456 10.6695 13.488 10.6695C13.544 10.6695 13.572 10.6935 13.572 10.7415C13.572 10.8055 13.54 10.8855 13.476 10.9815C13.388 11.1335 13.312 11.2375 13.248 11.2935C13.184 11.3495 13.072 11.3855 12.912 11.4015L12.324 11.4375L11.412 17.8215C11.364 18.0375 11.288 18.1975 11.184 18.3015V18.3135C11.264 18.3295 11.368 18.3535 11.496 18.3855C11.632 18.4095 11.752 18.4215 11.856 18.4215C11.984 18.4215 12.092 18.3975 12.18 18.3495C12.276 18.3015 12.332 18.2775 12.348 18.2775C12.388 18.2775 12.408 18.3015 12.408 18.3495C12.408 18.4295 12.36 18.5215 12.264 18.6255C11.976 18.9455 11.696 19.1055 11.424 19.1055C11.328 19.1055 11.18 19.0775 10.98 19.0215C10.676 18.9495 10.468 18.9135 10.356 18.9135C10.204 18.9135 10.032 18.9455 9.84 19.0095C9.656 19.0735 9.548 19.1055 9.516 19.1055ZM22.3553 19.2255C21.9793 19.2255 21.7473 18.9535 21.6593 18.4095C21.5873 17.9695 21.5513 17.1815 21.5513 16.0455L21.2513 16.2735H19.7873C19.6033 16.7455 19.3873 17.1695 19.1393 17.5455C18.8993 17.9215 18.6433 18.2015 18.3713 18.3855V18.4095C18.4753 18.4575 18.5753 18.4815 18.6713 18.4815C18.7913 18.4815 18.9033 18.4615 19.0073 18.4215C19.1193 18.3815 19.1873 18.3615 19.2113 18.3615C19.2673 18.3615 19.2953 18.3815 19.2953 18.4215C19.2953 18.4775 19.2393 18.5735 19.1273 18.7095C18.9993 18.8375 18.8633 18.9375 18.7193 19.0095C18.5753 19.0735 18.4393 19.1055 18.3113 19.1055C18.2073 19.1055 18.0593 19.0735 17.8673 19.0095C17.6753 18.9455 17.5313 18.9135 17.4353 18.9135C17.3153 18.9135 17.1953 18.9455 17.0753 19.0095C16.9473 19.0735 16.8633 19.1055 16.8233 19.1055C16.7833 19.1055 16.7633 19.0855 16.7633 19.0455C16.7633 18.9655 16.7953 18.8735 16.8593 18.7695C16.9233 18.6575 16.9993 18.5815 17.0873 18.5415C17.1353 18.5175 17.1833 18.5015 17.2313 18.4935C17.2713 18.4855 17.3233 18.4695 17.3873 18.4455C17.6993 18.3255 17.9713 18.1095 18.2033 17.7975C18.4433 17.4775 18.6473 17.1215 18.8153 16.7295C18.9833 16.3295 19.1753 15.8215 19.3913 15.2055C19.6393 14.5095 19.8513 13.9455 20.0273 13.5135C20.2113 13.0735 20.4273 12.6695 20.6753 12.3015C20.9233 11.9255 21.2073 11.6335 21.5273 11.4255V11.4135C21.4153 11.3975 21.3313 11.3815 21.2753 11.3655C21.2433 11.3575 21.1433 11.3415 20.9753 11.3175C20.8153 11.2935 20.6073 11.2815 20.3513 11.2815C19.9193 11.2815 19.5553 11.3615 19.2593 11.5215C18.9713 11.6815 18.6993 11.9415 18.4433 12.3015C18.3633 12.4295 18.2993 12.4935 18.2513 12.4935C18.2033 12.4935 18.1793 12.4615 18.1793 12.3975L18.1913 12.2775C18.3113 11.7895 18.5833 11.3975 19.0073 11.1015C19.4393 10.8055 19.9393 10.6575 20.5073 10.6575C20.7393 10.6575 21.0873 10.6975 21.5513 10.7775C21.9833 10.8575 22.2913 10.8975 22.4753 10.8975C22.6833 10.8975 22.9033 10.8575 23.1353 10.7775V10.7895C22.9193 11.1495 22.7513 11.7135 22.6313 12.4815C22.5113 13.2415 22.4513 14.1855 22.4513 15.3135C22.4513 16.4735 22.4753 17.2575 22.5233 17.6655C22.5393 17.8975 22.5713 18.0735 22.6193 18.1935C22.6753 18.3055 22.7673 18.3615 22.8953 18.3615C22.9753 18.3615 23.0513 18.3415 23.1233 18.3015C23.2033 18.2615 23.3073 18.2015 23.4353 18.1215C23.5873 18.0175 23.6833 17.9655 23.7233 17.9655C23.7713 17.9655 23.7953 17.9815 23.7953 18.0135C23.7953 18.0775 23.7713 18.1535 23.7233 18.2415C23.5713 18.5135 23.3633 18.7455 23.0993 18.9375C22.8433 19.1295 22.5953 19.2255 22.3553 19.2255ZM21.5633 15.5535C21.5793 14.8175 21.6313 14.0895 21.7193 13.3695C21.8073 12.6415 21.9193 12.0495 22.0553 11.5935H22.0433C21.7313 11.7375 21.4273 12.0855 21.1313 12.6375C20.8433 13.1895 20.5113 14.0255 20.1353 15.1455L20.0033 15.5535H21.5633ZM24.4176 19.1055C24.3696 19.1055 24.3456 19.0695 24.3456 18.9975C24.3456 18.9175 24.3696 18.8295 24.4176 18.7335C24.4656 18.6375 24.5256 18.5575 24.5976 18.4935C24.7976 18.3335 24.9296 18.2175 24.9936 18.1455C25.0656 18.0655 25.1216 17.9735 25.1616 17.8695C25.2016 17.7655 25.2496 17.5815 25.3056 17.3175L26.5416 11.5455H26.4576C26.4096 11.5455 26.3056 11.5375 26.1456 11.5215C25.8576 11.4975 25.7016 11.4855 25.6776 11.4855C25.2296 11.4855 24.8896 11.6335 24.6576 11.9295C24.6416 11.9535 24.6136 11.9975 24.5736 12.0615C24.5336 12.1175 24.4976 12.1455 24.4656 12.1455C24.4256 12.1455 24.4056 12.1095 24.4056 12.0375C24.4056 11.9575 24.4176 11.8895 24.4416 11.8335C24.5216 11.4975 24.6936 11.2375 24.9576 11.0535C25.2216 10.8695 25.5456 10.7775 25.9296 10.7775L26.3256 10.7895C26.5496 10.8055 26.7296 10.8135 26.8656 10.8135C26.9936 10.8135 27.1376 10.8055 27.2976 10.7895L27.6096 10.7775C27.5776 10.8815 27.5616 11.0335 27.5616 11.2335C27.5616 11.4975 27.5976 11.8335 27.6696 12.2415C27.7496 12.6415 27.8696 13.1935 28.0296 13.8975L28.4016 15.6375C28.4176 15.7095 28.4696 16.0015 28.5576 16.5135C28.8936 15.8495 29.3376 14.9695 29.8896 13.8735C30.4496 12.7695 30.9056 11.8735 31.2576 11.1855C31.5616 10.6095 31.8416 10.1575 32.0976 9.82947C32.3616 9.49347 32.6336 9.22947 32.9136 9.03747C33.1456 8.88547 33.3816 8.77747 33.6216 8.71347C33.8616 8.64147 34.1576 8.59347 34.5096 8.56947C34.7816 8.55347 34.9576 8.52947 35.0376 8.49747C35.0536 8.48947 35.0696 8.48147 35.0856 8.47347C35.1096 8.45747 35.1296 8.44947 35.1456 8.44947C35.1856 8.44947 35.2056 8.48147 35.2056 8.54547C35.2056 8.81747 34.9576 8.99347 34.4616 9.07347C34.4296 9.08147 34.3296 9.09747 34.1616 9.12147C33.9936 9.14547 33.8256 9.18947 33.6576 9.25347C33.4976 9.30947 33.3576 9.38547 33.2376 9.48147C32.9736 9.68947 32.7456 10.0335 32.5536 10.5135C32.3616 10.9855 32.2056 11.6575 32.0856 12.5295C32.0296 12.8815 31.9616 13.5135 31.8816 14.4255C31.7856 15.6255 31.6536 16.7455 31.4856 17.7855C31.4616 17.9775 31.3856 18.1455 31.2576 18.2895V18.3015C31.4576 18.3735 31.6256 18.4095 31.7616 18.4095C31.8736 18.4095 31.9896 18.3895 32.1096 18.3495C32.2296 18.3015 32.3016 18.2775 32.3256 18.2775C32.3656 18.2775 32.3856 18.3015 32.3856 18.3495C32.3856 18.4135 32.3336 18.5015 32.2296 18.6135C31.9496 18.9415 31.7096 19.1055 31.5096 19.1055C31.4456 19.1055 31.2936 19.0735 31.0536 19.0095C30.7656 18.9375 30.5776 18.9015 30.4896 18.9015C30.3456 18.9015 30.1936 18.9375 30.0336 19.0095C29.8816 19.0735 29.7976 19.1055 29.7816 19.1055C29.7336 19.1055 29.7096 19.0695 29.7096 18.9975C29.7096 18.9255 29.7336 18.8455 29.7816 18.7575C29.8296 18.6615 29.9016 18.5735 29.9976 18.4935C30.2296 18.3255 30.3776 18.1975 30.4416 18.1095C30.5136 18.0215 30.5616 17.9015 30.5856 17.7495L30.6456 17.2095C30.7336 16.4095 30.8176 15.6335 30.8976 14.8815C30.9856 14.1295 31.0656 13.4255 31.1376 12.7695H31.1136C29.8816 14.9535 29.0896 16.5215 28.7376 17.4735C28.6176 17.7295 28.4776 17.9815 28.3176 18.2295C28.1576 18.4775 28.0416 18.6015 27.9696 18.6015C27.9056 18.6015 27.8736 18.5615 27.8736 18.4815C27.8496 17.9935 27.8096 17.5735 27.7536 17.2215C27.7056 16.8615 27.6016 16.2935 27.4416 15.5175C27.3136 14.8775 27.2496 14.5575 27.2496 14.5575C27.0976 13.8855 26.9896 13.3495 26.9256 12.9495H26.9136L25.9056 17.7855C25.8816 17.9855 25.8096 18.1535 25.6896 18.2895V18.3015C25.9056 18.3735 26.0656 18.4095 26.1696 18.4095C26.2656 18.4095 26.3576 18.3895 26.4456 18.3495C26.5336 18.3015 26.5896 18.2775 26.6136 18.2775C26.6536 18.2775 26.6736 18.3015 26.6736 18.3495C26.6736 18.4215 26.6216 18.5095 26.5176 18.6135C26.2136 18.9415 25.9736 19.1055 25.7976 19.1055C25.7256 19.1055 25.6096 19.0735 25.4496 19.0095C25.4256 19.0015 25.3656 18.9815 25.2696 18.9495C25.1816 18.9175 25.0936 18.9015 25.0056 18.9015C24.8776 18.9015 24.7536 18.9375 24.6336 19.0095C24.5136 19.0735 24.4416 19.1055 24.4176 19.1055Z" fill="white"/>
<path d="M17.7821 30.6708L17.782 30.6709L10.0017 38.3204V31.2157C10.0017 30.7926 9.65706 30.4503 9.23288 30.4503H7.19466C4.01947 30.4503 1.43697 27.8792 1.43697 24.72V7.26649C1.43697 4.10763 4.01947 1.53652 7.19466 1.53652H7.29469C7.71894 1.53652 8.06317 1.19416 8.06317 0.771164C8.06317 0.347796 7.7189 0.00580444 7.29469 0.00580444H7.19466C3.17278 0.00580444 -0.1 3.26226 -0.1 7.26649V24.72C-0.1 28.7242 3.17277 31.981 7.19466 31.981H8.4644V40.1517C8.4644 40.4608 8.65104 40.7391 8.93684 40.8579L8.97521 40.7655L8.93685 40.8579C9.03265 40.8977 9.13297 40.917 9.23288 40.917C9.43127 40.917 9.62638 40.8406 9.77284 40.6964L18.6374 31.981H27.8432C28.2674 31.981 28.6117 31.6386 28.6117 31.2157C28.6117 30.7927 28.2674 30.4503 27.8432 30.4503H18.3219C18.1198 30.4503 17.926 30.5296 17.7821 30.6708Z" fill="white" stroke="white" stroke-width="0.2"/>
<path d="M36.0864 39.5726C34.8739 40.0687 33.5732 40.3655 32.2617 40.4523L34.0512 37.7045L37.3739 37.197L37.374 37.197C37.7931 37.1327 38.0815 36.7425 38.0171 36.3242L38.0171 36.3241C37.9524 35.906 37.5596 35.6198 37.1409 35.6837L37.156 35.7825L37.1409 35.6837L35.171 35.9847L37.0832 33.0487L39.4614 32.6854C39.8807 32.6215 40.1691 32.2308 40.1043 31.8125C40.0399 31.3943 39.647 31.1086 39.2284 31.1724L38.2029 31.3289L40.6564 27.5613L40.6564 27.5613C40.8874 27.2061 40.7857 26.732 40.4295 26.5023C40.0736 26.2727 39.598 26.3735 39.3667 26.728L39.3667 26.7281L37.0791 30.2411L36.9682 29.5216L36.9682 29.5215C36.9034 29.1034 36.5118 28.8172 36.092 28.8811L36.092 28.8811C35.6727 28.945 35.3844 29.3357 35.4487 29.7539L35.4487 29.7539L35.8216 32.1723L34.0471 34.8969L33.7913 33.2374L33.7913 33.2373C33.7266 32.8191 33.3341 32.5334 32.9151 32.5972C32.4959 32.6611 32.2075 33.0514 32.2722 33.4698L32.7896 36.8281L30.9702 39.6221C29.6561 36.0888 30.0733 32.0875 32.1547 28.891C34.4068 25.4326 38.3216 23.361 42.446 23.407C44.1748 27.1373 43.8708 31.5377 41.6188 34.9957C40.6731 36.448 39.4574 37.6532 38.0057 38.579C37.6479 38.8068 37.5433 39.2805 37.7728 39.6366C38.0018 39.9928 38.477 40.0958 38.834 39.8683C40.4718 38.8244 41.8428 37.465 42.9084 35.8285C44.2296 33.7997 44.983 31.457 45.0873 29.054C45.1888 26.7224 44.6814 24.3902 43.6202 22.3091L43.6201 22.3089L36.1243 39.6652M36.0864 39.5726L36.1243 39.6652M36.0864 39.5726C36.0864 39.5726 36.0864 39.5726 36.0864 39.5726L36.1243 39.6652M36.0864 39.5726C36.4783 39.4121 36.9275 39.5985 37.089 39.9895C37.2507 40.3809 37.063 40.8279 36.6706 40.9885C35.0262 41.6613 33.2376 42.0108 31.4594 42.0108C31.3888 42.0108 31.3183 42.01 31.2484 42.0088M36.1243 39.6652C36.4654 39.5254 36.8562 39.6878 36.9966 40.0277C37.137 40.3676 36.9742 40.7563 36.6327 40.896C35.0005 41.5638 33.2247 41.9109 31.4594 41.9109C31.3711 41.9109 31.2828 41.9095 31.1948 41.9078M31.2484 42.0088L31.2786 41.9623L31.1948 41.9078M31.2484 42.0088L29.3939 44.8565L29.3939 44.8566C29.2466 45.0826 28.9995 45.2055 28.7485 45.2055C28.605 45.2055 28.4602 45.1656 28.3312 45.0824L28.3311 45.0824C27.9749 44.8526 27.8732 44.3785 28.1042 44.0234L28.1042 44.0233L29.9585 41.1759M31.2484 42.0088C31.2298 42.0084 31.2113 42.0081 31.1929 42.0077L31.1948 41.9078M31.1948 41.9078L29.9585 41.1759M29.9585 41.1759C29.031 39.1987 28.5915 37.0153 28.6862 34.8324C28.7905 32.4293 29.5439 30.0866 30.8651 28.0578C32.1862 26.029 34.0269 24.3878 36.188 23.3121C37.183 22.8168 38.234 22.4467 39.3136 22.2061V7.26615C39.3136 4.10729 36.7314 1.53619 33.5562 1.53619H10.1631C9.73886 1.53619 9.39458 1.1942 9.39458 0.770828C9.39458 0.347837 9.73882 0.00546875 10.1631 0.00546875H33.5566C37.5785 0.00546875 40.8509 3.26227 40.8509 7.26615V21.9527C41.5535 21.8779 42.263 21.8566 42.9727 21.8914C42.9727 21.8914 42.9727 21.8914 42.9727 21.8914L42.9678 21.9913L29.9585 41.1759ZM32.1937 40.5568C32.1524 40.5593 32.1112 40.5616 32.0699 40.5637L32.1375 40.4599L32.1937 40.5568Z" fill="white" stroke="white" stroke-width="0.2"/>
</g>
<defs>
<clipPath id="clip0">
<rect width="45" height="45" fill="white"/>
</clipPath>
</defs>
</svg>
