<svg width="45" height="45" viewBox="0 0 45 45" fill="none" xmlns="http://www.w3.org/2000/svg">
<g clip-path="url(#clip0)">
<path d="M42.7058 25.8706L42.6996 25.8538L39.1858 16.3516C39.1544 16.2561 39.1042 16.1679 39.0381 16.0922C38.9716 16.0159 38.8904 15.9539 38.7994 15.9097C38.7084 15.8656 38.6094 15.8402 38.5083 15.8352C38.4073 15.8302 38.3063 15.8456 38.2113 15.8805L38.2457 15.9741L38.2113 15.8805C38.1163 15.9154 38.0294 15.9691 37.9557 16.0384C37.8819 16.1077 37.8229 16.1911 37.7822 16.2837C37.7414 16.3763 37.7198 16.4762 37.7185 16.5773C37.7173 16.6779 37.7362 16.7777 37.7741 16.8708L40.9142 25.3633H38.3578C38.2591 25.3633 38.1613 25.3827 38.0701 25.4206C37.9789 25.4585 37.8961 25.514 37.8264 25.5839C37.7567 25.6539 37.7015 25.7369 37.6639 25.8282C37.6264 25.9195 37.6073 26.0173 37.6076 26.116V26.1158H37.7076L37.6076 26.1161L42.7058 25.8706ZM42.7058 25.8706V25.8782V25.8706ZM37.6076 31.88L37.7076 31.8803H37.6076V31.88ZM26.9673 40.59H27.0673V40.69H26.9673V40.59ZM20.1814 40.6898C20.1804 40.6899 20.1794 40.6899 20.1784 40.69H20.1756V40.59L20.1814 40.6898ZM20.1756 39.1873H20.1784C20.1794 39.1873 20.1804 39.1874 20.1814 39.1874L20.1756 39.2873V39.1873ZM30.3006 39.2873L30.3003 39.1873H30.3006V39.2873ZM28.4723 40.69H28.3723V40.59H28.4723V40.69ZM39.0103 26.875V26.775H39.1103V26.875H39.0103ZM41.0578 25.4633H40.9512H41.0578Z" fill="white" stroke="white" stroke-width="0.2"/>
<path d="M5.34802 14.7083C5.50046 14.7086 5.64819 14.6554 5.76539 14.558C5.8826 14.4605 5.96184 14.325 5.98927 14.175C6.63903 10.5615 8.53954 7.29181 11.3579 4.93876C14.1762 2.58572 17.7326 1.29935 21.404 1.305C27.6005 1.305 33.1063 4.54275 35.0998 9.33975M5.34802 14.7083L5.35675 14.8079C5.35526 14.808 5.35377 14.8081 5.35228 14.8082M5.34802 14.7083L5.34777 14.8083C5.34927 14.8083 5.35079 14.8083 5.35228 14.8082M5.34802 14.7083C5.30984 14.7116 5.27145 14.7116 5.23327 14.7083C5.14876 14.6933 5.06804 14.6619 4.99576 14.6156C4.92348 14.5693 4.86107 14.5092 4.81213 14.4388C4.76318 14.3683 4.72868 14.2888 4.71059 14.2049C4.69251 14.121 4.69121 14.0344 4.70677 13.95M5.35228 14.8082C5.52657 14.8076 5.69525 14.7464 5.82933 14.6349C5.96457 14.5224 6.05599 14.366 6.08764 14.193L6.08769 14.1927C6.7333 10.6023 8.62166 7.35353 11.4219 5.01553C14.2222 2.67753 17.7559 1.39938 21.4039 1.405L21.404 1.405C27.5689 1.405 33.0314 4.62574 35.0066 9.37624M5.35228 14.8082C5.30977 14.8117 5.26704 14.8116 5.22454 14.8079L5.2245 14.8083L5.2159 14.8067C5.11839 14.7895 5.02526 14.7532 4.94186 14.6998C4.85847 14.6465 4.78646 14.5771 4.72998 14.4958C4.67352 14.4145 4.6337 14.3228 4.61284 14.226C4.59198 14.1292 4.59048 14.0293 4.60841 13.932M35.0066 9.37624L35.0059 9.37431L35.0998 9.33975M35.0066 9.37624C35.0069 9.37687 35.0072 9.3775 35.0074 9.37813L35.0998 9.33975M35.0066 9.37624L36.3981 13.1549M35.0998 9.33975L36.4925 13.122M36.4925 13.122L36.3974 13.153C36.3976 13.1536 36.3978 13.1542 36.3981 13.1549M36.4925 13.122C36.5197 13.2054 36.5634 13.2825 36.6211 13.3486M36.4925 13.122L36.3987 13.1566L36.3981 13.1549M36.3981 13.1549C36.4295 13.2503 36.4797 13.3386 36.5457 13.4143L36.6211 13.3486M36.6211 13.3486L36.5457 13.4143C36.6122 13.4906 36.6934 13.5526 36.7844 13.5968C36.8755 13.6409 36.9745 13.6663 37.0755 13.6713C37.1766 13.6763 37.2776 13.6609 37.3725 13.626C37.4675 13.5911 37.5544 13.5374 37.6282 13.4681C37.7019 13.3989 37.7609 13.3154 37.8017 13.2228C37.8424 13.1302 37.8641 13.0303 37.8653 12.9292C37.8666 12.8286 37.8477 12.7288 37.8097 12.6357M36.6211 13.3486C36.6788 13.4147 36.7492 13.4685 36.8281 13.5068C36.907 13.5451 36.9929 13.5671 37.0805 13.5714C37.1681 13.5758 37.2557 13.5624 37.338 13.5322C37.4204 13.5019 37.4958 13.4553 37.5597 13.3953C37.6236 13.3352 37.6748 13.2628 37.7101 13.1825C37.7455 13.1022 37.7642 13.0156 37.7653 12.9279C37.7664 12.8402 37.7498 12.7532 37.7165 12.672M37.8097 12.6357L36.4018 8.8303L36.4005 8.82672L36.4004 8.82674C34.1859 3.47867 28.1565 -0.0999719 21.4041 -0.099997M37.8097 12.6357L4.70677 13.95M37.8097 12.6357L36.308 8.865L37.7165 12.672M37.8097 12.6357C37.8095 12.6352 37.8093 12.6346 37.809 12.634L37.7165 12.672M37.8097 12.6357L37.8103 12.6373L37.7165 12.672M21.4041 -0.099997C17.4023 -0.105858 13.5262 1.29704 10.4552 3.86276C7.3843 6.42841 5.31442 9.9931 4.60841 13.932M21.4041 -0.099997C21.4041 -0.0999969 21.4041 -0.0999969 21.4042 -0.0999969L21.404 3.03547e-06V-0.099997C21.404 -0.099997 21.4041 -0.099997 21.4041 -0.099997ZM4.60841 13.932C4.60839 13.9321 4.60836 13.9322 4.60834 13.9324L4.70677 13.95M4.60841 13.932C4.60841 13.9319 4.60843 13.9319 4.60843 13.9319L4.70677 13.95" fill="white" stroke="white" stroke-width="0.2"/>
<path d="M8.00898 25.0333L8.00729 25.0242C7.99874 24.9782 7.98676 24.9329 7.97145 24.8887C7.96189 24.8478 7.9493 24.8076 7.93379 24.7685C7.93159 24.7489 7.92446 24.7201 7.90171 24.6938C6.6259 22.465 5.92145 19.9551 5.85127 17.3879C5.8536 17.2867 5.83551 17.1861 5.79805 17.092C5.76025 16.9971 5.70351 16.9109 5.63131 16.8387L5.56056 16.9093L5.63131 16.8387C5.5591 16.7664 5.47294 16.7096 5.37807 16.6717C5.2832 16.6338 5.1816 16.6156 5.07948 16.6183C4.97735 16.6209 4.87684 16.6443 4.78406 16.6871L4.82591 16.7779L4.78406 16.6871C4.69127 16.7298 4.60817 16.791 4.5398 16.8669M8.00898 25.0333L4.5398 16.8669M8.00898 25.0333V25.0425M8.00898 25.0333V25.0425M4.5398 16.8669C4.47144 16.9428 4.41925 17.0319 4.38641 17.1286C4.35385 17.2245 4.34099 17.326 4.34859 17.427C4.42468 20.1765 5.16419 22.8668 6.50398 25.2688V44.3475C6.50398 44.5471 6.58326 44.7385 6.72438 44.8796C6.8655 45.0207 7.05691 45.1 7.25648 45.1C7.45606 45.1 7.64746 45.0207 7.78858 44.8796C7.9297 44.7385 8.00898 44.5471 8.00898 44.3475V25.0808V25.0807V25.0806V25.0805V25.0804V25.0804V25.0803V25.0802V25.0801V25.08V25.08V25.0799V25.0798V25.0797V25.0797V25.0796V25.0795V25.0794V25.0793V25.0793V25.0792V25.0791V25.079V25.0789V25.0789V25.0788V25.0787V25.0786V25.0786V25.0785V25.0784V25.0783V25.0782V25.0782V25.0781V25.078V25.0779V25.0779V25.0778V25.0777V25.0776V25.0776V25.0775V25.0774V25.0773V25.0772V25.0772V25.0771V25.077V25.0769V25.0769V25.0768V25.0767V25.0766V25.0766V25.0765V25.0764V25.0763V25.0762V25.0762V25.0761V25.076V25.0759V25.0759V25.0758V25.0757V25.0756V25.0756V25.0755V25.0754V25.0753V25.0753V25.0752V25.0751V25.075V25.075V25.0749V25.0748V25.0747V25.0747V25.0746V25.0745V25.0744V25.0743V25.0743V25.0742V25.0741V25.074V25.074V25.0739V25.0738V25.0737V25.0737V25.0736V25.0735V25.0734V25.0734V25.0733V25.0732V25.0731V25.0731V25.073V25.0729V25.0728V25.0728V25.0727V25.0726V25.0725V25.0725V25.0724V25.0723V25.0722V25.0722V25.0721V25.072V25.0719V25.0719V25.0718V25.0717V25.0717V25.0716V25.0715V25.0714V25.0714V25.0713V25.0712V25.0711V25.0711V25.071V25.0709V25.0708V25.0708V25.0707V25.0706V25.0705V25.0705V25.0704V25.0703V25.0702V25.0702V25.0701V25.07V25.0699V25.0699V25.0698V25.0697V25.0697V25.0696V25.0695V25.0694V25.0694V25.0693V25.0692V25.0691V25.0691V25.069V25.0689V25.0688V25.0688V25.0687V25.0686V25.0685V25.0685V25.0684V25.0683V25.0683V25.0682V25.0681V25.068V25.068V25.0679V25.0678V25.0677V25.0677V25.0676V25.0675V25.0674V25.0674V25.0673V25.0672V25.0672V25.0671V25.067V25.0669V25.0669V25.0668V25.0667V25.0666V25.0666V25.0665V25.0664V25.0664V25.0663V25.0662V25.0661V25.0661V25.066V25.0659V25.0658V25.0658V25.0657V25.0656V25.0656V25.0655V25.0654V25.0653V25.0653V25.0652V25.0651V25.065V25.065V25.0649V25.0648V25.0648V25.0647V25.0646V25.0645V25.0645V25.0644V25.0643V25.0642V25.0642V25.0641V25.064V25.064V25.0639V25.0638V25.0637V25.0637V25.0636V25.0635V25.0634V25.0634V25.0633V25.0632V25.0632V25.0631V25.063V25.0629V25.0629V25.0628V25.0627V25.0626V25.0626V25.0625V25.0624V25.0624V25.0623V25.0622V25.0621V25.0621V25.062V25.0619V25.0618V25.0618V25.0617V25.0616V25.0616V25.0615V25.0614V25.0613V25.0613V25.0612V25.0611V25.0611V25.061V25.0609V25.0608V25.0608V25.0607V25.0606V25.0605V25.0605V25.0604V25.0603V25.0603V25.0602V25.0601V25.06V25.06V25.0599V25.0598V25.0597V25.0597V25.0596V25.0595V25.0595V25.0594V25.0593V25.0592V25.0592V25.0591V25.059V25.0589V25.0589V25.0588V25.0587V25.0587V25.0586V25.0585V25.0584V25.0584V25.0583V25.0582V25.0581V25.0581V25.058V25.0579V25.0579V25.0578V25.0577V25.0576V25.0576V25.0575V25.0574V25.0573V25.0573V25.0572V25.0571V25.0571V25.057V25.0569V25.0568V25.0568V25.0567V25.0566V25.0565V25.0565V25.0564V25.0563V25.0563V25.0562V25.0561V25.056V25.056V25.0559V25.0558V25.0557V25.0557V25.0556V25.0555V25.0554V25.0554V25.0553V25.0552V25.0552V25.0551V25.055V25.0549V25.0549V25.0548V25.0547V25.0546V25.0546V25.0545V25.0544V25.0543V25.0543V25.0542V25.0541V25.0541V25.054V25.0539V25.0538V25.0538V25.0537V25.0536V25.0535V25.0535V25.0534V25.0533V25.0532V25.0532V25.0531V25.053V25.0529V25.0529V25.0528V25.0527V25.0526V25.0526V25.0525V25.0524V25.0524V25.0523V25.0522V25.0521V25.0521V25.052V25.0519V25.0518V25.0518V25.0517V25.0516V25.0515V25.0515V25.0514V25.0513V25.0512V25.0512V25.0511V25.051V25.0509V25.0509V25.0508V25.0507V25.0506V25.0506V25.0505V25.0504V25.0503V25.0503V25.0502V25.0501V25.05V25.05V25.0499V25.0498V25.0497V25.0497V25.0496V25.0495V25.0494V25.0494V25.0493V25.0492V25.0491V25.0491V25.049V25.0489V25.0488V25.0488V25.0487V25.0486V25.0485V25.0485V25.0484V25.0483V25.0482V25.0482V25.0481V25.048V25.0479V25.0479V25.0478V25.0477V25.0476V25.0475V25.0475V25.0474V25.0473V25.0472V25.0472V25.0471V25.047V25.0469V25.0469V25.0468V25.0467V25.0466V25.0466V25.0465V25.0464V25.0463V25.0462V25.0462V25.0461V25.046V25.0459V25.0459V25.0458V25.0457V25.0456V25.0456V25.0455V25.0454V25.0453V25.0452V25.0452V25.0451V25.045V25.0449V25.0449V25.0448V25.0447V25.0446V25.0445V25.0445V25.0444V25.0443V25.0442V25.0442V25.0441V25.044V25.0439V25.0438V25.0438V25.0437V25.0436V25.0435V25.0435V25.0434V25.0433V25.0432V25.0431V25.0431V25.043V25.0429V25.0428V25.0427V25.0427V25.0426V25.0425M4.5398 16.8669L8.00898 25.0425" fill="white" stroke="white" stroke-width="0.2"/>
<mask id="path-4-outside-1" maskUnits="userSpaceOnUse" x="-1" y="4.20776" width="47" height="24" fill="black">
<rect fill="white" x="-1" y="4.20776" width="47" height="24"/>
<path d="M44.3475 14.2763H36.432C35.8748 14.2768 35.3407 14.4984 34.9467 14.8924C34.5527 15.2864 34.3311 15.8206 34.3305 16.3778V17.1202C34.3305 17.3428 34.2421 17.5563 34.0847 17.7137C33.9273 17.8711 33.7138 17.9595 33.4913 17.9595C33.2687 17.9595 33.0552 17.8711 32.8978 17.7137C32.7404 17.5563 32.652 17.3428 32.652 17.1202V12.5708C32.6613 12.2835 32.6128 11.9972 32.5093 11.7291C32.4057 11.461 32.2494 11.2164 32.0494 11.0098C31.8495 10.8033 31.6101 10.6391 31.3455 10.527C31.0808 10.4148 30.7963 10.3571 30.5089 10.3571C30.2214 10.3571 29.9369 10.4148 29.6723 10.527C29.4076 10.6391 29.1682 10.8033 28.9683 11.0098C28.7684 11.2164 28.612 11.461 28.5085 11.7291C28.405 11.9972 28.3564 12.2835 28.3658 12.5708V24.9975C28.3658 25.2201 28.2773 25.4335 28.1199 25.5909C27.9625 25.7483 27.7491 25.8368 27.5265 25.8368C27.3039 25.8368 27.0905 25.7483 26.9331 25.5909C26.7757 25.4335 26.6873 25.2201 26.6873 24.9975V14.4C26.7062 14.1076 26.665 13.8145 26.5662 13.5387C26.4674 13.2629 26.313 13.0103 26.1127 12.7965C25.9123 12.5827 25.6703 12.4123 25.4014 12.2958C25.1326 12.1793 24.8427 12.1192 24.5498 12.1192C24.2568 12.1192 23.9669 12.1793 23.6981 12.2958C23.4293 12.4123 23.1872 12.5827 22.9868 12.7965C22.7865 13.0103 22.6321 13.2629 22.5333 13.5387C22.4345 13.8145 22.3933 14.1076 22.4123 14.4V21.9173C22.4123 22.1398 22.3238 22.3533 22.1664 22.5107C22.0091 22.6681 21.7956 22.7565 21.573 22.7565C21.3504 22.7565 21.137 22.6681 20.9796 22.5107C20.8222 22.3533 20.7338 22.1398 20.7338 21.9173V7.182C20.691 6.64444 20.4473 6.14272 20.0511 5.77683C19.655 5.41095 19.1355 5.20776 18.5963 5.20776C18.057 5.20776 17.5375 5.41095 17.1414 5.77683C16.7452 6.14272 16.5015 6.64444 16.4588 7.182V24.9975C16.4588 25.2201 16.3703 25.4335 16.2129 25.5909C16.0556 25.7483 15.8421 25.8368 15.6195 25.8368C15.3969 25.8368 15.1835 25.7483 15.0261 25.5909C14.8687 25.4335 14.7803 25.2201 14.7803 24.9975V12.375C14.8037 12.08 14.7659 11.7834 14.6691 11.5037C14.5723 11.2241 14.4187 10.9675 14.2179 10.7501C14.0171 10.5327 13.7736 10.3593 13.5025 10.2406C13.2314 10.122 12.9387 10.0607 12.6427 10.0607C12.3468 10.0607 12.0541 10.122 11.783 10.2406C11.512 10.3593 11.2684 10.5327 11.0676 10.7501C10.8668 10.9675 10.7132 11.2241 10.6164 11.5037C10.5196 11.7834 10.4818 12.08 10.5053 12.375V20.9543C10.5053 21.1768 10.4168 21.3903 10.2594 21.5477C10.1021 21.7051 9.88858 21.7935 9.666 21.7935C9.44342 21.7935 9.22995 21.7051 9.07256 21.5477C8.91517 21.3903 8.82675 21.1768 8.82675 20.9543V17.1C8.82615 16.5428 8.60456 16.0087 8.21058 15.6147C7.8166 15.2207 7.28242 14.9991 6.72525 14.9985H0.6525C0.479446 14.9985 0.313484 15.0672 0.191116 15.1896C0.0687485 15.312 0 15.4779 0 15.651C0 15.8241 0.0687485 15.99 0.191116 16.1124C0.313484 16.2348 0.479446 16.3035 0.6525 16.3035H6.69375C6.90499 16.3035 7.10759 16.3874 7.25696 16.5368C7.40633 16.6862 7.49025 16.8888 7.49025 17.1V20.9543C7.50828 21.5106 7.74197 22.0382 8.14192 22.4254C8.54186 22.8126 9.07671 23.0291 9.63338 23.0291C10.19 23.0291 10.7249 22.8126 11.1248 22.4254C11.5248 22.0382 11.7585 21.5106 11.7765 20.9543V12.375C11.7765 12.1524 11.8649 11.939 12.0223 11.7816C12.1797 11.6242 12.3932 11.5358 12.6158 11.5358C12.8383 11.5358 13.0518 11.6242 13.2092 11.7816C13.3666 11.939 13.455 12.1524 13.455 12.375V24.9975C13.4315 25.2925 13.4694 25.5891 13.5662 25.8688C13.6629 26.1484 13.8165 26.405 14.0173 26.6224C14.2181 26.8398 14.4617 27.0132 14.7328 27.1319C15.0039 27.2505 15.2966 27.3118 15.5925 27.3118C15.8884 27.3118 16.1811 27.2505 16.4522 27.1319C16.7233 27.0132 16.9669 26.8398 17.1677 26.6224C17.3685 26.405 17.5221 26.1484 17.6188 25.8688C17.7156 25.5891 17.7535 25.2925 17.73 24.9975V7.182C17.73 6.95942 17.8184 6.74595 17.9758 6.58856C18.1332 6.43117 18.3467 6.34275 18.5693 6.34275C18.7918 6.34275 19.0053 6.43117 19.1627 6.58856C19.3201 6.74595 19.4085 6.95942 19.4085 7.182V21.9173C19.385 22.2122 19.4229 22.5089 19.5197 22.7885C19.6164 23.0682 19.7701 23.3247 19.9708 23.5421C20.1716 23.7595 20.4152 23.933 20.6863 24.0516C20.9574 24.1703 21.2501 24.2315 21.546 24.2315C21.8419 24.2315 22.1346 24.1703 22.4057 24.0516C22.6768 23.933 22.9204 23.7595 23.1212 23.5421C23.322 23.3247 23.4756 23.0682 23.5723 22.7885C23.6691 22.5089 23.707 22.2122 23.6835 21.9173V14.4C23.6835 14.1774 23.7719 13.964 23.9293 13.8066C24.0867 13.6492 24.3002 13.5608 24.5228 13.5608C24.7453 13.5608 24.9588 13.6492 25.1162 13.8066C25.2736 13.964 25.362 14.1774 25.362 14.4V24.9975C25.3527 25.2848 25.4012 25.571 25.5047 25.8392C25.6083 26.1073 25.7646 26.3519 25.9646 26.5584C26.1645 26.7649 26.4039 26.9291 26.6685 27.0413C26.9332 27.1534 27.2177 27.2112 27.5051 27.2112C27.7926 27.2112 28.0771 27.1534 28.3417 27.0413C28.6064 26.9291 28.8458 26.7649 29.0457 26.5584C29.2456 26.3519 29.402 26.1073 29.5055 25.8392C29.609 25.571 29.6576 25.2848 29.6482 24.9975V12.5708C29.6482 12.3482 29.7367 12.1347 29.8941 11.9773C30.0515 11.8199 30.2649 11.7315 30.4875 11.7315C30.7101 11.7315 30.9235 11.8199 31.0809 11.9773C31.2383 12.1347 31.3267 12.3482 31.3267 12.5708V17.1202C31.3448 17.6766 31.5785 18.2042 31.9784 18.5914C32.3784 18.9786 32.9132 19.1951 33.4699 19.1951C34.0265 19.1951 34.5614 18.9786 34.9613 18.5914C35.3613 18.2042 35.595 17.6766 35.613 17.1202V16.3778C35.6136 16.1667 35.6977 15.9644 35.8469 15.8152C35.9962 15.666 36.1984 15.5818 36.4095 15.5813H44.3475C44.5206 15.5813 44.6865 15.5125 44.8089 15.3901C44.9313 15.2678 45 15.1018 45 14.9288C45 14.7557 44.9313 14.5897 44.8089 14.4674C44.6865 14.345 44.5206 14.2763 44.3475 14.2763Z"/>
</mask>
<path d="M44.3475 14.2763H36.432C35.8748 14.2768 35.3407 14.4984 34.9467 14.8924C34.5527 15.2864 34.3311 15.8206 34.3305 16.3778V17.1202C34.3305 17.3428 34.2421 17.5563 34.0847 17.7137C33.9273 17.8711 33.7138 17.9595 33.4913 17.9595C33.2687 17.9595 33.0552 17.8711 32.8978 17.7137C32.7404 17.5563 32.652 17.3428 32.652 17.1202V12.5708C32.6613 12.2835 32.6128 11.9972 32.5093 11.7291C32.4057 11.461 32.2494 11.2164 32.0494 11.0098C31.8495 10.8033 31.6101 10.6391 31.3455 10.527C31.0808 10.4148 30.7963 10.3571 30.5089 10.3571C30.2214 10.3571 29.9369 10.4148 29.6723 10.527C29.4076 10.6391 29.1682 10.8033 28.9683 11.0098C28.7684 11.2164 28.612 11.461 28.5085 11.7291C28.405 11.9972 28.3564 12.2835 28.3658 12.5708V24.9975C28.3658 25.2201 28.2773 25.4335 28.1199 25.5909C27.9625 25.7483 27.7491 25.8368 27.5265 25.8368C27.3039 25.8368 27.0905 25.7483 26.9331 25.5909C26.7757 25.4335 26.6873 25.2201 26.6873 24.9975V14.4C26.7062 14.1076 26.665 13.8145 26.5662 13.5387C26.4674 13.2629 26.313 13.0103 26.1127 12.7965C25.9123 12.5827 25.6703 12.4123 25.4014 12.2958C25.1326 12.1793 24.8427 12.1192 24.5498 12.1192C24.2568 12.1192 23.9669 12.1793 23.6981 12.2958C23.4293 12.4123 23.1872 12.5827 22.9868 12.7965C22.7865 13.0103 22.6321 13.2629 22.5333 13.5387C22.4345 13.8145 22.3933 14.1076 22.4123 14.4V21.9173C22.4123 22.1398 22.3238 22.3533 22.1664 22.5107C22.0091 22.6681 21.7956 22.7565 21.573 22.7565C21.3504 22.7565 21.137 22.6681 20.9796 22.5107C20.8222 22.3533 20.7338 22.1398 20.7338 21.9173V7.182C20.691 6.64444 20.4473 6.14272 20.0511 5.77683C19.655 5.41095 19.1355 5.20776 18.5963 5.20776C18.057 5.20776 17.5375 5.41095 17.1414 5.77683C16.7452 6.14272 16.5015 6.64444 16.4588 7.182V24.9975C16.4588 25.2201 16.3703 25.4335 16.2129 25.5909C16.0556 25.7483 15.8421 25.8368 15.6195 25.8368C15.3969 25.8368 15.1835 25.7483 15.0261 25.5909C14.8687 25.4335 14.7803 25.2201 14.7803 24.9975V12.375C14.8037 12.08 14.7659 11.7834 14.6691 11.5037C14.5723 11.2241 14.4187 10.9675 14.2179 10.7501C14.0171 10.5327 13.7736 10.3593 13.5025 10.2406C13.2314 10.122 12.9387 10.0607 12.6427 10.0607C12.3468 10.0607 12.0541 10.122 11.783 10.2406C11.512 10.3593 11.2684 10.5327 11.0676 10.7501C10.8668 10.9675 10.7132 11.2241 10.6164 11.5037C10.5196 11.7834 10.4818 12.08 10.5053 12.375V20.9543C10.5053 21.1768 10.4168 21.3903 10.2594 21.5477C10.1021 21.7051 9.88858 21.7935 9.666 21.7935C9.44342 21.7935 9.22995 21.7051 9.07256 21.5477C8.91517 21.3903 8.82675 21.1768 8.82675 20.9543V17.1C8.82615 16.5428 8.60456 16.0087 8.21058 15.6147C7.8166 15.2207 7.28242 14.9991 6.72525 14.9985H0.6525C0.479446 14.9985 0.313484 15.0672 0.191116 15.1896C0.0687485 15.312 0 15.4779 0 15.651C0 15.8241 0.0687485 15.99 0.191116 16.1124C0.313484 16.2348 0.479446 16.3035 0.6525 16.3035H6.69375C6.90499 16.3035 7.10759 16.3874 7.25696 16.5368C7.40633 16.6862 7.49025 16.8888 7.49025 17.1V20.9543C7.50828 21.5106 7.74197 22.0382 8.14192 22.4254C8.54186 22.8126 9.07671 23.0291 9.63338 23.0291C10.19 23.0291 10.7249 22.8126 11.1248 22.4254C11.5248 22.0382 11.7585 21.5106 11.7765 20.9543V12.375C11.7765 12.1524 11.8649 11.939 12.0223 11.7816C12.1797 11.6242 12.3932 11.5358 12.6158 11.5358C12.8383 11.5358 13.0518 11.6242 13.2092 11.7816C13.3666 11.939 13.455 12.1524 13.455 12.375V24.9975C13.4315 25.2925 13.4694 25.5891 13.5662 25.8688C13.6629 26.1484 13.8165 26.405 14.0173 26.6224C14.2181 26.8398 14.4617 27.0132 14.7328 27.1319C15.0039 27.2505 15.2966 27.3118 15.5925 27.3118C15.8884 27.3118 16.1811 27.2505 16.4522 27.1319C16.7233 27.0132 16.9669 26.8398 17.1677 26.6224C17.3685 26.405 17.5221 26.1484 17.6188 25.8688C17.7156 25.5891 17.7535 25.2925 17.73 24.9975V7.182C17.73 6.95942 17.8184 6.74595 17.9758 6.58856C18.1332 6.43117 18.3467 6.34275 18.5693 6.34275C18.7918 6.34275 19.0053 6.43117 19.1627 6.58856C19.3201 6.74595 19.4085 6.95942 19.4085 7.182V21.9173C19.385 22.2122 19.4229 22.5089 19.5197 22.7885C19.6164 23.0682 19.7701 23.3247 19.9708 23.5421C20.1716 23.7595 20.4152 23.933 20.6863 24.0516C20.9574 24.1703 21.2501 24.2315 21.546 24.2315C21.8419 24.2315 22.1346 24.1703 22.4057 24.0516C22.6768 23.933 22.9204 23.7595 23.1212 23.5421C23.322 23.3247 23.4756 23.0682 23.5723 22.7885C23.6691 22.5089 23.707 22.2122 23.6835 21.9173V14.4C23.6835 14.1774 23.7719 13.964 23.9293 13.8066C24.0867 13.6492 24.3002 13.5608 24.5228 13.5608C24.7453 13.5608 24.9588 13.6492 25.1162 13.8066C25.2736 13.964 25.362 14.1774 25.362 14.4V24.9975C25.3527 25.2848 25.4012 25.571 25.5047 25.8392C25.6083 26.1073 25.7646 26.3519 25.9646 26.5584C26.1645 26.7649 26.4039 26.9291 26.6685 27.0413C26.9332 27.1534 27.2177 27.2112 27.5051 27.2112C27.7926 27.2112 28.0771 27.1534 28.3417 27.0413C28.6064 26.9291 28.8458 26.7649 29.0457 26.5584C29.2456 26.3519 29.402 26.1073 29.5055 25.8392C29.609 25.571 29.6576 25.2848 29.6482 24.9975V12.5708C29.6482 12.3482 29.7367 12.1347 29.8941 11.9773C30.0515 11.8199 30.2649 11.7315 30.4875 11.7315C30.7101 11.7315 30.9235 11.8199 31.0809 11.9773C31.2383 12.1347 31.3267 12.3482 31.3267 12.5708V17.1202C31.3448 17.6766 31.5785 18.2042 31.9784 18.5914C32.3784 18.9786 32.9132 19.1951 33.4699 19.1951C34.0265 19.1951 34.5614 18.9786 34.9613 18.5914C35.3613 18.2042 35.595 17.6766 35.613 17.1202V16.3778C35.6136 16.1667 35.6977 15.9644 35.8469 15.8152C35.9962 15.666 36.1984 15.5818 36.4095 15.5813H44.3475C44.5206 15.5813 44.6865 15.5125 44.8089 15.3901C44.9313 15.2678 45 15.1018 45 14.9288C45 14.7557 44.9313 14.5897 44.8089 14.4674C44.6865 14.345 44.5206 14.2763 44.3475 14.2763Z" fill="white"/>
<path d="M44.3475 14.2763H36.432C35.8748 14.2768 35.3407 14.4984 34.9467 14.8924C34.5527 15.2864 34.3311 15.8206 34.3305 16.3778V17.1202C34.3305 17.3428 34.2421 17.5563 34.0847 17.7137C33.9273 17.8711 33.7138 17.9595 33.4913 17.9595C33.2687 17.9595 33.0552 17.8711 32.8978 17.7137C32.7404 17.5563 32.652 17.3428 32.652 17.1202V12.5708C32.6613 12.2835 32.6128 11.9972 32.5093 11.7291C32.4057 11.461 32.2494 11.2164 32.0494 11.0098C31.8495 10.8033 31.6101 10.6391 31.3455 10.527C31.0808 10.4148 30.7963 10.3571 30.5089 10.3571C30.2214 10.3571 29.9369 10.4148 29.6723 10.527C29.4076 10.6391 29.1682 10.8033 28.9683 11.0098C28.7684 11.2164 28.612 11.461 28.5085 11.7291C28.405 11.9972 28.3564 12.2835 28.3658 12.5708V24.9975C28.3658 25.2201 28.2773 25.4335 28.1199 25.5909C27.9625 25.7483 27.7491 25.8368 27.5265 25.8368C27.3039 25.8368 27.0905 25.7483 26.9331 25.5909C26.7757 25.4335 26.6873 25.2201 26.6873 24.9975V14.4C26.7062 14.1076 26.665 13.8145 26.5662 13.5387C26.4674 13.2629 26.313 13.0103 26.1127 12.7965C25.9123 12.5827 25.6703 12.4123 25.4014 12.2958C25.1326 12.1793 24.8427 12.1192 24.5498 12.1192C24.2568 12.1192 23.9669 12.1793 23.6981 12.2958C23.4293 12.4123 23.1872 12.5827 22.9868 12.7965C22.7865 13.0103 22.6321 13.2629 22.5333 13.5387C22.4345 13.8145 22.3933 14.1076 22.4123 14.4V21.9173C22.4123 22.1398 22.3238 22.3533 22.1664 22.5107C22.0091 22.6681 21.7956 22.7565 21.573 22.7565C21.3504 22.7565 21.137 22.6681 20.9796 22.5107C20.8222 22.3533 20.7338 22.1398 20.7338 21.9173V7.182C20.691 6.64444 20.4473 6.14272 20.0511 5.77683C19.655 5.41095 19.1355 5.20776 18.5963 5.20776C18.057 5.20776 17.5375 5.41095 17.1414 5.77683C16.7452 6.14272 16.5015 6.64444 16.4588 7.182V24.9975C16.4588 25.2201 16.3703 25.4335 16.2129 25.5909C16.0556 25.7483 15.8421 25.8368 15.6195 25.8368C15.3969 25.8368 15.1835 25.7483 15.0261 25.5909C14.8687 25.4335 14.7803 25.2201 14.7803 24.9975V12.375C14.8037 12.08 14.7659 11.7834 14.6691 11.5037C14.5723 11.2241 14.4187 10.9675 14.2179 10.7501C14.0171 10.5327 13.7736 10.3593 13.5025 10.2406C13.2314 10.122 12.9387 10.0607 12.6427 10.0607C12.3468 10.0607 12.0541 10.122 11.783 10.2406C11.512 10.3593 11.2684 10.5327 11.0676 10.7501C10.8668 10.9675 10.7132 11.2241 10.6164 11.5037C10.5196 11.7834 10.4818 12.08 10.5053 12.375V20.9543C10.5053 21.1768 10.4168 21.3903 10.2594 21.5477C10.1021 21.7051 9.88858 21.7935 9.666 21.7935C9.44342 21.7935 9.22995 21.7051 9.07256 21.5477C8.91517 21.3903 8.82675 21.1768 8.82675 20.9543V17.1C8.82615 16.5428 8.60456 16.0087 8.21058 15.6147C7.8166 15.2207 7.28242 14.9991 6.72525 14.9985H0.6525C0.479446 14.9985 0.313484 15.0672 0.191116 15.1896C0.0687485 15.312 0 15.4779 0 15.651C0 15.8241 0.0687485 15.99 0.191116 16.1124C0.313484 16.2348 0.479446 16.3035 0.6525 16.3035H6.69375C6.90499 16.3035 7.10759 16.3874 7.25696 16.5368C7.40633 16.6862 7.49025 16.8888 7.49025 17.1V20.9543C7.50828 21.5106 7.74197 22.0382 8.14192 22.4254C8.54186 22.8126 9.07671 23.0291 9.63338 23.0291C10.19 23.0291 10.7249 22.8126 11.1248 22.4254C11.5248 22.0382 11.7585 21.5106 11.7765 20.9543V12.375C11.7765 12.1524 11.8649 11.939 12.0223 11.7816C12.1797 11.6242 12.3932 11.5358 12.6158 11.5358C12.8383 11.5358 13.0518 11.6242 13.2092 11.7816C13.3666 11.939 13.455 12.1524 13.455 12.375V24.9975C13.4315 25.2925 13.4694 25.5891 13.5662 25.8688C13.6629 26.1484 13.8165 26.405 14.0173 26.6224C14.2181 26.8398 14.4617 27.0132 14.7328 27.1319C15.0039 27.2505 15.2966 27.3118 15.5925 27.3118C15.8884 27.3118 16.1811 27.2505 16.4522 27.1319C16.7233 27.0132 16.9669 26.8398 17.1677 26.6224C17.3685 26.405 17.5221 26.1484 17.6188 25.8688C17.7156 25.5891 17.7535 25.2925 17.73 24.9975V7.182C17.73 6.95942 17.8184 6.74595 17.9758 6.58856C18.1332 6.43117 18.3467 6.34275 18.5693 6.34275C18.7918 6.34275 19.0053 6.43117 19.1627 6.58856C19.3201 6.74595 19.4085 6.95942 19.4085 7.182V21.9173C19.385 22.2122 19.4229 22.5089 19.5197 22.7885C19.6164 23.0682 19.7701 23.3247 19.9708 23.5421C20.1716 23.7595 20.4152 23.933 20.6863 24.0516C20.9574 24.1703 21.2501 24.2315 21.546 24.2315C21.8419 24.2315 22.1346 24.1703 22.4057 24.0516C22.6768 23.933 22.9204 23.7595 23.1212 23.5421C23.322 23.3247 23.4756 23.0682 23.5723 22.7885C23.6691 22.5089 23.707 22.2122 23.6835 21.9173V14.4C23.6835 14.1774 23.7719 13.964 23.9293 13.8066C24.0867 13.6492 24.3002 13.5608 24.5228 13.5608C24.7453 13.5608 24.9588 13.6492 25.1162 13.8066C25.2736 13.964 25.362 14.1774 25.362 14.4V24.9975C25.3527 25.2848 25.4012 25.571 25.5047 25.8392C25.6083 26.1073 25.7646 26.3519 25.9646 26.5584C26.1645 26.7649 26.4039 26.9291 26.6685 27.0413C26.9332 27.1534 27.2177 27.2112 27.5051 27.2112C27.7926 27.2112 28.0771 27.1534 28.3417 27.0413C28.6064 26.9291 28.8458 26.7649 29.0457 26.5584C29.2456 26.3519 29.402 26.1073 29.5055 25.8392C29.609 25.571 29.6576 25.2848 29.6482 24.9975V12.5708C29.6482 12.3482 29.7367 12.1347 29.8941 11.9773C30.0515 11.8199 30.2649 11.7315 30.4875 11.7315C30.7101 11.7315 30.9235 11.8199 31.0809 11.9773C31.2383 12.1347 31.3267 12.3482 31.3267 12.5708V17.1202C31.3448 17.6766 31.5785 18.2042 31.9784 18.5914C32.3784 18.9786 32.9132 19.1951 33.4699 19.1951C34.0265 19.1951 34.5614 18.9786 34.9613 18.5914C35.3613 18.2042 35.595 17.6766 35.613 17.1202V16.3778C35.6136 16.1667 35.6977 15.9644 35.8469 15.8152C35.9962 15.666 36.1984 15.5818 36.4095 15.5813H44.3475C44.5206 15.5813 44.6865 15.5125 44.8089 15.3901C44.9313 15.2678 45 15.1018 45 14.9288C45 14.7557 44.9313 14.5897 44.8089 14.4674C44.6865 14.345 44.5206 14.2763 44.3475 14.2763Z" stroke="white" stroke-width="0.4" mask="url(#path-4-outside-1)"/>
</g>
<defs>
<clipPath id="clip0">
<rect width="45" height="45" fill="white" transform="matrix(-1 0 0 1 45 0)"/>
</clipPath>
</defs>
</svg>
