<svg width="45" height="45" viewBox="0 0 45 45" fill="none" xmlns="http://www.w3.org/2000/svg">
<g clip-path="url(#clip0)">
<path d="M27.5015 12.602C27.6731 12.7737 27.898 12.8594 28.123 12.8594C28.3479 12.8594 28.5729 12.7737 28.7444 12.602C29.0876 12.2588 29.0876 11.7023 28.7444 11.359L28.7326 11.3471C28.3894 11.0039 27.8328 11.0039 27.4895 11.3471C27.1463 11.6903 27.1463 12.2468 27.4895 12.5901L27.5015 12.602Z" fill="white"/>
<path d="M41.6791 20.918L44.7426 17.8545C44.9939 17.6032 45.0691 17.2251 44.933 16.8967C44.797 16.5683 44.4765 16.3542 44.121 16.3542H37.7708C36.9408 12.9563 35.1987 9.86019 32.7083 7.36972C29.0896 3.75082 24.278 1.75781 19.1602 1.75781C14.0423 1.75781 9.23071 3.75082 5.6119 7.36972C1.99301 10.9886 0 15.8001 0 20.918C0 26.0358 1.99301 30.8474 5.6119 34.4662C6.68804 35.5424 7.87025 36.4735 9.13403 37.2524L6.48615 41.9303C6.33217 42.2024 6.33428 42.5359 6.49178 42.8059C6.64919 43.0761 6.93826 43.2422 7.25098 43.2422H11.7773C12.094 43.2422 12.3863 43.0719 12.5423 42.7962L14.4145 39.4885C15.9469 39.8772 17.538 40.0781 19.1602 40.0781C20.7823 40.0781 22.3734 39.8772 23.9058 39.4885L25.7781 42.7962C25.9341 43.0719 26.2263 43.2422 26.543 43.2422H31.0693C31.3821 43.2422 31.6711 43.0761 31.8286 42.806C31.9861 42.5359 31.9882 42.2024 31.8342 41.9304L29.1864 37.2524C30.4501 36.4735 31.6324 35.5424 32.7085 34.4663C35.1979 31.9769 36.9409 28.8795 37.7708 25.4819H44.1211C44.4765 25.4819 44.7971 25.2677 44.9331 24.9393C45.0692 24.611 44.9939 24.2329 44.7427 23.9815L41.6791 20.918ZM40.0721 20.0391H33.9383L35.8654 18.112H41.9992L40.0721 20.0391ZM11.2649 41.4844H8.75839L10.6714 38.1047C11.328 38.4297 12.002 38.7172 12.6916 38.9638L11.2649 41.4844ZM29.5619 41.4844H27.0555L25.6287 38.9638C26.3183 38.7172 26.9924 38.4297 27.6489 38.1047L29.5619 41.4844ZM31.4655 33.2233C30.3044 34.3843 29.0077 35.3601 27.6118 36.1379C27.5946 36.1463 27.5772 36.1542 27.5602 36.1637C27.5496 36.1698 27.5399 36.1767 27.5296 36.1832C26.4589 36.7722 25.3305 37.2451 24.1597 37.5944C24.1137 37.6036 24.0681 37.6171 24.0232 37.634C22.4628 38.0856 20.8296 38.3203 19.1602 38.3203C17.4907 38.3203 15.8575 38.0856 14.2971 37.6341C14.2521 37.6172 14.2066 37.6037 14.1604 37.5945C12.9897 37.2452 11.8614 36.7723 10.7907 36.1833C10.7804 36.1768 10.7707 36.1699 10.7601 36.1638C10.7431 36.1542 10.7258 36.1463 10.7086 36.138C9.31271 35.3602 8.01598 34.3844 6.85494 33.2233C3.56801 29.9364 1.75781 25.5663 1.75781 20.918C1.75781 16.2696 3.56801 11.8995 6.85485 8.61267C10.1417 5.32582 14.5118 3.51562 19.1602 3.51562C23.8085 3.51562 28.1786 5.32582 31.4655 8.61267C33.6252 10.7724 35.1656 13.4329 35.9565 16.3542H35.5014C35.2683 16.3542 35.0447 16.4468 34.8799 16.6116L32.5472 18.9443C32.3118 17.3464 31.7952 15.7926 31.0151 14.3796C30.7805 13.9547 30.2458 13.8005 29.8209 14.035C29.3959 14.2696 29.2416 14.8043 29.4762 15.2292C30.3106 16.7404 30.7767 18.3835 30.8959 20.0392H27.0207C26.825 18.2588 26.0383 16.6096 24.7535 15.3248C23.2595 13.8306 21.273 13.0078 19.1602 13.0078C17.0473 13.0078 15.0608 13.8306 13.5669 15.3246C12.0728 16.8188 11.25 18.8051 11.25 20.918C11.25 23.0309 12.0728 25.0173 13.5668 26.5112C15.0609 28.0053 17.0473 28.8281 19.1602 28.8281C21.273 28.8281 23.2595 28.0053 24.7534 26.5113C26.0382 25.2265 26.8249 23.5773 27.0206 21.7969H30.8921C30.6824 24.5443 29.5231 27.2106 27.488 29.2458C25.2635 31.4703 22.3059 32.6953 19.1602 32.6953C16.0144 32.6953 13.0568 31.4703 10.8323 29.2458C8.60783 27.0214 7.38281 24.0638 7.38281 20.918C7.38281 17.7721 8.60783 14.8146 10.8323 12.5902C14.5222 8.90033 20.286 8.08277 24.849 10.602C25.2738 10.8365 25.8086 10.6823 26.0432 10.2574C26.2778 9.83241 26.1236 9.29777 25.6986 9.06311C23.181 7.67311 20.2165 7.11914 17.3515 7.50357C14.3909 7.90066 11.7068 9.22975 9.58939 11.3472C7.03292 13.9037 5.625 17.3026 5.625 20.918C5.625 24.5333 7.03292 27.9323 9.58931 30.4887C12.1458 33.0452 15.5448 34.4531 19.1602 34.4531C22.7755 34.4531 26.1745 33.0452 28.7309 30.4888C30.8082 28.4116 32.126 25.7889 32.5503 22.8949L34.8798 25.2244C35.0446 25.3892 35.2682 25.4819 35.5013 25.4819H35.9562C35.1653 28.4029 33.6243 31.0644 31.4655 33.2233ZM22.0307 19.2607C21.788 18.8402 21.2505 18.6963 20.8301 18.939L18.7207 20.1568C18.4488 20.3138 18.2812 20.6039 18.2812 20.918C18.2812 21.232 18.4488 21.5221 18.7207 21.6791L20.8301 22.8969C20.9685 22.9768 21.1196 23.0148 21.2687 23.0148C21.5725 23.0148 21.8679 22.8572 22.0307 22.5752C22.1733 22.3283 22.1815 22.0411 22.0794 21.7969H25.2498C25.0636 23.1067 24.4627 24.3162 23.5105 25.2683C22.3485 26.4304 20.8035 27.0703 19.1602 27.0703C17.5168 27.0703 15.9718 26.4304 14.8097 25.2683C13.6477 24.1063 13.0078 22.5613 13.0078 20.918C13.0078 19.2746 13.6477 17.7296 14.8098 16.5676C15.9718 15.4056 17.5168 14.7656 19.1602 14.7656C20.8035 14.7656 22.3485 15.4056 23.5106 16.5676C24.4627 17.5198 25.0637 18.7292 25.2499 20.0391H22.0795C22.1815 19.7947 22.1733 19.5077 22.0307 19.2607ZM35.8654 23.724L33.9383 21.7969H40.0721L41.9992 23.724H35.8654Z" fill="white"/>
</g>
<defs>
<clipPath id="clip0">
<rect width="45" height="45" fill="white"/>
</clipPath>
</defs>
</svg>
