<svg width="45" height="45" viewBox="0 0 45 45" fill="none" xmlns="http://www.w3.org/2000/svg">
<g clip-path="url(#clip0)">
<path d="M35.0693 6.09433C34.853 6.09433 34.6361 6.01468 34.4661 5.85435L34.4462 5.83581C34.0915 5.5045 34.0727 4.94832 34.404 4.59367C34.7353 4.23867 35.2915 4.21979 35.6465 4.55109L35.6732 4.5765C36.0262 4.90987 36.042 5.46605 35.7086 5.81899C35.5356 6.00198 35.3028 6.09433 35.0693 6.09433Z" fill="white"/>
<path d="M27.981 21.5112C27.981 20.0785 29.1466 18.913 30.5793 18.913C32.0119 18.913 33.1775 20.0785 33.1775 21.5112C33.1775 22.9439 32.0119 24.1095 30.5793 24.1095C29.1466 24.1095 27.981 22.9439 27.981 21.5112ZM31.4197 21.5112C31.4197 21.0477 31.0427 20.6708 30.5793 20.6708C30.1158 20.6708 29.7388 21.0477 29.7388 21.5112C29.7388 21.9747 30.1158 22.3517 30.5793 22.3517C31.0427 22.3517 31.4197 21.9747 31.4197 21.5112Z" fill="white"/>
<path d="M7.00233 9.09667H9.49245V6.60655C9.49245 6.12109 9.8859 5.72765 10.3714 5.72765C10.8568 5.72765 11.2503 6.12109 11.2503 6.60655V9.09667H13.7404C14.2258 9.09667 14.6193 9.49012 14.6193 9.97558C14.6193 10.461 14.2258 10.8545 13.7404 10.8545H11.2503V13.3446C11.2503 13.8301 10.8568 14.2235 10.3714 14.2235C9.8859 14.2235 9.49245 13.8301 9.49245 13.3446V10.8545H7.00233C6.51687 10.8545 6.12343 10.461 6.12343 9.97558C6.12343 9.49012 6.51687 9.09667 7.00233 9.09667Z" fill="white"/>
<path d="M-0.0874405 9.97559C-0.0874405 4.47487 4.38777 0 9.88815 0C11.8674 0 13.7536 0.568542 15.3844 1.65035C16.1401 1.12885 17.0348 0.847664 17.9679 0.847664C18.2223 0.847664 18.4712 0.869293 18.7143 0.909462C18.7606 0.884056 18.8094 0.862083 18.8616 0.844917C20.5596 0.284271 22.3357 0 24.1398 0C27.2246 0 30.2417 0.842857 32.8647 2.4369C33.2794 2.68925 33.4113 3.22964 33.1593 3.64471C32.9938 3.91663 32.704 4.067 32.4074 4.067C32.2518 4.067 32.0943 4.0258 31.9514 3.93894C29.6038 2.51209 26.9025 1.75781 24.1398 1.75781C23.1023 1.75781 22.0758 1.86321 21.0719 2.07092C21.9669 2.90417 22.5286 4.09138 22.5286 5.40802C22.5286 6.17466 22.3339 6.92688 21.9707 7.59293C23.2949 8.85807 24.0657 10.6296 24.0657 12.4767C24.0657 13.2983 23.9177 14.0858 23.6478 14.8147C25.4551 14.9129 26.8953 16.4143 26.8953 18.2455C26.8953 20.1407 25.3538 21.6822 23.459 21.6822C21.6998 21.6822 20.2462 20.3532 20.0467 18.6469C19.2114 19.018 18.2882 19.2257 17.3166 19.2257C16.4127 19.2257 15.5403 19.0513 14.7173 18.7056C13.2438 19.5217 11.5845 19.9512 9.88815 19.9512C9.64061 19.9512 9.39479 19.9419 9.15172 19.924C9.54448 24.7124 11.487 29.2902 14.6754 32.8999L14.9209 33.178C15.0631 33.3387 15.1413 33.5457 15.1413 33.76V43.2422H16.8782V36.9141C16.8782 36.4286 17.2716 36.0352 17.7571 36.0352C18.2422 36.0352 18.636 36.4286 18.636 36.9141V43.2422H30.0827V36.1337C30.0827 35.6482 30.4762 35.2548 30.9616 35.2548H34.9421C36.8537 35.2548 38.4087 33.6995 38.4087 31.7883V27.4511C38.4087 26.9659 38.8021 26.5722 39.2876 26.5722H43.0912L39.2701 17.39C39.2254 17.2829 39.2024 17.1682 39.2024 17.0522V16.8208C39.2024 13.8682 38.3489 11.01 36.7339 8.55457C36.4672 8.14911 36.5798 7.60391 36.9852 7.33715C37.3907 7.07039 37.9359 7.183 38.2027 7.58846C40.0065 10.3316 40.9602 13.5238 40.9602 16.8204V16.8767L44.7866 26.0712C44.9967 26.5759 44.9411 27.1489 44.6376 27.6038C44.3341 28.0584 43.8266 28.3303 43.2801 28.3303H40.1665V31.7883C40.1665 34.6687 37.8229 37.0126 34.9421 37.0126H31.8405V44.1211C31.8405 44.6066 31.4471 45 30.9616 45H14.2624C13.777 45 13.3835 44.6066 13.3835 44.1211V34.0923L13.3578 34.0635C9.82154 30.06 7.7053 24.952 7.36747 19.6281C3.08349 18.5085 -0.0874405 14.6056 -0.0874405 9.97559ZM23.459 19.9244C24.3846 19.9244 25.1379 19.1715 25.1379 18.2455C25.1379 17.3199 24.3846 16.567 23.459 16.567C22.5334 16.567 21.7805 17.3199 21.7805 18.2455C21.7805 19.1715 22.5334 19.9244 23.459 19.9244ZM9.88815 18.1934C11.4183 18.1934 12.9114 17.7697 14.2065 16.9684C14.3476 16.8808 14.5082 16.8365 14.6689 16.8365C14.8049 16.8365 14.9412 16.8681 15.0661 16.9316C15.7693 17.2877 16.5263 17.4679 17.3166 17.4679C20.069 17.4679 22.3082 15.2291 22.3082 12.4767C22.3082 10.8789 21.569 9.41631 20.2805 8.46359C20.0862 8.31974 19.9599 8.10276 19.9307 7.86278C19.9015 7.6228 19.9726 7.38178 20.1267 7.1957C20.5421 6.69479 20.7708 6.05999 20.7708 5.40802C20.7708 3.86272 19.5135 2.60548 17.9682 2.60548C17.2414 2.60548 16.5524 2.88322 16.0271 3.38757C15.714 3.68866 15.2278 3.71544 14.8835 3.45108C13.4391 2.34352 11.7119 1.75781 9.88815 1.75781C5.35697 1.75781 1.67037 5.44441 1.67037 9.97559C1.67037 14.5068 5.35697 18.1934 9.88815 18.1934Z" fill="white"/>
<path d="M17.7569 34.2773C17.5259 34.2773 17.2989 34.1833 17.1355 34.0199C16.9721 33.8564 16.878 33.6295 16.878 33.3984C16.878 33.1674 16.9721 32.9404 17.1355 32.777C17.2989 32.6136 17.5259 32.5195 17.7569 32.5195C17.988 32.5195 18.2149 32.6136 18.3783 32.777C18.5418 32.9404 18.6358 33.1674 18.6358 33.3984C18.6358 33.6295 18.5418 33.8564 18.3783 34.0199C18.2149 34.1833 17.988 34.2773 17.7569 34.2773Z" fill="white"/>
</g>
<defs>
<clipPath id="clip0">
<rect width="45" height="45" fill="white" transform="matrix(-1 0 0 1 45 0)"/>
</clipPath>
</defs>
</svg>
