<svg width="45" height="45" viewBox="0 0 45 45" fill="none" xmlns="http://www.w3.org/2000/svg">
<g clip-path="url(#clip0)">
<path d="M35.4878 37.1214C35.4878 37.6068 35.8814 38.0003 36.3668 38.0003H38.1248C38.4387 38.0003 38.729 37.8328 38.8859 37.5609C39.0429 37.2889 39.0429 36.9539 38.8859 36.6819L23.2609 9.61851C23.1039 9.34656 22.8137 9.17903 22.4997 9.17903C22.1858 9.17903 21.8955 9.34656 21.7386 9.61851L6.11354 36.6819C5.95656 36.9539 5.95656 37.2889 6.11354 37.5609C6.27052 37.8328 6.56075 38.0003 6.87472 38.0003H28.4562C28.9415 38.0003 29.3351 37.6068 29.3351 37.1214C29.3351 36.636 28.9415 36.2424 28.4562 36.2424H8.39716L22.4997 11.816L36.6023 36.2424H36.3667C35.8813 36.2424 35.4878 36.6359 35.4878 37.1214Z" fill="white"/>
<path d="M44.5829 37.7806L25.1768 4.16818C24.6319 3.19755 23.6388 2.61339 22.5188 2.60513C22.5108 2.60504 22.5029 2.60504 22.495 2.60504C21.3872 2.60504 20.3967 3.17575 19.8417 4.13566L17.9417 7.42647C17.699 7.84687 17.843 8.38435 18.2634 8.62712C18.684 8.8698 19.2214 8.72583 19.4641 8.30542L21.3638 5.01505C21.707 4.42132 22.2791 4.36225 22.5057 4.36287C22.9875 4.36647 23.4135 4.61627 23.6454 5.03122C23.6473 5.03492 23.6494 5.03843 23.6514 5.04203L43.0607 38.6601C43.3018 39.077 43.3022 39.5549 43.0619 39.971C42.8228 40.3851 42.3985 40.6322 41.9258 40.6322H41.9246L3.0748 40.6371C2.36276 40.6371 2.02726 40.1497 1.91598 39.9402C1.68095 39.4975 1.70539 38.9895 1.98147 38.5814C1.99324 38.5642 2.00432 38.5465 2.01469 38.5283L15.5086 15.1562C15.7514 14.7358 15.6073 14.1983 15.1869 13.9555C14.7664 13.7128 14.2289 13.8569 13.9862 14.2772L0.506754 37.6246C-0.11291 38.5625 -0.168548 39.7624 0.363396 40.7645C0.90536 41.7855 1.91897 42.395 3.07498 42.395L41.9239 42.3901H41.9268C43.034 42.3901 44.0273 41.8146 44.5842 40.8501C45.1392 39.8892 45.1386 38.7415 44.5829 37.7806Z" fill="white"/>
<path d="M16.2372 12.023C16.3871 12.1229 16.5565 12.1707 16.724 12.1707C17.0079 12.1707 17.2867 12.0333 17.4561 11.7792L17.4564 11.7787C17.7257 11.3748 17.6164 10.8293 17.2125 10.5601C16.8086 10.2909 16.2627 10.4002 15.9935 10.8041C15.7242 11.2079 15.8333 11.7537 16.2372 12.023Z" fill="white"/>
<path d="M32.4109 36.2424C31.9256 36.2424 31.5323 36.636 31.5323 37.1214C31.5323 37.6068 31.9262 38.0004 32.4116 38.0004C32.8971 38.0004 33.2906 37.6068 33.2906 37.1214C33.2906 36.636 32.897 36.2424 32.4116 36.2424H32.4109Z" fill="white"/>
<path d="M30.5528 29.1042C30.7104 28.8319 30.7104 28.4962 30.5528 28.2238C29.875 27.0521 28.9589 26.0617 27.8865 25.3002L28.4375 24.3459C28.6803 23.9255 28.5363 23.388 28.1158 23.1452C27.6954 22.9025 27.158 23.0465 26.9152 23.4669L26.3642 24.4212C25.4288 23.9925 24.4203 23.7169 23.3779 23.6171V22.519C23.3779 22.0337 22.9843 21.6401 22.499 21.6401C22.0136 21.6401 21.62 22.0337 21.62 22.519V23.6171C20.5777 23.7169 19.5691 23.9925 18.6337 24.4211L18.0827 23.4669C17.84 23.0467 17.3026 22.9024 16.8821 23.1452C16.4617 23.388 16.3176 23.9255 16.5604 24.3459L17.1114 25.3001C16.039 26.0617 15.1228 27.0521 14.4449 28.2238C14.2874 28.4962 14.2874 28.8319 14.4449 29.1042C15.1228 30.2759 16.039 31.2662 17.1113 32.0277L16.5603 32.9821C16.3175 33.4025 16.4616 33.9401 16.882 34.1828C17.0204 34.2627 17.1715 34.3007 17.3206 34.3007C17.6244 34.3007 17.9199 34.143 18.0826 33.8611L18.6336 32.9068C19.569 33.3355 20.5776 33.6111 21.6199 33.7109V34.8089C21.6199 35.2942 22.0135 35.6878 22.4989 35.6878C22.9842 35.6878 23.3778 35.2942 23.3778 34.8089V33.7109C24.4202 33.611 25.4287 33.3355 26.3642 32.9068L26.9151 33.8611C27.078 34.143 27.3733 34.3007 27.6772 34.3007C27.8262 34.3007 27.9774 34.2627 28.1158 34.1828C28.5362 33.9401 28.6802 33.4025 28.4375 32.9821L27.8864 32.0277C28.9588 31.2662 29.875 30.2759 30.5528 29.1042ZM22.4988 31.9951C19.9888 31.9951 17.6367 30.7308 16.2418 28.6641C17.6366 26.5972 19.9887 25.3331 22.4988 25.3331C25.0089 25.3331 27.3609 26.5973 28.7558 28.6641C27.361 30.7308 25.0088 31.9951 22.4988 31.9951Z" fill="white"/>
<path d="M22.4982 26.0271C21.0442 26.0271 19.8613 27.21 19.8613 28.664C19.8613 30.1179 21.0442 31.3008 22.4982 31.3008C23.9522 31.3008 25.1351 30.1179 25.1351 28.664C25.1351 27.21 23.9522 26.0271 22.4982 26.0271ZM22.4982 29.5429C22.0135 29.5429 21.6192 29.1486 21.6192 28.664C21.6192 28.1793 22.0135 27.785 22.4982 27.785C22.9829 27.785 23.3772 28.1793 23.3772 28.664C23.3772 29.1486 22.9829 29.5429 22.4982 29.5429Z" fill="white"/>
</g>
<defs>
<clipPath id="clip0">
<rect width="45" height="45" fill="white"/>
</clipPath>
</defs>
</svg>
