<svg width="45" height="45" viewBox="0 0 45 45" fill="none" xmlns="http://www.w3.org/2000/svg">
<g clip-path="url(#clip0)">
<path d="M9.84481 35.2788C9.14142 34.5754 8.20626 34.1881 7.21169 34.1881C6.62414 34.1881 6.05777 34.3243 5.54722 34.5799C0.530146 27.4718 0.512743 17.7314 5.58967 10.606C5.87127 10.2107 5.77916 9.66192 5.38383 9.38023C4.98849 9.09854 4.4397 9.19065 4.15801 9.58598C1.35755 13.5164 -0.0791134 18.1577 0.00332816 23.0081C0.0818146 27.6241 1.53113 32.0028 4.20134 35.72C3.14033 37.1754 3.26592 39.2323 4.57857 40.5451C5.30455 41.271 6.25808 41.634 7.21169 41.634C8.16531 41.634 9.11884 41.271 9.84481 40.5451C11.2967 39.0931 11.2967 36.7308 9.84481 35.2788ZM8.60177 39.302C7.8351 40.0685 6.58802 40.0685 5.82152 39.302C5.05494 38.5355 5.05494 37.2882 5.82152 36.5217C6.19286 36.1504 6.68654 35.9458 7.2116 35.9458C7.73666 35.9458 8.23043 36.1504 8.60169 36.5217C9.36836 37.2883 9.36836 38.5355 8.60177 39.302Z" fill="white"/>
<path d="M35.8562 39.6515C35.5722 39.2581 35.0229 39.1695 34.6292 39.4538C32.1166 41.2694 29.292 42.4722 26.234 43.0288C25.5254 43.1578 24.8027 42.9679 24.2514 42.5079C23.704 42.0512 23.3902 41.3802 23.3902 40.6672V34.2249H23.4669C24.4846 34.2249 25.3126 33.397 25.3126 32.3792V30.8954C28.2897 29.7589 30.4103 26.8738 30.4103 23.5024V19.3412C31.8267 18.9543 32.8712 17.6569 32.8712 16.1195C32.8712 14.427 31.6053 13.0254 29.9708 12.8095V7.33044C29.9708 5.87655 28.788 4.69372 27.3341 4.69372C25.8802 4.69372 24.6974 5.87655 24.6974 7.33044V12.7797H20.3028V7.33044C20.3028 5.87655 19.12 4.69372 17.6661 4.69372C16.2122 4.69372 15.0294 5.87655 15.0294 7.33044V12.8095C13.3949 13.0254 12.129 14.4269 12.129 16.1195C12.129 17.6569 13.1735 18.9543 14.5899 19.3412V23.5024C14.5899 26.8738 16.7105 29.7589 19.6876 30.8954V32.3793C19.6876 33.3971 20.5156 34.225 21.5333 34.225H21.6324V40.6672C21.6324 41.9032 22.1765 43.066 23.1252 43.8576C23.8824 44.4894 24.826 44.8264 25.7952 44.8264C26.0456 44.8264 26.2977 44.8039 26.5487 44.7582C29.8668 44.1542 32.9318 42.849 35.6585 40.8786C36.052 40.5943 36.1404 40.0449 35.8562 39.6515ZM26.4553 7.33044C26.4553 6.84581 26.8496 6.45154 27.3342 6.45154C27.8188 6.45154 28.2131 6.84581 28.2131 7.33044V12.7797H26.4553V7.33044ZM16.7873 7.33044C16.7873 6.84581 17.1816 6.45154 17.6662 6.45154C18.1508 6.45154 18.5451 6.84581 18.5451 7.33044V12.7797H16.7873V7.33044ZM13.8869 16.1195C13.8869 15.2472 14.5966 14.5375 15.4689 14.5375H29.5315C30.4038 14.5375 31.1135 15.2472 31.1135 16.1195C31.1135 16.9918 30.4038 17.7016 29.5315 17.7016H15.4689C14.5966 17.7016 13.8869 16.9918 13.8869 16.1195ZM16.3478 23.5024V19.4594H28.6525V23.5024C28.6525 26.8948 25.8926 29.6547 22.5002 29.6547C19.1078 29.6547 16.3478 26.8948 16.3478 23.5024ZM22.5335 32.4672C22.5261 32.467 22.5188 32.4661 22.5114 32.4661C22.5041 32.4661 22.4968 32.467 22.4894 32.4672H21.5336C21.4849 32.4672 21.4455 32.4278 21.4455 32.3793V31.342C21.7906 31.3883 22.1426 31.4125 22.5002 31.4125C22.8577 31.4125 23.2097 31.3883 23.5549 31.342V32.3793C23.5549 32.4278 23.5155 32.4672 23.467 32.4672H22.5335Z" fill="white"/>
<path d="M38.3882 37.2693C38.0399 36.9441 37.4972 36.9567 37.1641 37.2934C37.1573 37.3002 37.1506 37.3073 37.1441 37.314C36.8129 37.6689 36.8321 38.225 37.187 38.5563C37.3564 38.7144 37.5716 38.7926 37.7865 38.7926C38.0135 38.7926 38.24 38.7052 38.4111 38.5322C38.4179 38.5253 38.4246 38.5183 38.431 38.5115C38.7623 38.1566 38.7431 37.6006 38.3882 37.2693Z" fill="white"/>
<path d="M44.9403 20.9806C44.5488 15.6001 42.2296 10.5334 38.4103 6.71389C34.6563 2.95963 29.6416 0.661641 24.2901 0.243368C19.0037 -0.169982 13.7425 1.26457 9.47378 4.28239C9.07739 4.56259 8.98326 5.11111 9.26346 5.50741C9.54357 5.90371 10.0922 5.99802 10.4885 5.71773C18.6512 -0.0529111 30.1206 0.909581 37.1674 7.95684C44.4497 15.2396 45.3303 26.5489 39.261 34.8479C38.9745 35.2397 39.0598 35.7896 39.4517 36.0762C39.6081 36.1906 39.7898 36.2457 39.9699 36.2457C40.2407 36.2457 40.5078 36.121 40.68 35.8855C43.8149 31.5988 45.328 26.3055 44.9403 20.9806Z" fill="white"/>
<path d="M7.72633 6.81549C7.38153 6.47386 6.82501 6.47614 6.48329 6.82103L6.46896 6.83562C6.12724 7.18032 6.12979 7.73685 6.4745 8.07857C6.64588 8.24837 6.86957 8.33319 7.09325 8.33319C7.31939 8.33319 7.54562 8.24635 7.71754 8.07303L7.73186 8.05844C8.07358 7.71373 8.07103 7.15721 7.72633 6.81549Z" fill="white"/>
<path d="M24.4817 23.1769C24.3242 22.9067 24.0351 22.7406 23.7223 22.7406H23.0943L24.2511 21.2793C24.5524 20.8988 24.4881 20.3459 24.1075 20.0447C23.7269 19.7433 23.1741 19.8078 22.8728 20.1883L20.5883 23.074C20.3792 23.3383 20.3395 23.6989 20.4863 24.0023C20.6331 24.3057 20.9404 24.4984 21.2775 24.4984H22.2144L21.1381 26.3988C20.8989 26.8212 21.0474 27.3575 21.4696 27.5967C21.6065 27.6742 21.7552 27.711 21.902 27.711C22.2085 27.7109 22.506 27.5505 22.6677 27.265L24.4872 24.0526C24.6413 23.7805 24.6392 23.4471 24.4817 23.1769Z" fill="white"/>
</g>
<defs>
<clipPath id="clip0">
<rect width="45" height="45" fill="white"/>
</clipPath>
</defs>
</svg>
