<svg width="38" height="45" viewBox="0 0 38 45" fill="none" xmlns="http://www.w3.org/2000/svg">
<path d="M36.1956 1.95653H33.2609V0.978223C33.2609 0.438047 32.8228 0 32.2827 0C31.7425 0 31.3044 0.438047 31.3044 0.978223V1.95645H29.3479V0.978223C29.3479 0.438047 28.9099 0 28.3697 0C27.8295 0 27.3915 0.438047 27.3915 0.978223V1.95645H25.4349V0.978223C25.4349 0.438047 24.9969 0 24.4567 0C23.9165 0 23.4785 0.438047 23.4785 0.978223V1.95645H21.522V0.978223C21.522 0.438047 21.0839 0 20.5437 0C20.0036 0 19.5655 0.438047 19.5655 0.978223V1.95645H17.6087V0.978223C17.6087 0.438047 17.1707 0 16.6305 0C16.0903 0 15.6523 0.438047 15.6523 0.978223V1.95645H13.6957V0.978223C13.6957 0.438047 13.2577 0 12.7175 0C12.1773 0 11.7393 0.438047 11.7393 0.978223V1.95645H9.78275V0.978223C9.78275 0.438047 9.34471 0 8.80453 0C8.26435 0 7.82631 0.438047 7.82631 0.978223V1.95645H5.86978V0.978223C5.86978 0.438047 5.43173 0 4.89155 0C4.35138 0 3.91333 0.438047 3.91333 0.978223V1.95645H0.978223C0.438047 1.95645 0 2.39449 0 2.93467V44.0218C0 44.562 0.438047 45 0.978223 45H36.1956C36.7358 45 37.1739 44.562 37.1739 44.0218V2.93476C37.1739 2.39458 36.7358 1.95653 36.1956 1.95653ZM35.2173 43.0435H1.95653V3.91307H3.91307V4.89129C3.91307 5.43146 4.35111 5.86951 4.89129 5.86951C5.43147 5.86951 5.86951 5.43146 5.86951 4.89129V3.91307H7.82605V4.89129C7.82605 5.43146 8.26409 5.86951 8.80427 5.86951C9.34444 5.86951 9.78249 5.43146 9.78249 4.89129V3.91307H11.739V4.89129C11.739 5.43146 12.1771 5.86951 12.7172 5.86951C13.2574 5.86951 13.6955 5.43146 13.6955 4.89129V3.91307H15.652V4.89129C15.652 5.43146 16.09 5.86951 16.6302 5.86951C17.1704 5.86951 17.6084 5.43146 17.6084 4.89129V3.91307H19.565V4.89129C19.565 5.43146 20.003 5.86951 20.5432 5.86951C21.0834 5.86951 21.5214 5.43146 21.5214 4.89129V3.91307H23.478V4.89129C23.478 5.43146 23.916 5.86951 24.4562 5.86951C24.9964 5.86951 25.4344 5.43146 25.4344 4.89129V3.91307H27.3909V4.89129C27.3909 5.43146 27.829 5.86951 28.3692 5.86951C28.9093 5.86951 29.3474 5.43146 29.3474 4.89129V3.91307H31.3039V4.89129C31.3039 5.43146 31.742 5.86951 32.2821 5.86951C32.8223 5.86951 33.2604 5.43146 33.2604 4.89129V3.91307H35.2169V43.0435H35.2173Z" fill="white"/>
<path d="M18.5876 9.78259H14.6745C14.1343 9.78259 13.6963 10.2206 13.6963 10.7608C13.6963 11.301 14.1343 11.739 14.6745 11.739H18.5876C19.1278 11.739 19.5658 11.301 19.5658 10.7608C19.5658 10.2207 19.1278 9.78259 18.5876 9.78259Z" fill="white"/>
<path d="M12.6976 10.5702C12.6858 10.5076 12.6663 10.4459 12.6419 10.3862C12.6174 10.3274 12.5871 10.2708 12.5519 10.218C12.5167 10.1641 12.4757 10.1142 12.4306 10.0692C12.3856 10.0242 12.3357 9.98314 12.2819 9.9479C12.229 9.91169 12.1723 9.88233 12.1126 9.8579C12.0539 9.83346 11.9924 9.81386 11.9298 9.80226C11.8036 9.77669 11.6735 9.77669 11.5482 9.80226C11.4857 9.81386 11.424 9.83346 11.3643 9.8579C11.3055 9.88233 11.2489 9.91169 11.1961 9.9479C11.1422 9.98314 11.0923 10.0242 11.0473 10.0692C11.0023 10.1142 10.9612 10.1641 10.926 10.218C10.8908 10.2708 10.8604 10.3275 10.836 10.3862C10.8115 10.4459 10.7919 10.5075 10.7803 10.5702C10.7675 10.6327 10.7607 10.6973 10.7607 10.7609C10.7607 10.8243 10.7675 10.889 10.7803 10.9516C10.7919 11.0142 10.8115 11.0759 10.836 11.1344C10.8604 11.1941 10.8908 11.2509 10.926 11.3037C10.9612 11.3575 11.0023 11.4074 11.0473 11.4524C11.0923 11.4975 11.1422 11.5386 11.1961 11.5737C11.2489 11.6089 11.3055 11.6393 11.3643 11.6637C11.424 11.6881 11.4856 11.7077 11.5482 11.7194C11.6108 11.7322 11.6754 11.739 11.739 11.739C11.8024 11.739 11.8671 11.7322 11.9297 11.7194C11.9923 11.7076 12.054 11.6881 12.1125 11.6637C12.1722 11.6393 12.229 11.6089 12.2818 11.5737C12.3356 11.5385 12.3855 11.4975 12.4305 11.4524C12.4756 11.4074 12.5167 11.3575 12.5518 11.3037C12.587 11.2509 12.6173 11.1941 12.6418 11.1344C12.6662 11.0757 12.6858 11.0142 12.6975 10.9516C12.7102 10.8889 12.7171 10.8243 12.7171 10.7609C12.7171 10.6973 12.7102 10.6327 12.6976 10.5702Z" fill="white"/>
<path d="M8.80437 9.78259H4.89131C4.35113 9.78259 3.91309 10.2206 3.91309 10.7608C3.91309 11.301 4.35113 11.739 4.89131 11.739H8.80437C9.34454 11.739 9.78259 11.301 9.78259 10.7608C9.78259 10.2207 9.34454 9.78259 8.80437 9.78259Z" fill="white"/>
<path d="M32.2826 13.6956H4.89131C4.35113 13.6956 3.91309 14.1336 3.91309 14.6738C3.91309 15.214 4.35113 15.652 4.89131 15.652H32.2826C32.8228 15.652 33.2608 15.214 33.2608 14.6738C33.2608 14.1336 32.8228 13.6956 32.2826 13.6956Z" fill="white"/>
<path d="M32.2826 17.6086H4.89131C4.35113 17.6086 3.91309 18.0467 3.91309 18.5869C3.91309 19.127 4.35113 19.5651 4.89131 19.5651H32.2826C32.8228 19.5651 33.2608 19.127 33.2608 18.5869C33.2608 18.0467 32.8228 17.6086 32.2826 17.6086Z" fill="white"/>
<path d="M12.7173 21.5217H4.89131C4.35113 21.5217 3.91309 21.9598 3.91309 22.5C3.91309 23.0401 4.35113 23.4782 4.89131 23.4782H12.7173C13.2575 23.4782 13.6956 23.0401 13.6956 22.5C13.6957 21.9598 13.2576 21.5217 12.7173 21.5217Z" fill="white"/>
</svg>
