<svg width="45" height="45" viewBox="0 0 45 45" fill="none" xmlns="http://www.w3.org/2000/svg">
<g clip-path="url(#clip0)">
<path d="M0.865569 18.964C0.332037 18.964 -0.1 19.3959 -0.1 19.929V24.2559C-0.1 24.7895 0.332 25.2215 0.865569 25.2215C1.39868 25.2215 1.83064 24.7894 1.83064 24.2559V19.929C1.83064 19.396 1.39864 18.964 0.865569 18.964Z" fill="white" stroke="white" stroke-width="0.2"/>
<path d="M5.19546 15.4205C4.66239 15.4205 4.2299 15.853 4.2299 16.3861V28.3674C4.2299 28.901 4.66243 29.3329 5.19546 29.3329C5.7285 29.3329 6.16103 28.901 6.16103 28.3674V16.3861C6.16103 15.853 5.72854 15.4205 5.19546 15.4205Z" fill="white" stroke="white" stroke-width="0.2"/>
<path d="M9.51941 9.44469C8.98641 9.44469 8.55384 9.87661 8.55384 10.4098V34.6408C8.55384 35.1738 8.98633 35.6063 9.51941 35.6063C10.0525 35.6063 10.485 35.1738 10.485 34.6408V10.4098C10.485 9.87661 10.0524 9.44469 9.51941 9.44469Z" fill="white" stroke="white" stroke-width="0.2"/>
<path d="M13.8461 13.7715C13.313 13.7715 12.8805 14.2035 12.8805 14.7371V29.4483C12.8805 29.9814 13.313 30.4139 13.8461 30.4139C14.3791 30.4139 14.8116 29.9814 14.8116 29.4483V14.7371C14.8116 14.2035 14.3791 13.7715 13.8461 13.7715Z" fill="white" stroke="white" stroke-width="0.2"/>
<path d="M26.9114 11.6765C26.3783 11.6765 25.9463 12.1085 25.9463 12.642V32.1119C25.9463 32.645 26.3783 33.077 26.9114 33.077C27.4444 33.077 27.877 32.645 27.877 32.1119V12.642C27.877 12.1084 27.4444 11.6765 26.9114 11.6765Z" fill="white" stroke="white" stroke-width="0.2"/>
<path d="M35.4809 12.906C34.9478 12.906 34.5153 13.3385 34.5153 13.8715V31.179C34.5153 31.7126 34.9479 32.1445 35.4809 32.1445C36.014 32.1445 36.446 31.7125 36.446 31.179V13.8715C36.446 13.3385 36.014 12.906 35.4809 12.906Z" fill="white" stroke="white" stroke-width="0.2"/>
<path d="M39.8078 17.2328C39.2748 17.2328 38.8423 17.6653 38.8423 18.1984V26.8521C38.8423 27.3852 39.2748 27.8177 39.8078 27.8177C40.341 27.8177 40.7729 27.3851 40.7729 26.8521V18.1984C40.7729 17.6654 40.341 17.2328 39.8078 17.2328Z" fill="white" stroke="white" stroke-width="0.2"/>
<path d="M31.154 5.9829C30.6204 5.9829 30.1884 6.41543 30.1884 6.94847V38.102C30.1884 38.6356 30.6204 39.0676 31.154 39.0676C31.6871 39.0676 32.1191 38.6356 32.1191 38.102V6.94847C32.1191 6.41547 31.6871 5.9829 31.154 5.9829Z" fill="white" stroke="white" stroke-width="0.2"/>
<path d="M18.173 19.829C17.6398 19.829 17.2079 20.2616 17.2079 20.7946V24.2559C17.2079 24.7894 17.6399 25.2215 18.173 25.2215C18.706 25.2215 19.1386 24.7895 19.1386 24.2559V20.7946C19.1386 20.2615 18.7061 19.829 18.173 19.829Z" fill="white" stroke="white" stroke-width="0.2"/>
<path d="M44.1346 19.5394C43.6016 19.5394 43.169 19.9713 43.169 20.5044V24.249C43.169 24.782 43.6015 25.2145 44.1346 25.2145C44.6677 25.2145 45.1002 24.782 45.1002 24.249V20.5044C45.1002 19.9713 44.6676 19.5394 44.1346 19.5394Z" fill="white" stroke="white" stroke-width="0.2"/>
<path d="M22.4185 17.8894C21.885 17.8894 21.453 18.3214 21.453 18.8545V25.8989C21.453 26.4319 21.8849 26.8645 22.4185 26.8645C22.9517 26.8645 23.3836 26.4319 23.3836 25.8989V18.8545C23.3836 18.3214 22.9516 17.8894 22.4185 17.8894Z" fill="white" stroke="white" stroke-width="0.2"/>
</g>
<defs>
<clipPath id="clip0">
<rect width="45" height="45" fill="white"/>
</clipPath>
</defs>
</svg>
