<svg width="45" height="45" viewBox="0 0 45 45" fill="none" xmlns="http://www.w3.org/2000/svg">
<g clip-path="url(#clip0)">
<path d="M36.615 22.5085C36.6149 22.3774 36.6125 22.2468 36.6088 22.1164C36.6077 22.078 36.6066 22.0398 36.6051 22.0015C36.6007 21.8812 36.5953 21.761 36.5879 21.6414C36.5855 21.6024 36.5825 21.5636 36.5799 21.5246C36.5733 21.4292 36.5657 21.3341 36.5572 21.2392C36.5519 21.1804 36.5464 21.1217 36.5404 21.0631C36.5335 20.9953 36.5256 20.9278 36.5178 20.8603C36.5036 20.7379 36.4877 20.6156 36.4703 20.494C36.4658 20.4629 36.4615 20.4318 36.4568 20.4009C36.0869 17.9254 35.0731 15.6247 33.5291 13.7032C33.4835 13.6462 33.4373 13.5895 33.3909 13.5332C33.366 13.5031 33.3413 13.4728 33.316 13.443C31.5728 11.3672 29.2276 9.79066 26.4967 8.99138C26.4856 8.98813 26.4745 8.98514 26.4634 8.98189C26.3025 8.93522 26.1407 8.89084 25.9773 8.84961C25.9723 8.8483 25.9672 8.8468 25.9622 8.84557C25.9612 8.84531 25.9601 8.84531 25.9591 8.84496C24.8401 8.56335 23.6824 8.42053 22.5177 8.42053C14.7444 8.42053 8.42032 14.7445 8.42032 22.5179C8.42032 30.2913 14.7443 36.6152 22.5177 36.6152C23.6807 36.6152 24.8383 36.4728 25.9585 36.1919C25.9597 36.1917 25.961 36.1915 25.9622 36.1912C25.9689 36.1895 25.9756 36.1875 25.9824 36.1857C26.1405 36.1457 26.2972 36.1028 26.4528 36.0577C26.4694 36.0529 26.486 36.0483 26.5023 36.0436C26.6677 35.995 26.8316 35.9434 26.9941 35.8892C26.9999 35.8873 27.0057 35.8854 27.0115 35.8834C29.5207 35.0436 31.6801 33.5391 33.3122 31.5971C33.3414 31.5625 33.37 31.5275 33.3989 31.4925C33.4401 31.4426 33.4808 31.3924 33.5213 31.342C35.0697 29.4183 36.0865 27.1136 36.457 24.6334C36.4615 24.6038 36.4655 24.5741 36.4698 24.5445C36.4874 24.421 36.5037 24.2972 36.5181 24.1729C36.5258 24.1065 36.5335 24.0399 36.5404 23.9732C36.5464 23.9142 36.552 23.8551 36.5573 23.7959C36.5657 23.7015 36.5733 23.6069 36.5799 23.512C36.5826 23.4726 36.5856 23.4331 36.588 23.3938C36.5953 23.2743 36.6009 23.1544 36.6052 23.0343C36.6065 22.996 36.6077 22.9576 36.6089 22.9192C36.6126 22.7889 36.615 22.6583 36.6151 22.5271C36.6151 22.524 36.6152 22.5209 36.6152 22.5177C36.6152 22.5146 36.615 22.5117 36.615 22.5085ZM10.4566 22.5179C10.4566 16.1992 15.3409 11.0003 21.5322 10.4972C17.4377 13.0057 14.813 17.506 14.813 22.5179C14.813 27.5292 17.4375 32.0294 21.5315 34.5385C15.3406 34.035 10.4566 28.8364 10.4566 22.5179ZM34.569 22.9901C34.5675 23.0306 34.5651 23.071 34.5632 23.1114C34.5571 23.2364 34.5493 23.3611 34.5395 23.4852C34.5368 23.5188 34.5344 23.5526 34.5314 23.5861C34.3104 26.1029 33.315 28.4248 31.757 30.2809C31.706 30.3415 31.6535 30.4012 31.6012 30.4608C31.567 30.5 31.5327 30.5391 31.4979 30.5778C30.7416 31.4168 29.8597 32.1584 28.866 32.7751C28.1692 33.2078 27.4319 33.5651 26.6645 33.8459C26.6141 33.8642 26.5641 33.8837 26.5133 33.9013C26.4419 33.9264 26.3698 33.9494 26.2979 33.9731C26.2132 34.0009 26.1283 34.0287 26.0427 34.0548C25.9822 34.0732 25.9214 34.0907 25.8605 34.1083C25.8103 34.1227 25.7595 34.136 25.7089 34.1499C20.4792 32.7161 16.8493 27.9703 16.8493 22.5179C16.8493 17.065 20.4794 12.3195 25.709 10.8869C25.7572 10.9 25.8055 10.9127 25.8535 10.9264C25.9189 10.9451 25.9841 10.9639 26.0491 10.9838C26.1276 11.0077 26.2054 11.0332 26.2832 11.0586C26.3621 11.0844 26.4412 11.1098 26.5195 11.1372C26.5568 11.1502 26.5934 11.1647 26.6306 11.1779C27.4099 11.4604 28.1588 11.8218 28.8663 12.2606C29.7588 12.8144 30.5616 13.4689 31.2639 14.2045C31.2663 14.2071 31.2688 14.2096 31.2712 14.2122C31.3476 14.2923 31.4223 14.3736 31.4962 14.4557C31.533 14.4968 31.5694 14.5382 31.6056 14.5798C31.6562 14.6376 31.7069 14.6951 31.7563 14.7537C33.3147 16.6097 34.3103 18.9319 34.5314 21.4493C34.5344 21.4829 34.5368 21.5168 34.5395 21.5507C34.5493 21.6747 34.5571 21.7992 34.5631 21.9241C34.5651 21.9646 34.5674 22.0051 34.5689 22.0457C34.5749 22.2025 34.5789 22.3597 34.5789 22.5177C34.5789 22.6758 34.5751 22.8333 34.569 22.9901Z" fill="white"/>
<path d="M31.9556 21.4999C31.3933 21.4999 30.9375 21.9557 30.9375 22.5179C30.9375 25.0695 29.8057 27.4509 27.8322 29.0512C27.3955 29.4054 27.3286 30.0465 27.6826 30.4831C27.8839 30.7313 28.1776 30.86 28.474 30.86C28.6992 30.86 28.926 30.7855 29.1145 30.6326C31.567 28.6438 32.9736 25.6861 32.9736 22.5179C32.9736 21.9556 32.5179 21.4999 31.9556 21.4999Z" fill="white"/>
<path d="M22.5178 37.8886C21.9556 37.8886 21.4998 38.3444 21.4998 38.9066V40.8098C21.4998 41.3721 21.9556 41.8278 22.5178 41.8278C23.08 41.8278 23.5358 41.372 23.5358 40.8098V38.9066C23.5358 38.3444 23.0801 37.8886 22.5178 37.8886Z" fill="white"/>
<path d="M23.5156 43.7829C23.5024 43.7178 23.483 43.6536 23.4576 43.5925C23.4321 43.5314 23.4006 43.4724 23.3639 43.4164C23.3262 43.3614 23.2845 43.3085 23.2367 43.2616C23.1898 43.2148 23.1379 43.172 23.0819 43.1354C23.027 43.0987 22.9679 43.0672 22.9068 43.0417C22.8457 43.0162 22.7816 42.9969 22.7164 42.9837C22.5851 42.9572 22.4497 42.9572 22.3184 42.9837C22.2533 42.997 22.1891 43.0163 22.128 43.0417C22.0669 43.0672 22.0069 43.0987 21.9519 43.1354C21.8959 43.172 21.844 43.2148 21.7971 43.2616C21.7503 43.3084 21.7075 43.3614 21.6709 43.4164C21.6342 43.4724 21.6027 43.5314 21.5772 43.5925C21.5517 43.6536 21.5324 43.7178 21.5192 43.7829C21.5059 43.8491 21.4988 43.9152 21.4988 43.9814C21.4988 44.0486 21.5059 44.1148 21.5192 44.1809C21.5325 44.2461 21.5518 44.3102 21.5772 44.3713C21.6027 44.4324 21.6342 44.4915 21.6709 44.5474C21.7075 44.6025 21.7504 44.6543 21.7971 44.7022C21.844 44.7491 21.8959 44.7908 21.9519 44.8284C22.0068 44.8651 22.0669 44.8966 22.128 44.9221C22.1891 44.9476 22.2533 44.9669 22.3184 44.9801C22.3846 44.9934 22.4508 44.9995 22.5169 44.9995C22.5842 44.9995 22.6503 44.9934 22.7164 44.9801C22.7816 44.9669 22.8457 44.9475 22.9068 44.9221C22.9679 44.8966 23.027 44.8651 23.0819 44.8284C23.1379 44.7907 23.1898 44.749 23.2367 44.7022C23.2845 44.6544 23.3262 44.6025 23.3639 44.5474C23.4006 44.4915 23.4321 44.4324 23.4576 44.3713C23.4831 44.3102 23.5025 44.2461 23.5156 44.1809C23.5289 44.1148 23.535 44.0486 23.535 43.9814C23.535 43.9152 23.5288 43.8491 23.5156 43.7829Z" fill="white"/>
<path d="M26.6835 31.054C26.4933 30.5248 25.9102 30.25 25.3812 30.4402L25.3684 30.4448C24.953 30.594 24.6943 30.9857 24.6944 31.4031C24.6944 31.5173 24.7138 31.6334 24.7547 31.7471C24.9039 32.1625 25.2954 32.4211 25.7128 32.4211C25.827 32.4211 25.9434 32.4017 26.057 32.3608L26.0697 32.3562C26.4852 32.207 26.7438 31.8153 26.7437 31.398C26.7437 31.2838 26.7242 31.1676 26.6835 31.054Z" fill="white"/>
<path d="M36.9443 8.09095C36.5468 7.69334 35.9021 7.69334 35.5046 8.09095L33.3613 10.2343C32.9637 10.6318 32.9637 11.2765 33.3613 11.6741C33.5601 11.8729 33.8206 11.9723 34.0812 11.9723C34.3417 11.9723 34.6024 11.873 34.8011 11.6741L36.9444 9.53078C37.3419 9.13334 37.3419 8.48866 36.9443 8.09095Z" fill="white"/>
<path d="M11.6738 33.3617C11.2764 32.9642 10.6317 32.9642 10.2341 33.3617L8.09081 35.505C7.69328 35.9025 7.69328 36.5472 8.09081 36.9448C8.28962 37.1436 8.55013 37.243 8.81072 37.243C9.07132 37.243 9.33191 37.1436 9.53063 36.9448L11.6739 34.8015C12.0714 34.404 12.0714 33.7593 11.6738 33.3617Z" fill="white"/>
<path d="M11.6738 10.2343L9.53063 8.09104C9.13311 7.69351 8.48843 7.69351 8.09081 8.09104C7.69328 8.48857 7.69328 9.13325 8.09081 9.53086L10.2341 11.6741C10.4329 11.8729 10.6934 11.9723 10.954 11.9723C11.2146 11.9723 11.4752 11.8729 11.6739 11.6741C12.0714 11.2765 12.0714 10.6319 11.6738 10.2343Z" fill="white"/>
<path d="M36.9443 35.505L34.8011 33.3617C34.4036 32.9642 33.7589 32.9642 33.3613 33.3617C32.9637 33.7592 32.9637 34.4039 33.3613 34.8015L35.5046 36.9448C35.7034 37.1436 35.9639 37.243 36.2245 37.243C36.485 37.243 36.7457 37.1436 36.9444 36.9448C37.3419 36.5473 37.3419 35.9026 36.9443 35.505Z" fill="white"/>
<path d="M6.16377 21.4999H1.01804C0.455801 21.4999 0 21.9556 0 22.5179C0 23.0803 0.455801 23.536 1.01804 23.536H6.16377C6.72601 23.536 7.18181 23.0802 7.18181 22.5179C7.18181 21.9557 6.72609 21.4999 6.16377 21.4999Z" fill="white"/>
<path d="M22.5178 0.000518799C21.9556 0.000518799 21.4998 0.45632 21.4998 1.01856V6.16429C21.4998 6.72652 21.9556 7.18233 22.5178 7.18233C23.08 7.18233 23.5358 6.72652 23.5358 6.16429V1.01856C23.5358 0.45632 23.0801 0.000518799 22.5178 0.000518799Z" fill="white"/>
<path d="M40.8097 21.4999H38.9065C38.3442 21.4999 37.8885 21.9557 37.8885 22.5179C37.8885 23.0802 38.3443 23.536 38.9065 23.536H40.8097C41.372 23.536 41.8277 23.0802 41.8277 22.5179C41.8277 21.9557 41.3719 21.4999 40.8097 21.4999Z" fill="white"/>
<path d="M44.9801 22.3189C44.9668 22.2538 44.9474 22.1897 44.922 22.1286C44.8966 22.0675 44.865 22.0075 44.8284 21.9524C44.7906 21.8975 44.7489 21.8445 44.7021 21.7977C44.6543 21.7508 44.6024 21.7081 44.5474 21.6714C44.4914 21.6348 44.4323 21.6032 44.3712 21.5778C44.3101 21.5523 44.246 21.5329 44.1809 21.5197C44.0496 21.4933 43.9141 21.4933 43.7828 21.5197C43.7177 21.533 43.6535 21.5524 43.5924 21.5778C43.5314 21.6032 43.4723 21.6348 43.4163 21.6714C43.3613 21.7081 43.3084 21.7509 43.2615 21.7977C43.2147 21.8444 43.172 21.8974 43.1353 21.9524C43.0987 22.0074 43.0671 22.0675 43.0416 22.1286C43.0161 22.1897 42.9968 22.2538 42.9836 22.3189C42.9703 22.3851 42.9632 22.4513 42.9632 22.5175C42.9632 22.5847 42.9703 22.6508 42.9836 22.717C42.9969 22.7821 43.0162 22.8452 43.0416 22.9074C43.0671 22.9685 43.0987 23.0275 43.1353 23.0824C43.172 23.1384 43.2148 23.1904 43.2615 23.2372C43.3083 23.2841 43.3613 23.3268 43.4163 23.3645C43.4723 23.4011 43.5314 23.4327 43.5924 23.4582C43.6535 23.4837 43.7177 23.503 43.7828 23.5162C43.8479 23.5294 43.9152 23.5355 43.9814 23.5355C44.0485 23.5355 44.1147 23.5294 44.1809 23.5162C44.246 23.5029 44.3101 23.4836 44.3712 23.4582C44.4323 23.4327 44.4914 23.4011 44.5474 23.3645C44.6024 23.3268 44.6542 23.2841 44.7021 23.2372C44.749 23.1904 44.7907 23.1384 44.8284 23.0824C44.865 23.0275 44.8966 22.9685 44.922 22.9074C44.9475 22.8452 44.9669 22.7821 44.9801 22.717C44.9933 22.6508 45.0004 22.5846 45.0004 22.5175C45.0004 22.4513 44.9933 22.3851 44.9801 22.3189Z" fill="white"/>
</g>
<defs>
<clipPath id="clip0">
<rect width="45" height="45" fill="white"/>
</clipPath>
</defs>
</svg>
